<svg id="Object" xmlns="http://www.w3.org/2000/svg" viewBox="0 0 323.74 663.45"><defs><style>.cls-1{fill:#363f51;}.cls-2{fill:#d3d3d3;}.cls-3{fill:#3b455a;}.cls-4{fill:#d5c6ab;}.cls-5{fill:#3b3631;}.cls-6{fill:#fff;}.cls-7{fill:#587bc9;}.cls-8{fill:#eac1a4;}</style></defs><title>avatarDefault</title><polygon class="cls-1" points="216.54 643.74 217.66 652.47 201.31 663.45 191.46 655.84 199.07 645.98 215.41 635 216.54 643.74"/><polygon class="cls-2" points="217.09 640.8 204.48 529.42 219.65 404.73 216.24 378.2 148.5 375.63 146.06 418.8 157.43 529.59 200.21 646.5 217.09 640.8"/><polygon class="cls-3" points="142.14 252.39 108.07 261.67 68.66 331.49 87.33 348.78 113.6 317.67 142.14 252.39"/><polygon class="cls-2" points="98.8 388.11 98.62 500.51 121.24 645.21 137.53 645.04 146.48 511.23 167.43 377.3 98.8 388.11"/><polygon class="cls-1" points="137.5 651.91 119.98 660.89 111.09 652.18 119.81 643.28 137.41 643.11 137.5 651.91"/><path class="cls-3" d="M625.1,483.34c-.16-4.87-.43-8.94-.46-10.39-.35-13.07-1.52-26.1-3.15-39.08-1.47-11.62-3.32-40.48-5.31-52-1.64-9.54-7.37-33.35-11.5-42.2-10.29-22-7.11-24-52.29-30.57-19.8-2.86-24.48,9.48-40.67,23.67-1.6,1.4-1.51,9.73-1.88,11.94-.65,3.88-1.35,7.76-2.15,11.63-.63,3-1.33,6.06-2.11,9.06-8.05,31.11-17.32,61-19.21,93.27-.54,9.1-3.33,17.93-3.09,27.11a5,5,0,0,0,.77,3c2.74,3.44,17.83-1.82,22.42-2.27a335.15,335.15,0,0,1,35.28-1.78,221.7,221.7,0,0,1,35.93,3.34c7.91,1.32,16,3.25,23.06,6.94,6.75,3.53,11.62,8.71,18.47,12.37a3.63,3.63,0,0,0,2.1.6C625.24,507.41,625.43,493.59,625.1,483.34Z" transform="translate(-398.44 -57)"/><path class="cls-4" d="M552.34,315.26c2.28,1.13,7.66,1.53,13.27-.66a3,3,0,0,0,1.88-2.75,77.2,77.2,0,0,0-.82-10.19c4.21-1.48,9.07-3.7,9.81-8.1a12.59,12.59,0,0,0-.25-4.19l-3-17.18a15.37,15.37,0,0,0-1.78-5.71c-1.89-3-5.56-4.28-9-4.89-8.86-1.54-18.52.39-25.4,6.19a13.84,13.84,0,0,0-4.29,5.66c-1.24,3.48-.31,7.31.63,10.89q1.29,4.94,2.59,9.89c1,3.79,2.44,8.1,6.09,9.52,1.94.76,4.23.53,6,1.65C551.14,307.36,550.73,312,552.34,315.26Z" transform="translate(-398.44 -57)"/><path class="cls-5" d="M503.43,257.91c-1.51-14.22,4.7-29.19,16.39-26.21,7.08,1.8,13.42,4.79,20.56,2.12,6.7-2.5,11.54-1.48,18.54,1,7.58,2.7,17.75,3.34,24.61,7.16a20.07,20.07,0,0,1,6.93,6.84,30.47,30.47,0,0,1,.09,32.24,43.46,43.46,0,0,1-4.75,6c-3.57,3.88-7.85,8.67-12.77,10.11-.12-4.4,3.89-18.28.51-21.88-5.36-5.73-17.48-3.73-24.14-2.32-7.25,1.54-13.72,6.67-20.91,7.77C512.6,283.17,504.82,270.85,503.43,257.91Z" transform="translate(-398.44 -57)"/><path class="cls-6" d="M635,227.64c-1.24-.62-2.49-1.23-3.75-1.82,12.61-18.31,19.44-40.79,19.44-64.61C650.65,103.75,610.12,57,560.31,57S470,103.75,470,161.21c0,23.84,6.83,46.31,19.44,64.62-2,.89-3.26,1.55-3.83,1.85-52.95,24.3-87.14,77.41-87.14,135.37v36.11a28.23,28.23,0,0,0,28.2,28.2H694a28.23,28.23,0,0,0,28.2-28.2V363.05C722.18,305.06,688,251.93,635,227.64Z" transform="translate(-398.44 -57)"/><path class="cls-7" d="M630.74,236.45c-.48.59-1,1.2-1.45,1.78-18.27,21.41-42.76,33.21-69,33.21s-50.71-11.8-69-33.21c-.5-.58-1-1.19-1.45-1.78-48.06,22-81.67,70.54-81.67,126.6v36.11a18.43,18.43,0,0,0,18.43,18.43H694a18.43,18.43,0,0,0,18.43-18.43V363.05C712.41,307,678.8,258.41,630.74,236.45Z" transform="translate(-398.44 -57)"/><path class="cls-7" d="M560.31,255.65c21.17,0,40.42-9.58,54.8-25.23,15.85-17.24,25.77-41.86,25.77-69.21,0-52.16-36.07-94.45-80.57-94.45s-80.57,42.29-80.57,94.45c0,27.35,9.92,52,25.77,69.21C519.89,246.07,539.14,255.65,560.31,255.65Z" transform="translate(-398.44 -57)"/><polygon class="cls-8" points="70.78 369.92 67.06 360.82 82.05 354.96 95.36 364.91 87.71 377.03 70.78 369.92"/><polygon class="cls-8" points="238.2 369.87 241.89 360.76 226.87 354.94 213.6 364.95 221.3 377.04 238.2 369.87"/></svg>