<?xml version="1.0" encoding="iso-8859-1"?>
<!-- Generator: Adobe Illustrator 19.0.0, SVG Export Plug-In . SVG Version: 6.00 Build 0)  -->
<svg version="1.1" id="Capa_1" xmlns="http://www.w3.org/2000/svg" xmlns:xlink="http://www.w3.org/1999/xlink" x="0px" y="0px"
	 viewBox="0 0 512 512" style="enable-background:new 0 0 512 512;" xml:space="preserve">
<path style="fill:#8E6859;" d="M103.412,119.209v118.329h-1.613c-16.542,0-29.953,13.41-29.953,29.953s13.41,29.953,29.953,29.953
	h1.663c1.698,59.428,50.403,107.082,110.241,107.082h21.615c0,4.05,0,7.113,0,7.122c0,9.958-0.127,9.669-9.636,11.008
	c-7.333,1.032-14.367,3.87-20.373,8.201c-11.885,8.572-19.075,22.597-19.076,37.252V512h139.533v-43.891
	c0-14.655-7.191-28.68-19.075-37.252c-6.006-4.332-13.04-7.169-20.373-8.201c-9.509-1.339-9.636-1.05-9.636-11.008
	c0-0.009,0-3.072,0-7.122h21.615c60.912,0,110.291-49.379,110.291-110.291V119.209H103.412z"/>
<path style="fill:#ED633E;" d="M325.763,468.111c0-14.659-7.185-28.682-19.068-37.251c-3.838-2.768-8.094-4.924-12.583-6.388
	c-2.534-0.829-5.149-1.44-7.796-1.818c-3.878-0.547-6.195-0.813-7.579-1.625l-1.778,0.394l-4.755,2.647
	c-10.17,5.672-22.552,5.632-32.681-0.113l-4.481-2.534l-1.778-0.394c-1.384,0.813-3.701,1.078-7.579,1.625
	c-2.647,0.378-5.262,0.99-7.796,1.818c-4.489,1.464-8.745,3.621-12.583,6.388c-11.883,8.569-19.068,24.297-19.068,38.956h33.889V512
	h71.748v-43.889H325.763z"/>
<path style="fill:#875B4C;" d="M410.715,237.538h-2.123V119.209h-43.546v175.164c0,60.841-49.307,110.148-110.148,110.148h43.546
	c59.8,0,108.476-47.657,110.103-107.077h2.168c8.692,0,16.519-3.702,21.991-9.616c4.942-5.341,7.962-12.486,7.962-20.337l0,0
	C440.667,250.948,427.257,237.538,410.715,237.538z"/>
<g>
	<circle style="fill:#CE6B55;" cx="166.89" cy="324.21" r="16.411"/>
	<circle style="fill:#CE6B55;" cx="345.11" cy="324.21" r="16.411"/>
</g>
<path style="fill:#3F2F27;" d="M446.383,162.493c-8.282-18.557-14.089-38.278-18.513-58.084
	C423.009,82.648,413.867,62,400.388,44.238C340.14-35.157,256,16.542,256,16.542s-84.14-51.698-144.388,27.696
	C98.133,62,88.991,82.648,84.13,104.409c-4.425,19.806-10.232,39.527-18.513,58.084c-2.288,5.127-16.733,24.959-14.979,29.574
	c6.887,18.132,66.676-8.695,75.282-13.974c19.033-11.674,32.405-30.631,53.088-40.027c26.336-11.963,50.403-12.987,76.992,1.122
	c26.589-14.109,50.656-13.085,76.992-1.122c20.683,9.396,34.055,28.353,53.088,40.027c8.607,5.279,68.395,32.106,75.282,13.974
	C463.115,187.452,448.671,167.62,446.383,162.493z"/>
<path style="fill:#33241E;" d="M461.357,192.061c-3.693,9.729-22.614,6.518-40.694,0.634c-2.081-3.335-3.831-6.146-4.506-7.662
	c-8.282-18.562-14.097-38.282-18.521-58.085c-4.851-21.759-14.001-42.416-27.478-60.179c-33.675-44.372-74.802-47.79-104.535-42.18
	c-5.007,0.945-9.622-2.954-9.622-8.05l0,0c0,0,84.144-51.691,144.392,27.699c13.477,17.763,22.614,38.406,27.478,60.166
	c4.423,19.816,10.225,39.536,18.507,58.085C448.665,167.615,463.121,187.459,461.357,192.061z"/>
<g>
	<circle style="fill:#FFFFFF;" cx="197.18" cy="271.12" r="41.02"/>
	<circle style="fill:#FFFFFF;" cx="314.82" cy="271.12" r="41.02"/>
</g>
<path d="M256.523,432.813c-13.554,0-23.019-6.122-23.61-6.513c-3.552-2.355-4.522-7.143-2.167-10.695
	c2.345-3.535,7.103-4.513,10.65-2.196c0.688,0.436,14.602,9.018,31.156-0.57c3.686-2.136,8.407-0.879,10.544,2.808
	c2.137,3.688,0.879,8.408-2.808,10.544C271.711,431.161,263.565,432.813,256.523,432.813z"/>
<g>
	<path style="fill:#F2B844;" d="M261.694,411.036V422.2v9.446v11.164l22.025,4.44c12.84,2.588,24.833-7.229,24.833-20.327l0,0
		c0-13.098-11.993-22.915-24.833-20.327L261.694,411.036z"/>
	<path style="fill:#F2B844;" d="M250.306,411.036V422.2v9.446v11.164l-22.025,4.44c-12.84,2.588-24.833-7.229-24.833-20.327l0,0
		c0-13.098,11.993-22.915,24.833-20.327L250.306,411.036z"/>
</g>
<circle style="fill:#EFA645;" cx="256" cy="426.92" r="16.515"/>
<path style="fill:#3F2F27;" d="M256,369.121c-12.94,0-23.467-10.527-23.467-23.467v-0.721c0-4.262,3.454-7.716,7.716-7.716
	s7.716,3.454,7.716,7.716v0.721c0,4.431,3.605,8.035,8.035,8.035s8.035-3.605,8.035-8.035v-0.721c0-4.262,3.454-7.716,7.716-7.716
	s7.716,3.454,7.716,7.716v0.721C279.467,358.594,268.94,369.121,256,369.121z"/>
<g>
	<circle style="fill:#AFE6EF;" cx="198.82" cy="270.53" r="39.874"/>
	<circle style="fill:#AFE6EF;" cx="313.18" cy="270.53" r="39.874"/>
</g>
<path style="fill:#ED633E;" d="M404.317,222.533h-93.54c-0.568,0-1.12,0.069-1.652,0.188c-22.611,1.901-40.802,19.537-43.563,41.897
	h-19.125c-2.761-22.36-20.951-39.996-43.563-41.897c-0.532-0.12-1.083-0.188-1.652-0.188h-93.54c-4.143,0-7.5,3.357-7.5,7.5
	s3.357,7.5,7.5,7.5h56.341c-8.167,8.608-13.193,20.223-13.193,32.997c0,26.463,21.529,47.991,47.992,47.991
	c23.355,0,42.856-16.773,47.117-38.903h20.12c4.26,22.131,23.762,38.903,47.117,38.903c26.463,0,47.992-21.528,47.992-47.991
	c0-12.774-5.026-24.389-13.193-32.997h56.341c4.143,0,7.5-3.357,7.5-7.5S408.46,222.533,404.317,222.533z M198.823,303.521
	c-18.192,0-32.992-14.8-32.992-32.991c0-18.192,14.8-32.992,32.992-32.992c18.191,0,32.991,14.8,32.991,32.992
	S217.015,303.521,198.823,303.521z M313.177,303.521c-18.191,0-32.991-14.8-32.991-32.991c0-18.192,14.8-32.992,32.991-32.992
	c18.192,0,32.992,14.8,32.992,32.992S331.369,303.521,313.177,303.521z"/>
<g>
</g>
<g>
</g>
<g>
</g>
<g>
</g>
<g>
</g>
<g>
</g>
<g>
</g>
<g>
</g>
<g>
</g>
<g>
</g>
<g>
</g>
<g>
</g>
<g>
</g>
<g>
</g>
<g>
</g>
</svg>
