<svg xmlns="http://www.w3.org/2000/svg" xmlns:xlink="http://www.w3.org/1999/xlink" viewBox="0 0 421.18 329.1"><defs><style>.cls-1,.cls-9{fill:#c6ff00;}.cls-1,.cls-2,.cls-3,.cls-4,.cls-6,.cls-8{stroke:#263238;}.cls-1,.cls-2,.cls-3,.cls-4,.cls-5,.cls-6{stroke-linecap:round;stroke-linejoin:round;}.cls-1,.cls-2,.cls-3,.cls-4,.cls-5,.cls-6,.cls-8{stroke-width:1.16px;}.cls-12,.cls-14,.cls-2{fill:#fff;}.cls-17,.cls-3{fill:#757575;}.cls-4,.cls-7{fill:#263238;}.cls-5,.cls-6,.cls-8{fill:none;}.cls-5{stroke:#fff;}.cls-8{stroke-miterlimit:10;}.cls-10{clip-path:url(#clip-path);}.cls-11{opacity:0.18;}.cls-13{clip-path:url(#clip-path-2);}.cls-14{opacity:0.5;}.cls-15{clip-path:url(#clip-path-3);}.cls-16{opacity:0.3;}.cls-18{clip-path:url(#clip-path-4);}.cls-19{clip-path:url(#clip-path-5);}</style><clipPath id="clip-path" transform="translate(-38.4 -116.24)"><path class="cls-1" d="M89.81,400v21.9a4.71,4.71,0,0,0,2.54,4.18l35.2,18.18a4.74,4.74,0,0,0,4.08.11l51.85-19.77a4.68,4.68,0,0,0,2.78-4.28V393.79L127,411.71Z"/></clipPath><clipPath id="clip-path-2" transform="translate(-38.4 -116.24)"><path class="cls-2" d="M144,363,87.11,381.25a2.2,2.2,0,0,0-1.54,2.1v16.22a2.21,2.21,0,0,0,1.26,2l39.61,18.87a2.19,2.19,0,0,0,1.72.08l59.6-22.27a2.21,2.21,0,0,0,1.43-2.07L189.3,381a2.22,2.22,0,0,0-1.74-2.16L145.13,363A2.25,2.25,0,0,0,144,363Z"/></clipPath><clipPath id="clip-path-3" transform="translate(-38.4 -116.24)"><path class="cls-1" d="M100.56,289.2s-2.28,13.36-.65,19.87a27.68,27.68,0,0,0,4.56,10.1S96.33,331.23,98,341.33s5.86,11.41,5.86,11.41-3.58,18.57,2.93,25.09,20.86,13.68,36.82,10.75,26.72-3.59,30-9.12,1.3-30,1.3-30-.65-27.05-1.3-43.66-2.93-30-10.75-36.5-42.36,3.59-52.79,10.43S100.56,289.2,100.56,289.2Z"/></clipPath><clipPath id="clip-path-4" transform="translate(-38.4 -116.24)"><path class="cls-3" d="M168.66,273.23s-6.19-9.45-14.66-14.66-30.3-9.13-39.1-10.75-18.25-1-20.85,8.79-2.29,26.07.32,33.24,13.36,11.4,21.83,6.52,31.93-23.79,40.08-24.77S168,276.82,168.66,273.23Z"/></clipPath><clipPath id="clip-path-5" transform="translate(-38.4 -116.24)"><path class="cls-1" d="M155,273.23c7.17-2.61,16.29-1,19.55,8.15s6.19,35.84,6.19,35.84,8.14,1,11.4,4.56,4.89,12.71,4.24,17.27-12.06,13-25.09,13.36-22.48-5.86-27.05-22.48-2.75-42-2.75-42,1.66-7.45,4.14-9.11"/></clipPath></defs><title>error</title><g id="Hole"><ellipse class="cls-4" cx="299.54" cy="265.83" rx="70.2" ry="20.83"/><path class="cls-2" d="M337.94,370.81c33.21,0,61,6.85,68.31,16a7.72,7.72,0,0,0,1.89-4.79c0-11.5-31.43-20.83-70.2-20.83s-70.2,9.33-70.2,20.83a7.71,7.71,0,0,0,1.88,4.79C276.92,377.66,304.73,370.81,337.94,370.81Z" transform="translate(-38.4 -116.24)"/><path class="cls-5" d="M328.36,400.28c-23.45-1.07-41.15-5.87-41.15-11.63a3.2,3.2,0,0,1,.57-1.78" transform="translate(-38.4 -116.24)"/><path class="cls-5" d="M382.78,382.93c4,1.7,6.3,3.65,6.3,5.72,0,6.54-22.81,11.84-50.94,11.84h-1.21" transform="translate(-38.4 -116.24)"/><path class="cls-5" d="M294.06,382.71c8.82-3.53,25.26-5.91,44.08-5.91a178.54,178.54,0,0,1,31.93,2.62" transform="translate(-38.4 -116.24)"/><path class="cls-5" d="M327.69,392.71c-5.94-.82-9.92-2.33-9.92-4.06,0-2.62,9.12-4.74,20.37-4.74s20.38,2.12,20.38,4.74c0,2.24-6.71,4.12-15.72,4.61" transform="translate(-38.4 -116.24)"/></g><g id="Landscape"><path class="cls-6" d="M56,298.34c30.62-8.69,95-25.87,130.59-27.16,47.76-1.74,128.52,33,178.89,39.08s84.23,4.34,84.23,4.34" transform="translate(-38.4 -116.24)"/><path class="cls-6" d="M39,303.31s2.64-.8,7.28-2.16" transform="translate(-38.4 -116.24)"/><path class="cls-6" d="M436.12,249.19a221.58,221.58,0,0,0-53.77-5.09c-37.35,1.25-77.74,6.2-127.76,12.64S133.42,227.58,85,240.78,40.28,258,40.28,258" transform="translate(-38.4 -116.24)"/><path class="cls-6" d="M449.89,252.76s-1.89-.62-5.3-1.53" transform="translate(-38.4 -116.24)"/></g><g id="Clouds"><path class="cls-6" d="M360.26,160.94a10.05,10.05,0,0,0-19.54,0Z" transform="translate(-38.4 -116.24)"/><path class="cls-6" d="M459,160.94a12.48,12.48,0,0,0-10.7-9.51,29.6,29.6,0,0,0,.5-5.36,29.25,29.25,0,0,0-58.05-5.15,18.69,18.69,0,0,0-30.19,14.74,18.83,18.83,0,0,0,.77,5.28Z" transform="translate(-38.4 -116.24)"/><path class="cls-6" d="M186.34,184.4a5.1,5.1,0,0,0-9.92,0Z" transform="translate(-38.4 -116.24)"/><path class="cls-6" d="M236.46,184.4a6.33,6.33,0,0,0-5.43-4.83,15.2,15.2,0,0,0,.25-2.72,14.85,14.85,0,0,0-29.46-2.61,9.48,9.48,0,0,0-14.94,10.16Z" transform="translate(-38.4 -116.24)"/><path class="cls-6" d="M231.42,200.09a3.22,3.22,0,0,0-6.26,0Z" transform="translate(-38.4 -116.24)"/><path class="cls-6" d="M263.05,200.09a4,4,0,0,0-3.43-3,8.88,8.88,0,0,0,.16-1.72,9.37,9.37,0,0,0-18.59-1.65,6,6,0,0,0-9.68,4.72,5.85,5.85,0,0,0,.25,1.69Z" transform="translate(-38.4 -116.24)"/></g><g id="Character"><path class="cls-7" d="M164.06,312.1a1.77,1.77,0,0,1-.93-.26,1.91,1.91,0,0,1-.68-2.6c.47-.83,120.69-131.92,175.69-180a.94.94,0,0,1,1.32.1,1,1,0,0,1-.1,1.34c-54.77,47.87-173.2,179.64-173.68,180.47A1.85,1.85,0,0,1,164.06,312.1Z" transform="translate(-38.4 -116.24)"/><path class="cls-1" d="M170.7,286s6-6.36,9.54-6.36,10.33,6,9.93,9.14-6.36.4-6.36.4-5.56,7.55-11.12,6.36S170.7,286,170.7,286Z" transform="translate(-38.4 -116.24)"/><path class="cls-1" d="M183.81,289.18s3.65,2.52,4,4.3-4,6.8-8.91,7.93-7.44-1.62-6-4.21S180.17,289.41,183.81,289.18Z" transform="translate(-38.4 -116.24)"/><path class="cls-6" d="M333.58,266.14V134.6s-2.65,9.52-2.65,10.21" transform="translate(-38.4 -116.24)"/><rect class="cls-1" x="249.17" y="156.84" width="100.87" height="80.82"/><path class="cls-7" d="M335,272.73v-4.62a1.16,1.16,0,1,0-2.32,0v4.62Z" transform="translate(-38.4 -116.24)"/><path class="cls-7" d="M344.31,261.47l0,.23a1.14,1.14,0,0,0-2.14.58v12.36a3.56,3.56,0,0,1-5,3.27,2,2,0,0,0,.3,2.5,5.83,5.83,0,0,0,7-5.77v-5.73h2.66Z" transform="translate(-38.4 -116.24)"/><path class="cls-6" d="M333.68,133.37s2.06-7.33.23-6.64S333.68,133.37,333.68,133.37Z" transform="translate(-38.4 -116.24)"/><path class="cls-6" d="M333.68,133.37s-7.78-2.75-7.1-.23S333.68,133.37,333.68,133.37Z" transform="translate(-38.4 -116.24)"/><path class="cls-4" d="M166,197.18s-9.6-5.38-28.42-2.69-22.41,18.22-19.34,34.35,20.87,29.79,23.56,28.64-.77-37.26,5.38-44.17,26.11-5.76,27.27-11.14S166,197.18,166,197.18Z" transform="translate(-38.4 -116.24)"/><path class="cls-3" d="M132.49,206.76l2,12.71s-12.06,32.91-10.1,37.47,20.2,6.19,20.2,6.19,29.65,3.58,38.45,0,4.24-14,3.26-16.94-6.52-26.4-6.52-26.4,2-5.54,2-8.47-.33-11.08-1.63-13-24.12-4.24-34.22-2.61S131.19,199.92,132.49,206.76Z" transform="translate(-38.4 -116.24)"/><path class="cls-2" d="M137.71,221.42s-.33,28.35,1.3,33.89,8.15,12.06,21.83,10.43,15-14.67,15-14.67l-1-30.3Z" transform="translate(-38.4 -116.24)"/><circle class="cls-8" cx="120.33" cy="125.55" r="2.44"/><path class="cls-7" d="M160.84,252.05a1.63,1.63,0,1,1-1.63-1.63A1.63,1.63,0,0,1,160.84,252.05Z" transform="translate(-38.4 -116.24)"/><path class="cls-7" d="M151,231.34c1,1.12,1.41,2.47.81,3s-1.91.1-3-1-1.4-2.48-.81-3S150,230.22,151,231.34Z" transform="translate(-38.4 -116.24)"/><path class="cls-7" d="M164.24,231.34c-1.05,1.12-1.41,2.47-.82,3s1.92.1,3-1,1.41-2.48.82-3S165.28,230.22,164.24,231.34Z" transform="translate(-38.4 -116.24)"/><path class="cls-6" d="M144,227.49a6.23,6.23,0,0,1,6.8-2.5" transform="translate(-38.4 -116.24)"/><path class="cls-6" d="M163.72,225.35s4.65-1.43,6.08,2.5" transform="translate(-38.4 -116.24)"/><path class="cls-4" d="M179.41,407.18s5.12-3.07,8-4.28c.3-.13.58-.24.82-.32,2.51-.83,9.61-.42,16.3-4.59s3.34-9.2-1.67-10.45-10.45-2.93-10.45-2.93L191.11,365s-15,4.18-20.06,6.27S169,403,169.38,405.51,169.8,409.69,179.41,407.18Z" transform="translate(-38.4 -116.24)"/><path class="cls-2" d="M196.13,398c-8.78,1.67-8.78,3.34-18.39,5a37.08,37.08,0,0,1-8.58.7c.09.89.17,1.53.22,1.81.42,2.51.42,4.18,10,1.67,0,0,5.12-3.07,8-4.28.3-.13.58-.24.82-.32,2.51-.83,9.61-.42,16.3-4.59,2.14-1.34,3.25-2.77,3.61-4.13A50.3,50.3,0,0,1,196.13,398Z" transform="translate(-38.4 -116.24)"/><path class="cls-4" d="M199.62,387.28s-.33,22.8-1,27.69.33,11.08,7.82,11.08,22.16-4.89,27.37-5.86,13.69-3.26,17.27-11.41-18.25-7.17-18.25-7.17L234.16,385S211.67,389.56,199.62,387.28Z" transform="translate(-38.4 -116.24)"/><path class="cls-2" d="M251.1,408.78a3.62,3.62,0,0,0,.27-2.55,20.41,20.41,0,0,1-8.74,6.79c-7.82,3.26-22.48,6.84-33.56,8.47-5.07.74-8.28-.08-10.29-1.19.72,3.15,2.83,5.75,7.68,5.75,7.49,0,22.16-4.89,27.37-5.86S247.52,416.93,251.1,408.78Z" transform="translate(-38.4 -116.24)"/><path class="cls-5" d="M232.85,401.61s1.63,5.54-2.93,9.13" transform="translate(-38.4 -116.24)"/><path class="cls-3" d="M197.34,375.22s-.51,9.91,0,11.9c2.09,7.52,2.76,5.76,18.4,5.43s22-6.58,23.59-10.49,0-12.38-.65-15.31-5.87-3.91-7.82-3.59S198.31,372,197.34,375.22Z" transform="translate(-38.4 -116.24)"/><path class="cls-9" d="M89.81,400v21.9a4.71,4.71,0,0,0,2.54,4.18l35.2,18.18a4.74,4.74,0,0,0,4.08.11l51.85-19.77a4.68,4.68,0,0,0,2.78-4.28V393.79L127,411.71Z" transform="translate(-38.4 -116.24)"/><g class="cls-10"><path class="cls-11" d="M129.56,410.93l-2.61.78L89.81,400v21.9a4.71,4.71,0,0,0,2.54,4.18l35.2,18.18a4.76,4.76,0,0,0,2,.52Z" transform="translate(-38.4 -116.24)"/></g><path class="cls-6" d="M89.81,400v21.9a4.71,4.71,0,0,0,2.54,4.18l35.2,18.18a4.74,4.74,0,0,0,4.08.11l51.85-19.77a4.68,4.68,0,0,0,2.78-4.28V393.79L127,411.71Z" transform="translate(-38.4 -116.24)"/><path class="cls-12" d="M144,363,87.11,381.25a2.2,2.2,0,0,0-1.54,2.1v16.22a2.21,2.21,0,0,0,1.26,2l39.61,18.87a2.19,2.19,0,0,0,1.72.08l59.6-22.27a2.21,2.21,0,0,0,1.43-2.07L189.3,381a2.22,2.22,0,0,0-1.74-2.16L145.13,363A2.25,2.25,0,0,0,144,363Z" transform="translate(-38.4 -116.24)"/><g class="cls-13"><path class="cls-9" d="M126.42,420.43h0a2.19,2.19,0,0,0,1.72.08l59.6-22.27a2.21,2.21,0,0,0,1.43-2.07L189.3,381a2.25,2.25,0,0,0-.52-1.42l-61.5,22.72Z" transform="translate(-38.4 -116.24)"/><path class="cls-14" d="M126.42,420.43h0a2.19,2.19,0,0,0,1.72.08l59.6-22.27a2.21,2.21,0,0,0,1.43-2.07L189.3,381a2.25,2.25,0,0,0-.52-1.42l-61.5,22.72Z" transform="translate(-38.4 -116.24)"/><path class="cls-9" d="M85.57,383.35v16.22a2.21,2.21,0,0,0,1.26,2l39.61,18.87a2.23,2.23,0,0,0,.84.22V402.26L85.63,383A2.5,2.5,0,0,0,85.57,383.35Z" transform="translate(-38.4 -116.24)"/></g><path class="cls-6" d="M144,363,87.11,381.25a2.2,2.2,0,0,0-1.54,2.1v16.22a2.21,2.21,0,0,0,1.26,2l39.61,18.87a2.19,2.19,0,0,0,1.72.08l59.6-22.27a2.21,2.21,0,0,0,1.43-2.07L189.3,381a2.22,2.22,0,0,0-1.74-2.16L145.13,363A2.25,2.25,0,0,0,144,363Z" transform="translate(-38.4 -116.24)"/><path class="cls-4" d="M222.1,333.19s7.49,3.58,11.41,10.75,1,20.85-1.31,25.09-17.59,6.19-22.81,6.19-6.19-.65-6.19-.65-16.62,3.26-27,5.21-7.82-22.48-4.56-33.56,21.5-16.62,29-16.62S222.1,333.19,222.1,333.19Z" transform="translate(-38.4 -116.24)"/><path class="cls-5" d="M203.2,374.57s14-4.89,19.88-17.27" transform="translate(-38.4 -116.24)"/><path class="cls-5" d="M216.56,367.4a37.31,37.31,0,0,0,12.06-8.15" transform="translate(-38.4 -116.24)"/><path class="cls-3" d="M183.65,343.94s3.91,20.53,2,29-13.36,9.77-16,8.8-1.3-21.18-1.3-31.28S178.44,341,183.65,343.94Z" transform="translate(-38.4 -116.24)"/><path class="cls-9" d="M100.56,289.2s-2.28,13.36-.65,19.87a27.68,27.68,0,0,0,4.56,10.1S96.33,331.23,98,341.33s5.86,11.41,5.86,11.41-3.58,18.57,2.93,25.09,20.86,13.68,36.82,10.75,26.72-3.59,30-9.12,1.3-30,1.3-30-.65-27.05-1.3-43.66-2.93-30-10.75-36.5-42.36,3.59-52.79,10.43S100.56,289.2,100.56,289.2Z" transform="translate(-38.4 -116.24)"/><g class="cls-15"><path class="cls-16" d="M102.88,289.2s-2.28,13.36-.65,19.87a27.68,27.68,0,0,0,4.56,10.1s-8.14,12.06-6.52,22.16,5.87,11.41,5.87,11.41-3.58,18.57,2.93,25.09,20.86,13.68,36.82,10.75,26.72-3.59,30-9.12,1.3-30,1.3-30-.65-27.05-1.3-43.66-2.93-30-10.75-36.5-42.36,3.59-52.79,10.43S102.88,289.2,102.88,289.2Z" transform="translate(-38.4 -116.24)"/></g><path class="cls-6" d="M100.56,289.2s-2.28,13.36-.65,19.87a27.68,27.68,0,0,0,4.56,10.1S96.33,331.23,98,341.33s5.86,11.41,5.86,11.41-3.58,18.57,2.93,25.09,20.86,13.68,36.82,10.75,26.72-3.59,30-9.12,1.3-30,1.3-30-.65-27.05-1.3-43.66-2.93-30-10.75-36.5-42.36,3.59-52.79,10.43S100.56,289.2,100.56,289.2Z" transform="translate(-38.4 -116.24)"/><path class="cls-6" d="M104.47,319.17a39.61,39.61,0,0,0,34.87,4.89" transform="translate(-38.4 -116.24)"/><path class="cls-6" d="M103.82,352.74s16.62,16.29,44,.65" transform="translate(-38.4 -116.24)"/><path class="cls-17" d="M168.66,273.23s-6.19-9.45-14.66-14.66-30.3-9.13-39.1-10.75-18.25-1-20.85,8.79-2.29,26.07.32,33.24,13.36,11.4,21.83,6.52,31.93-23.79,40.08-24.77S168,276.82,168.66,273.23Z" transform="translate(-38.4 -116.24)"/><g class="cls-18"><path class="cls-16" d="M150.58,271.39c5-2.07-7.45,1.66-8.28.41s8.69-7.45,10.77-8.28-12,2.07-11.6,0S155.14,261,146,259s-38.93-7.46-44.73-9.53a4.34,4.34,0,0,1-1.25-.63,11.62,11.62,0,0,0-6,7.8c-2.61,9.78-2.29,26.07.32,33.24,2.27,6.24,10.71,10.25,18.44,8,3.59-2.9,6.9-6.74,12.51-10.27C136.5,280.5,145.61,273.46,150.58,271.39Z" transform="translate(-38.4 -116.24)"/></g><path class="cls-6" d="M168.66,273.23s-6.19-9.45-14.66-14.66-30.3-9.13-39.1-10.75-18.25-1-20.85,8.79-2.29,26.07.32,33.24,13.36,11.4,21.83,6.52,31.93-23.79,40.08-24.77S168,276.82,168.66,273.23Z" transform="translate(-38.4 -116.24)"/><path class="cls-1" d="M203.85,317.55s7.5,1,12.39,2.93,8.14,14,6.19,15.64-5.87-.33-5.87-.33a47.47,47.47,0,0,1-9.45,2.28C203.2,338.4,199,319.83,203.85,317.55Z" transform="translate(-38.4 -116.24)"/><path class="cls-3" d="M179.09,316.57s1.3,0,8.47-3.26,13-3.26,17.6,3.91,6.51,16,3.91,21.18-12.39,8.8-17.6,8.8-5.86-6.85-5.86-6.85-.66-10.75-3.91-14.66S177.79,317.55,179.09,316.57Z" transform="translate(-38.4 -116.24)"/><path class="cls-9" d="M155,273.23c7.17-2.61,16.29-1,19.55,8.15s6.19,35.84,6.19,35.84,8.14,1,11.4,4.56,4.89,12.71,4.24,17.27-12.06,13-25.09,13.36-22.48-5.86-27.05-22.48-2.75-42-2.75-42,1.66-7.45,4.14-9.11" transform="translate(-38.4 -116.24)"/><g class="cls-19"><path class="cls-16" d="M196.36,339.05c.65-4.56-1-13.68-4.24-17.27-.13-.14-.28-.27-.42-.41a81,81,0,0,1,.71,8.82c.64,19.13-26.08,15.93-31.48,2.08-2.9-7.46-3.72-40.17-12.42-42.66-5-1.43-6.72,2.5-7.27,6.09-.17,9.39.13,23.84,3,34.23,4.57,16.62,14,22.81,27.05,22.48S195.71,343.61,196.36,339.05Z" transform="translate(-38.4 -116.24)"/></g><path class="cls-6" d="M155,273.23c7.17-2.61,16.29-1,19.55,8.15s6.19,35.84,6.19,35.84,8.14,1,11.4,4.56,4.89,12.71,4.24,17.27-12.06,13-25.09,13.36-22.48-5.86-27.05-22.48-2.75-42-2.75-42,1.66-7.45,4.14-9.11" transform="translate(-38.4 -116.24)"/><path class="cls-6" d="M180.72,317.22s2.54,11.87-10.54,18.41" transform="translate(-38.4 -116.24)"/><path d="M302.48,305.1v7.37h6.64v5.09h-6.64v7.84h8v5.2H297.94V299.92h12.54L310,305.1Z" transform="translate(-38.4 -116.24)"/><path d="M327.53,309.24a12.9,12.9,0,0,1-.52,3.83,8.87,8.87,0,0,1-1.38,2.77,7.72,7.72,0,0,1-1.95,1.81l5,13h-5.13l-4.16-11.73h-1.29V330.6h-4.54V299.92h6a7.43,7.43,0,0,1,5.91,2.28Q327.53,304.48,327.53,309.24Zm-4.68,0A5.12,5.12,0,0,0,322,306a2.91,2.91,0,0,0-2.41-1h-1.51v8.88h1.69a2.59,2.59,0,0,0,2.26-1.11A6.27,6.27,0,0,0,322.85,309.24Z" transform="translate(-38.4 -116.24)"/><path d="M344.14,309.24a12.92,12.92,0,0,1-.51,3.83,8.88,8.88,0,0,1-1.39,2.77,7.72,7.72,0,0,1-1.95,1.81l5,13h-5.14L336,318.87h-1.29V330.6H330.2V299.92h6a7.44,7.44,0,0,1,5.92,2.28Q344.15,304.48,344.14,309.24Zm-4.68,0a5.12,5.12,0,0,0-.81-3.22,2.9,2.9,0,0,0-2.4-1h-1.51v8.88h1.69a2.56,2.56,0,0,0,2.25-1.11A6.27,6.27,0,0,0,339.46,309.24Z" transform="translate(-38.4 -116.24)"/><path d="M361.2,315.24a36.6,36.6,0,0,1-.87,8.49,13.48,13.48,0,0,1-2.59,5.62,5.33,5.33,0,0,1-4.23,2,5.41,5.41,0,0,1-4.22-2,13.08,13.08,0,0,1-2.59-5.57,37.08,37.08,0,0,1-.87-8.59,36.51,36.51,0,0,1,.87-8.48,13.38,13.38,0,0,1,2.59-5.61,5.34,5.34,0,0,1,4.22-2,5.39,5.39,0,0,1,4.23,1.94,13,13,0,0,1,2.59,5.56A37.08,37.08,0,0,1,361.2,315.24Zm-4.65,0a34.3,34.3,0,0,0-.71-8.24c-.47-1.71-1.25-2.56-2.33-2.56s-1.85.86-2.32,2.57a34.31,34.31,0,0,0-.71,8.23,33.51,33.51,0,0,0,.72,8.23c.48,1.72,1.25,2.57,2.31,2.57s1.89-.87,2.35-2.6A35,35,0,0,0,356.55,315.24Z" transform="translate(-38.4 -116.24)"/><path d="M377.37,309.24a12.92,12.92,0,0,1-.51,3.83,8.88,8.88,0,0,1-1.39,2.77,7.72,7.72,0,0,1-2,1.81l5,13h-5.14l-4.15-11.73H368V330.6h-4.54V299.92h6a7.44,7.44,0,0,1,5.92,2.28Q377.38,304.48,377.37,309.24Zm-4.68,0a5.12,5.12,0,0,0-.81-3.22,2.9,2.9,0,0,0-2.4-1H368v8.88h1.69a2.59,2.59,0,0,0,2.26-1.11A6.36,6.36,0,0,0,372.69,309.24Z" transform="translate(-38.4 -116.24)"/></g></svg>