<svg xmlns="http://www.w3.org/2000/svg" xmlns:xlink="http://www.w3.org/1999/xlink" viewBox="0 0 522.17 467.62"><defs><style>.cls-1{fill:url(#linear-gradient);}.cls-2{fill:none;}.cls-3{isolation:isolate;}.cls-4{clip-path:url(#clip-path);}.cls-5{fill:url(#linear-gradient-2);}.cls-6{fill:url(#linear-gradient-3);}.cls-7{fill:url(#linear-gradient-4);}.cls-8{fill:url(#linear-gradient-5);}.cls-9{fill:url(#linear-gradient-6);}.cls-10{fill:#fdc4b1;}.cls-11{fill:url(#linear-gradient-7);}.cls-12{mask:url(#mask);}.cls-13{fill:url(#linear-gradient-8);}.cls-14{fill:url(#linear-gradient-9);}.cls-15{fill:url(#linear-gradient-10);}.cls-16{fill:url(#linear-gradient-11);}.cls-17{fill:url(#linear-gradient-12);}.cls-18{fill:url(#linear-gradient-13);}.cls-19{fill:url(#linear-gradient-14);}.cls-20{fill:url(#linear-gradient-15);}.cls-21{fill:url(#radial-gradient);}.cls-22{fill:url(#linear-gradient-16);}.cls-23{fill:url(#linear-gradient-17);}.cls-24{fill:url(#linear-gradient-18);}.cls-25{fill:url(#radial-gradient-2);}.cls-26{fill:url(#radial-gradient-3);}.cls-27{fill:url(#linear-gradient-19);}.cls-28,.cls-30{mix-blend-mode:multiply;}.cls-28{fill:url(#linear-gradient-20);}.cls-29{fill:url(#linear-gradient-21);}.cls-30{fill:url(#linear-gradient-22);}.cls-31{fill:#fdec43;}.cls-32{fill:#272945;}.cls-33{fill:#4b547b;}.cls-34{fill:url(#linear-gradient-23);}.cls-35{fill:url(#linear-gradient-24);}.cls-36{mix-blend-mode:screen;fill:url(#radial-gradient-4);}.cls-37{fill:url(#linear-gradient-25);}.cls-38{fill:url(#linear-gradient-26);}.cls-39{fill:url(#linear-gradient-27);}.cls-40{fill:url(#linear-gradient-28);}.cls-41{fill:url(#linear-gradient-29);}</style><linearGradient id="linear-gradient" x1="269.62" y1="249.13" x2="269.62" y2="301.21" gradientUnits="userSpaceOnUse"><stop offset="0" stop-color="#fff"/><stop offset="0.04" stop-color="#f3f3f3"/><stop offset="0.31" stop-color="#9e9e9e"/><stop offset="0.56" stop-color="#5a5a5a"/><stop offset="0.76" stop-color="#292929"/><stop offset="0.91" stop-color="#0b0b0b"/><stop offset="1"/></linearGradient><clipPath id="clip-path" transform="translate(-3.85 -39.38)"><circle class="cls-2" cx="250.15" cy="265.09" r="190.07"/></clipPath><linearGradient id="linear-gradient-2" x1="246.3" y1="28.84" x2="246.3" y2="157.84" gradientUnits="userSpaceOnUse"><stop offset="0" stop-color="#fd9789"/><stop offset="0.11" stop-color="#fd9e8e"/><stop offset="0.64" stop-color="#fdbca6"/><stop offset="0.95" stop-color="#fdc7af"/></linearGradient><linearGradient id="linear-gradient-3" x1="174.4" y1="76.4" x2="133.38" y2="173.55" gradientTransform="translate(-9.89 10.29) rotate(-4.03)" gradientUnits="userSpaceOnUse"><stop offset="0" stop-color="#f8dacd"/><stop offset="0.87" stop-color="#fdc7af" stop-opacity="0"/></linearGradient><linearGradient id="linear-gradient-4" x1="329.16" y1="96.48" x2="384.2" y2="191.45" gradientTransform="matrix(1, 0, 0, 1, 0, 0)" xlink:href="#linear-gradient-3"/><linearGradient id="linear-gradient-5" x1="160.94" y1="181.74" x2="136.12" y2="249.73" gradientTransform="matrix(1, 0, 0, 1, 0, 0)" xlink:href="#linear-gradient-3"/><linearGradient id="linear-gradient-6" x1="349.9" y1="171.57" x2="400.62" y2="285.95" gradientTransform="matrix(1, 0, 0, 1, 0, 0)" xlink:href="#linear-gradient-3"/><linearGradient id="linear-gradient-7" x1="276.73" y1="256.28" x2="276.73" y2="287.09" gradientTransform="matrix(-1, 0, 0, 1, 543.28, 0)" gradientUnits="userSpaceOnUse"><stop offset="0" stop-color="#fea391"/><stop offset="0.1" stop-color="#fea593"/><stop offset="0.95" stop-color="#feaf9e"/></linearGradient><mask id="mask" x="7.31" y="164.55" width="516.91" height="150.08" maskUnits="userSpaceOnUse"><g transform="translate(-3.85 -39.38)"><rect class="cls-1" x="11.17" y="203.93" width="516.91" height="130.53"/></g></mask><linearGradient id="linear-gradient-8" x1="472.98" y1="256.11" x2="358.78" y2="385.08" gradientUnits="userSpaceOnUse"><stop offset="0.03" stop-color="#cd7cbf"/><stop offset="0.95" stop-color="#fdc7af"/></linearGradient><linearGradient id="linear-gradient-9" x1="444.69" y1="338.36" x2="383.65" y2="254.68" gradientUnits="userSpaceOnUse"><stop offset="0.05" stop-color="#eac2cb"/><stop offset="0.36" stop-color="#efcdca"/><stop offset="0.89" stop-color="#fcebc8"/><stop offset="1" stop-color="#fff2c8"/></linearGradient><linearGradient id="linear-gradient-10" x1="153.86" y1="263.39" x2="53.6" y2="376.62" xlink:href="#linear-gradient-8"/><linearGradient id="linear-gradient-11" x1="129.02" y1="335.6" x2="75.44" y2="262.13" xlink:href="#linear-gradient-9"/><linearGradient id="linear-gradient-12" x1="262.37" y1="249.34" x2="119.81" y2="410.34" xlink:href="#linear-gradient-8"/><linearGradient id="linear-gradient-13" x1="235.12" y1="341.98" x2="168.22" y2="250.25" xlink:href="#linear-gradient-9"/><linearGradient id="linear-gradient-14" x1="371.1" y1="292.99" x2="277.68" y2="398.48" xlink:href="#linear-gradient-8"/><linearGradient id="linear-gradient-15" x1="347.96" y1="360.26" x2="298.03" y2="291.81" xlink:href="#linear-gradient-9"/><radialGradient id="radial-gradient" cx="244.11" cy="365.25" r="216.8" gradientTransform="translate(0 253.86) scale(1 0.3)" gradientUnits="userSpaceOnUse"><stop offset="0.01" stop-color="#5c7391"/><stop offset="0.98" stop-color="#eae9ee"/></radialGradient><linearGradient id="linear-gradient-16" x1="380.65" y1="260.7" x2="380.65" y2="356.54" gradientUnits="userSpaceOnUse"><stop offset="0.01" stop-color="#9062ad"/><stop offset="0.19" stop-color="#855ba3"/><stop offset="0.51" stop-color="#674987"/><stop offset="0.94" stop-color="#362c5b"/><stop offset="1" stop-color="#2f2854"/></linearGradient><linearGradient id="linear-gradient-17" x1="172.62" y1="310.41" x2="172.62" y2="373.9" xlink:href="#linear-gradient-16"/><linearGradient id="linear-gradient-18" x1="79.53" y1="250.2" x2="79.53" y2="357.12" xlink:href="#linear-gradient-16"/><radialGradient id="radial-gradient-2" cx="310.21" cy="413.72" r="219.52" gradientTransform="translate(-26.42 282.63) rotate(-9.55) scale(1 0.45)" xlink:href="#radial-gradient"/><radialGradient id="radial-gradient-3" cx="129.45" cy="417.58" r="148.97" gradientTransform="translate(70.18 155.15) rotate(16.03) scale(1 0.56)" xlink:href="#radial-gradient"/><linearGradient id="linear-gradient-19" x1="379.84" y1="265.05" x2="379.84" y2="358" gradientUnits="userSpaceOnUse"><stop offset="0" stop-color="#4c547b"/><stop offset="0.19" stop-color="#434a6e"/><stop offset="0.71" stop-color="#2f3250"/><stop offset="1" stop-color="#282945"/></linearGradient><linearGradient id="linear-gradient-20" x1="377.74" y1="197.92" x2="377.74" y2="325.05" gradientTransform="matrix(1, 0, -0.46, -0.55, 134.16, 509.33)" gradientUnits="userSpaceOnUse"><stop offset="0" stop-color="#fff"/><stop offset="0.18" stop-color="#f3f3f9"/><stop offset="0.52" stop-color="#d3d2e8"/><stop offset="0.96" stop-color="#a09ecc"/><stop offset="0.97" stop-color="#9f9dcc"/></linearGradient><linearGradient id="linear-gradient-21" x1="132.36" y1="269.67" x2="132.36" y2="362.62" xlink:href="#linear-gradient-19"/><linearGradient id="linear-gradient-22" x1="126.36" y1="189.45" x2="126.36" y2="316.58" xlink:href="#linear-gradient-20"/><linearGradient id="linear-gradient-23" x1="241.14" y1="323.77" x2="273.29" y2="198.66" gradientUnits="userSpaceOnUse"><stop offset="0" stop-color="#fff"/><stop offset="1" stop-color="#eff4f8" stop-opacity="0"/></linearGradient><linearGradient id="linear-gradient-24" x1="244.89" y1="141.91" x2="250.89" y2="175.52" gradientTransform="matrix(1, 0, 0, 1, 0, 0)" xlink:href="#linear-gradient-3"/><radialGradient id="radial-gradient-4" cx="294.98" cy="266.02" r="60.91" gradientTransform="translate(497.15 -75.9) rotate(78.55)" gradientUnits="userSpaceOnUse"><stop offset="0" stop-color="#f2d803"/><stop offset="0.09" stop-color="#f4de27" stop-opacity="0.86"/><stop offset="0.3" stop-color="#f8e973" stop-opacity="0.56"/><stop offset="0.48" stop-color="#fbf3af" stop-opacity="0.32"/><stop offset="0.64" stop-color="#fdf9db" stop-opacity="0.14"/><stop offset="0.76" stop-color="#fefdf5" stop-opacity="0.04"/><stop offset="0.83" stop-color="#fff" stop-opacity="0"/></radialGradient><linearGradient id="linear-gradient-25" x1="586.43" y1="51.41" x2="156.93" y2="519.76" xlink:href="#linear-gradient-19"/><linearGradient id="linear-gradient-26" x1="383.47" y1="-133.83" x2="-46.03" y2="334.52" xlink:href="#linear-gradient-19"/><linearGradient id="linear-gradient-27" x1="524.92" y1="-4.12" x2="95.42" y2="464.23" xlink:href="#linear-gradient-19"/><linearGradient id="linear-gradient-28" x1="128.96" y1="121.26" x2="123.25" y2="152.22" gradientTransform="matrix(1, 0, 0, 1, 0, 0)" xlink:href="#linear-gradient-3"/><linearGradient id="linear-gradient-29" x1="417.46" y1="175.34" x2="409.87" y2="216.56" gradientTransform="matrix(-1, 0, 0, 1, 820.53, 0)" xlink:href="#linear-gradient-3"/></defs><title>home-login7</title><g class="cls-3"><g id="OBJECTS"><g class="cls-4"><circle class="cls-5" cx="246.3" cy="225.71" r="190.07"/><path class="cls-6" d="M67.48,66.38s10.08-10.45,18.3-1.29c0,0,9.23-7.14,14.41,4.93,0,0,17.19-9.32,22.48,11.94,0,0,2,12.3-3.82,14.87,0,0,11.15-2.94,11.29,6.78s-2.23,6.65-2.23,6.65,13.8-3.68,18.37,7.36c0,0,7.23-5.92,13.49,2.84s5.43,12.36,5.43,12.36c.08-.35,2.35-1,2.64-1.06a25.11,25.11,0,0,1,7.13-1.91,18.28,18.28,0,0,1,11.62,3.9c3.71,2.79,5.62,6.54,7.77,10.52,0,.07,1,1.78,1,1.81s5.41-4.17,9.6,3.65a17,17,0,0,1,1,14.53c.24-.49,3.18-.61,3.63-.65a18.46,18.46,0,0,1,7.88.83,13.19,13.19,0,0,1,7.21,6.25,19,19,0,0,1,1.8,4.93c.56,2.39,1.57,4.74,1.73,7.19a23.52,23.52,0,0,0,.68,3.44c.36-.16.6-.73.94-1.05a1.47,1.47,0,0,1,1.11-.52,21.31,21.31,0,0,1,4-.3c1.67.13,3.81,1.51,5.13,2.55a58.56,58.56,0,0,1,5.35,4,13.83,13.83,0,0,1,1.57,1.68c.47.67.45,1.36.91,2a8.57,8.57,0,0,1,1.24,1.8,3,3,0,0,1,.33,1.08c.2.52.56.88.76,1.38.47,1.14.33,3.06.38,4.3a7,7,0,0,1-.22,2c-.24,1-.89,1.6-1.19,2.61-.21.7-.43,1.35-.67,2a9.32,9.32,0,0,1-.64,2c-1.38,2.25-2.32,4.8-3.54,7.14a48.21,48.21,0,0,1-4.13,6.53,35,35,0,0,1-5.45,5.08,50.62,50.62,0,0,1-4.59,3.55c-5.11,3.48-10.6,4.43-16.64,5-7.27.68-14.49,1.69-21.72,2.65s-14.35,1.89-21.53,2.8q-11.65,1.46-23.32,2.82-11.92,1.38-23.86,2.6-11.55,1.19-23.12,2.15c-7,.57-14.06,1.08-21.1,1.44-5.93.3-11.87.51-17.81.49a104.76,104.76,0,0,1-13.25-.71c-2.4-.31-5.39-.64-7.41-2.14a2.45,2.45,0,0,1-1.11-1.72c-1.1-15.61-3.2-152.85-3.2-152.85Z" transform="translate(-3.85 -39.38)"/><path class="cls-7" d="M429,43.42s-11.06-9.41-18.34.5c0,0-9.89-6.2-13.86,6.32,0,0-18-7.59-21.2,14.09,0,0-.74,12.43,5.26,14.42,0,0-11.39-1.84-10.58,7.85S373.1,93,373.1,93s-14.09-2.31-17.56,9.12c0,0-7.78-5.18-13.15,4.15s-4.19,12.83-4.19,12.84c-.11-.34-2.43-.73-2.74-.81a25.15,25.15,0,0,0-7.28-1.19,18.24,18.24,0,0,0-11.18,5c-3.41,3.14-4.95,7.06-6.7,11.23,0,.07-.84,1.87-.8,1.9s-5.79-3.62-9.2,4.57a17,17,0,0,0,.41,14.56c-.28-.47-3.23-.29-3.68-.29a18.33,18.33,0,0,0-7.76,1.6,13.2,13.2,0,0,0-6.56,6.92,19.1,19.1,0,0,0-1.31,5.08c-.32,2.43-1.1,4.87-1,7.32a21.27,21.27,0,0,1-.34,3.49c-.37-.11-.67-.66-1-.95a1.46,1.46,0,0,0-1.15-.4,20.32,20.32,0,0,0-4,.09c-1.65.29-3.64,1.87-4.85,3a59.16,59.16,0,0,0-4.94,4.55,14.44,14.44,0,0,0-1.4,1.82c-.4.72-.31,1.4-.7,2.11a8,8,0,0,0-1.06,1.91,2.77,2.77,0,0,0-.22,1.1c-.15.54-.47.93-.63,1.45-2,6.6,5.68,10.47,3.67,17.12-.73,2.41-3.78,3.62-5.51,5a11.65,11.65,0,0,0-4.28,6.74c-.5,3.23,3.47,6.4,6.5,6.53a80.56,80.56,0,0,1,11,1.3,77.31,77.31,0,0,0,13.81.84c12.53,0,24.63-1,37.15-.59q10.84.38,21.69.68,11.75.31,23.49.52,12,.21,24,.26c7.74,0,15.48,0,23.22-.13,7-.11,14.09-.3,21.14-.63,5.93-.28,11.86-.65,17.77-1.25a107.2,107.2,0,0,0,13.11-2c2.36-.55,5.31-1.17,7.17-2.86a2.43,2.43,0,0,0,.94-1.82c-.43-15.64-11.77-152.43-11.77-152.43Z" transform="translate(-3.85 -39.38)"/><path class="cls-8" d="M32.75,184.29s6.33-5.76,14.36,0c0,0,13.65-10.48,23.28-1.28L80,192.2s5.62-10.09,11.24-6.49c0,0,0-15.81,20.07-10.06,0,0,18.47-21.4,41.35-1.26L158.1,179s5.41-3.87,13.84,6.92c0,0,13.52-6.29,22.42,6.3,0,0,15.52-3.6,16.12,10.43,0,0,11.49,2.28,10.26,14.63,0,0,13.82-9.23,19.84,3.18v91.72H38.88Z" transform="translate(-3.85 -39.38)"/><path class="cls-9" d="M444.54,150.6s-7.43-3.19-11.92,4.85c0,0-15.28-5.08-19.8,6.7l-4.52,11.77s-8.48-7.45-11.78-2.2c0,0-6-14.65-20.45-2.53,0,0-23.4-13.57-34.78,12.82l-2.77,6.08s-6-1.74-8.88,11.1c0,0-13.59-1.25-16.22,13.41,0,0-14.23,1.93-9.44,15.12,0,0-8.67,6-3,17,0,0-14.95-3.88-15.26,9.65l34.63,84.94,167.38-68.25Z" transform="translate(-3.85 -39.38)"/><path class="cls-10" d="M32.82,320.22H470.11V236.35c-4.77,1.94-12.37,4.83-15.56,4.83-4.81,0-7-4.38-12.25-6.56s-15.3,14-20.55,14.86-32.8-24.92-38.92-21-9.62,12.74-14,10.31S331.23,197,327.73,196.57s-31.05,36.73-37.61,38.05-31.48-20.56-34.54-22.74S225,218,222.78,218.44s-16.18,12.68-23.18,14-30.84-7.66-37-5.91-33.88,10.72-37.38,12S97.57,207.89,94.51,207s-24.78,38.54-24.78,38.54-16.62,3.06-24.05,2.18A120.09,120.09,0,0,1,32.82,245Z" transform="translate(-3.85 -39.38)"/><path class="cls-11" d="M494.83,241.17s-17.35,2-41.09-7-52.93-5.56-89.11,12.28a89.73,89.73,0,0,1-39.79,9c-19.08,0-37.39,12.14-56.35,10-18.34-2.11-35.25-16.89-53.59-19-20.15-2.32-38.46,9.89-59.34,3.75-8.16-2.39-15-7.52-22.77-10.53s-16.67-3.47-24.84-3.31c-21.3.42-37,10.06-55.85,18l-13.83-7v74.3H494.83Z" transform="translate(-3.85 -39.38)"/><g class="cls-12"><path class="cls-13" d="M342.24,270.66s22.46-18.41,26-18.41,8.87-2.12,11.82-4.25,15.37-12,17.14-12,4.73-1.42,7.68-5,11.23-10.62,13-10.62,33.1,24.07,40.19,25.14,17.13,16.63,26,19.46,42,32.57,42,32.57v33.16H328l11.25-58.13Z" transform="translate(-3.85 -39.38)"/><path class="cls-14" d="M526,297.56s-33.1-29.73-42-32.57-18.91-18.4-26-19.46-38.42-25.14-40.19-25.14l3.71,7.79h-7.25l24.23,26.19-19.51-3.53,27.19,24.72,7.09-7.73,17.73,27.61-68.55-7.79,13.59,17.11-13.59-3.66,7.09,14.56L328,330.72H526Z" transform="translate(-3.85 -39.38)"/><path class="cls-15" d="M39.08,276.16S58.79,260,61.91,260s7.78-1.86,10.37-3.73,13.49-10.56,15-10.56,4.15-1.25,6.74-4.35,9.86-9.33,11.42-9.33,29.05,21.13,35.28,22.07,15,14.6,22.83,17.09,36.83,28.59,36.83,28.59v29.11H26.6l9.88-51Z" transform="translate(-3.85 -39.38)"/><path class="cls-16" d="M200.43,299.78s-29.05-26.1-36.83-28.59S147,255,140.77,254.1,107,232,105.49,232l3.25,6.84h-6.37l21.28,23-17.13-3.11,23.87,21.7,6.23-6.78,15.56,24.23L92,291.08l11.93,15L92,302.89l6.22,12.78L26.6,328.89H200.43Z" transform="translate(-3.85 -39.38)"/><path class="cls-17" d="M122.82,267.77s24.62-20.17,28.5-20.17,9.72-2.33,13-4.66,16.84-13.19,18.78-13.19,5.19-1.55,8.43-5.43,12.3-11.64,14.25-11.64,36.27,26.38,44,27.54,18.78,18.24,28.5,21.34,46,35.7,46,35.7v36.35h-217l-47.15-10Z" transform="translate(-3.85 -39.38)"/><path class="cls-18" d="M324.28,297.26s-36.27-32.59-46-35.7-20.73-20.17-28.5-21.34-42.11-27.54-44-27.54l4.06,8.53h-8l26.56,28.71L207,246l29.8,27.1,7.77-8.47L264,294.93l-75.15-8.53,14.9,18.76-14.9-4,7.78,16-89.43,16.51h217Z" transform="translate(-3.85 -39.38)"/><path class="cls-19" d="M264.15,304.89s18.37-15.06,21.27-15.06,7.25-1.74,9.67-3.47,12.57-9.85,14-9.85,3.86-1.16,6.28-4.05,9.19-8.69,10.64-8.69,27.07,19.69,32.87,20.56,14,13.61,21.27,15.92,34.32,26.64,34.32,26.64V354h-162l9.21-47.54Z" transform="translate(-3.85 -39.38)"/><path class="cls-20" d="M414.49,326.89s-27.07-24.32-34.32-26.64S364.7,285.2,358.9,284.33,327.48,263.77,326,263.77l3,6.37h-5.93l19.81,21.43L327,288.67l22.24,20.22,5.8-6.32,14.5,22.58-56.07-6.37,11.12,14-11.12-3,5.8,11.91L252.53,354h162Z" transform="translate(-3.85 -39.38)"/></g><path class="cls-21" d="M55.61,314.31S277.46,287.05,447,327.26V361.9H60.09Z" transform="translate(-3.85 -39.38)"/><path class="cls-22" d="M441.32,320.1l2.9,1-1.79-8.19-4.8-8.33,4.24,2.51-.3-3.18-5.43-10.73,3.41,2.21-.35-3.62-4.82-7.89,4.35,3-6.6-20.22c-.57.35-6.25,17.62-7,20l4.51-3s-5.89,7.43-6,8.1-1,4.42-1,4.42l4-2.53-5,8.06-2,6.55,5.52-2.91-6.53,8.62-.17-1.51L413,303.3l3.41,1.86-.35-3.05-4.82-6.66,4.35,2.5L409,280.9c-.57.29-6.25,14.86-7,16.82l4.52-2.52s-5.89,6.27-6,6.83-1,3.73-1,3.73l3.95-2.13-5,6.8-.25.7-3.63-5.48,3.86,2.42-5.86-16.53c-.5.28-5.54,14.41-6.23,16.31l4-2.44s-5.22,6.07-5.34,6.62-.86,3.62-.86,3.62l3.51-2.08-4,5.91-1.46-6.14-4.25-6.81,3.76,2.06-.27-2.6-4.82-8.78,3,1.81-.31-3L375,289.61l3.85,2.41L373,275.5c-.5.28-5.54,14.4-6.23,16.31l4-2.45s-5.22,6.08-5.34,6.62-.87,3.62-.87,3.62l3.51-2.07L364,303.58l-5.44-15.36c-.5.28-5.54,14.4-6.23,16.31l4-2.44s-5.23,6.07-5.35,6.61c-.05.25-.24,1-.43,1.82l-.18-1.74-4.27-6.45,3.85,2.42-5.85-16.53c-.5.28-5.54,14.4-6.23,16.31l4-2.44s-5.22,6.07-5.34,6.61-.87,3.62-.87,3.62l3.51-2.07-4.46,6.6L333,322.2l4.89-2.38L332,326.9l-.16.5-.29-1.68-3-6.51,2.62,2-.19-2.48-3.35-8.39,2.1,1.73-.21-2.83-3-6.17,2.69,2.32-4.08-15.8c-.35.27-3.86,13.77-4.34,15.59l2.79-2.34s-3.63,5.81-3.72,6.33-.6,3.46-.6,3.46l2.44-2-3.1,6.3L317.47,322l3.41-2.27-4.06,6.77L315,334.66l2.82-1.91-3.29,5.45-.22,2.44h8.09v6.26h3.95v-6.26h2.18l-.12,1H340v6.55h5.68v-6.55h8.77v6.55h5.69v-6.55h11.33l.28-3.85-2-2.32h4.83V329h6.9l-1,1.26-2.66,8.53,4.05-2-4.73,5.7-.31,2.55H388.4v6.55h5.69V345h11.33l.16-2.2h5.17V336h12.77l.32-4-.09-.09h3.76v8h6.41v-8H446.7l.31-4.72Zm-108.6,14.17-.24-.38.93-.46Zm36.18-3-.54-2.26h.54Zm-6.8-21.28,1.56.93-.63.76Zm2.78-.55-.06-.61-.37-.56,2.31-1.12Zm-1.3-5.16L363,306l-2.45-3.7Zm-12.49,16.18.5.28-1,1.19-.59-.95Zm-.79-8.89-.19.8,3.51-2.07-3.2,4.74-2.78-5.05ZM366.7,332l2.2.68v1.87Zm16.59-12.06-.17.26-.32,1-1.65-1.91Zm2.12,4.27-.38-.44,1.24-.6ZM404.34,336v3.52l-3-3.52h1.78l.13,0v0Zm-6-18.58-1.05-1.91,1.48-.66.29.17,0-.29,2.88-1.28Zm-1.22-3.56-.29.8-.79-1.44Zm22.71,8.31-.05-.17.3-.16Zm-1.58-7.39-.74,2.58-3.07-4.49Z" transform="translate(-3.85 -39.38)"/><path class="cls-23" d="M179.17,355.34l1.78.75-1.1-6.28-3-6.39,2.62,1.93-.19-2.44L176,334.68l2.1,1.7-.21-2.78-3-6.05,2.69,2.27-4.08-15.51c-.35.27-3.86,13.51-4.33,15.3l2.78-2.29s-3.63,5.7-3.72,6.21-.6,3.39-.6,3.39l2.44-1.94-3.1,6.18-1.22,5,3.41-2.23-4.05,6.64-1.86,8,2.82-1.88-3.29,5.35-.21,2.39h8.08v6.15h4v-6.15h7.89l.19-3.61Z" transform="translate(-3.85 -39.38)"/><path class="cls-24" d="M155.2,341.61l-3.51-5.6,1.79.76-1.11-6.4-3-6.51,2.62,2-.19-2.49L148.49,315l2.1,1.73-.21-2.83-3-6.17,2.69,2.31L146,294.21c-.35.27-3.85,13.76-4.33,15.58l2.78-2.33s-3.63,5.8-3.72,6.32-.6,3.46-.6,3.46l2.44-2-2.47,5-.18-2.34-3.35-8.39,2.11,1.73-.22-2.83-3-6.17,2.68,2.31-4.07-15.79c-.35.27-3.86,13.77-4.34,15.59l2.78-2.34s-3.63,5.81-3.71,6.33c-.05.29-.24,1.35-.39,2.22l-2.6-4.74,3,1.81-.31-3-4.27-6.45,3.85,2.42-5.85-16.53c-.5.28-5.54,14.4-6.23,16.31l4-2.45s-5.22,6.08-5.34,6.62c-.08.36-.43,1.8-.66,2.75l-3.84-6.4,3.41,1.86-.34-3.05-4.82-6.66,4.34,2.5-6.6-17.05c-.56.29-6.24,14.86-7,16.83l4.51-2.53s-5.88,6.27-6,6.83c0,.15-.12.48-.23.89l-3.76-8,2.76,1.94-.28-3.17-3.9-6.9L95.8,287l-5.33-17.67c-.46.3-5,15.4-5.68,17.44l3.65-2.61s-4.76,6.5-4.87,7.08-.79,3.87-.79,3.87l3.2-2.22L81.92,300,81,303.24l-3-7.44,2.1,1.73-.21-2.83-3-6.17,2.69,2.32-4.08-15.8c-.35.27-3.86,13.77-4.34,15.59L74,288.3s-3.63,5.81-3.72,6.33c0,.05,0,.13,0,.23l-3.72-8.27,3.41,2.49L69.59,285l-4.82-8.86,4.35,3.32-6.6-22.69c-.57.39-6.25,19.78-7,22.4L60,275.82s-5.89,8.34-6,9.08-1,5-1,5L57,287l-5,9.05-.23.87-.05-.65-3.89-8.86,3.51,3.32L46,268.07c-.46.39-5.05,19.78-5.67,22.39l3.64-3.35s-4.75,8.34-4.86,9.08l-.34,2.14-2.84-6,2.68,2.35-4.08-16.08c-.35.27-3.85,14-4.33,15.87l2.78-2.38s-3.1,5.06-3.63,6.23l-3.72-8.25L29,292.54l-.35-4.06-4.82-8.86,4.35,3.32-6.6-22.7c-.57.39-6.25,19.78-7,22.4l4.52-3.36s-5.89,8.34-6,9.09-1,5-1,5l4-2.85-5,9.06L9,306.9l5.52-3.27L8,313.35l-3,11.7,4.56-2.74L4.2,330.14l-.35,3.5H17v9h6.41v-9h8.27V337h.83l-.54,1-.28,3.51H42.22v9h5.17v-9H57.72l.18-3.79v1.49h6.41v-9h8.4v2.22h4v-2.22h.42l.21-3.65h9.43v7h1.81l0,.21H101.6v6.75H108v-2.87H118.2v6.55h5.68V339.9h7.37v6.26h4v-.87h7.95v6.26h4v-6.26H155ZM28.42,305.48l-1.35-2.63,2,1.32Zm2.13-4.39-.21-.47.72-.59Zm9.06,11.57-.24-.55.9-.66Zm-.84-8.33L37,299.72l1.36,1.14,0,.3.2-.18.6.5-.08-1,2.47-2.2Zm10.42-6.45L51,299.53l-.53,1.94Zm1.8,4.95,4.5-2.67-3.56,5.27Zm6.91,33.22-3.35-5.87H57.9Zm11.4-34.18L68,299.39l1.88,1.25Zm1.82,3.55,0-.08.14-.09Zm.32-7.92-.27-.61,1-.78Zm9.38,11.3L79,304.71l2.62,2-.13-1.62,3.34-1.9Zm11.09,18.94v-1.21H93Zm5-21.38-2-3.82,3.29,2.12Zm2.14,4.95v-.07l.12-.05Zm-.77-6.8-.16-1.83,2.52-1.36Zm14.76,8.05-1.34-2,2,1Zm2.55,3.74-.17-.25.61-.29Zm-.38-7-.84-1.4,3-1.75ZM127.67,316l-.49-.78.69.38Zm2,3.2,0-.07.14-.09Zm-.24-6.78-.57-1.05,1.82-1.48Zm5.86,30.47-.08.94v-3.9h1.87Zm4.19-21.3-.19.82-1.79-3.91,2.56,1.92Zm1.18,4.54-.16-.92,1.17-.78Z" transform="translate(-3.85 -39.38)"/><path class="cls-25" d="M124.58,507c-5.13-5.14,0-106.13,0-106.13S236.3,294.88,437.69,323V507Z" transform="translate(-3.85 -39.38)"/><path class="cls-26" d="M65.24,323.45s192.15-7,214.75,132.2H65.24Z" transform="translate(-3.85 -39.38)"/><path class="cls-27" d="M389.9,338.87l-3.51-8,1.78,1.1-1.1-9.2-3-9.35,2.62,2.82-.19-3.57-3.35-12.05,2.1,2.49-.21-4.07-3-8.86,2.69,3.32-4.08-22.69c-.35.39-3.86,19.78-4.34,22.4l2.79-3.36s-3.63,8.34-3.72,9.08-.6,5-.6,5l2.44-2.84-3.1,9.05L373,317.42l3.41-3.27-4.05,9.73-1.86,11.7,2.82-2.74L370,340.67l-.21,3.5h8.08v9h4v-9h7.88Z" transform="translate(-3.85 -39.38)"/><path class="cls-28" d="M396.47,361l.2,4.39,1.28-.6,3.15,5,1.35,5.1,1.32-1.54,1.46,2,2.21,6.58,1-1.36,1.66,2.22,1.12,4.84,1.15-1.81,6.4,12.39c-.53-.22-13-10.8-14.68-12.23l4.34,1.83s-7.49-4.55-7.91-5l-2.9-2.71,3.75,1.55-7.28-4.94-4.61-4,4.92,1.79-8.55-5.31-7.25-6.39,4.08,1.5-6.9-4.28-1.84-1.91H382l-4.16-4.91h4l4.15,4.91h7.89Z" transform="translate(-3.85 -39.38)"/><path class="cls-29" d="M142.42,343.5l-3.51-8.05,1.79,1.1-1.11-9.2-3-9.35,2.62,2.82-.19-3.57-3.35-12,2.11,2.48-.22-4.07-3-8.86,2.68,3.32-4.07-22.69c-.35.39-3.86,19.78-4.34,22.4l2.78-3.36s-3.63,8.34-3.71,9.09l-.61,5,2.45-2.85-3.11,9.05L125.49,322l3.4-3.26-4,9.72L123,340.2l2.82-2.74-3.29,7.83-.22,3.5h8.08v9h4v-9h7.89Z" transform="translate(-3.85 -39.38)"/><path class="cls-30" d="M149,365.58l.21,4.4,1.28-.6,3.14,5,1.36,5.11,1.31-1.55,1.46,2,2.21,6.58,1-1.36,1.66,2.22,1.12,4.84,1.15-1.81,6.41,12.39c-.53-.21-13-10.8-14.68-12.23l4.33,1.83s-7.48-4.55-7.91-5l-2.9-2.71,3.76,1.55-7.28-4.94-4.62-4,4.92,1.78-8.54-5.31-7.26-6.39,4.09,1.5-6.91-4.28-1.83-1.91h8.08l-4.15-4.91h3.95l4.16,4.91h7.89Z" transform="translate(-3.85 -39.38)"/><circle class="cls-31" cx="221.47" cy="86.03" r="19.67"/><rect class="cls-32" x="262.69" y="261.62" width="7.77" height="41.46"/><polygon class="cls-32" points="246.99 250.89 211.19 306.9 215.11 306.9 218.68 306.9 272.46 306.9 277.6 306.9 281.41 306.9 246.99 250.89"/><polygon class="cls-33" points="246.94 259.47 218.02 306.74 218.02 341.86 246.94 341.86 275.87 341.86 275.87 306.74 246.94 259.47"/><rect class="cls-32" x="238.84" y="311.45" width="16.09" height="30.42"/><rect class="cls-31" x="240.16" y="281.56" width="6.06" height="6.24"/><rect class="cls-31" x="247.61" y="281.56" width="6.06" height="6.24"/><rect class="cls-31" x="240.16" y="289.11" width="6.06" height="6.24"/><rect class="cls-31" x="247.61" y="289.11" width="6.06" height="6.24"/><path class="cls-34" d="M342.65,175.26H217.3c-17.44,32.9,13.16,63.49,32.16,77.31s23.77,24.68,17.83,32.25S270.85,301,270.85,301s-6.67-8.45,1.23-12.65S316,259,299,229.38,342.65,175.26,342.65,175.26Z" transform="translate(-3.85 -39.38)"/><path class="cls-35" d="M230.05,142.82c1.45-8.55,10.69-7.85,10.69-7.85,9.1.15,10.83,5.88,10.83,5.88s1.67-1.82,6.67-1.21a12.49,12.49,0,0,1,7.73,3.94c9.77-.91,11.59,4.54,11.59,4.54H214.44S217.92,139.94,230.05,142.82Z" transform="translate(-3.85 -39.38)"/><circle class="cls-36" cx="294.98" cy="266.02" r="60.91" transform="translate(-28.15 462.94) rotate(-78.55)"/></g><path class="cls-37" d="M317.71,381.71l-.5-4.16L312.6,363l4.07,4.39-.29-5.55-5.21-18.74,3.27,3.86-.33-6.31-4.63-13.78,4.17,5.16-6.33-35.29c-.55.61-6,30.76-6.75,34.83l4.34-5.22s-5.65,13-5.79,14.13-.93,7.73-.93,7.73l3.8-4.43-4.83,14.08-1.89,11.43,5.3-5.08L294.9,377.8a341.83,341.83,0,0,0-94,0L197.51,370l2.77,1.71-1.71-14.31L194,342.82l4.07,4.39-.29-5.55-5.21-18.73,3.27,3.86-.33-6.32-4.63-13.78,4.18,5.16-6.34-35.29c-.54.61-6,30.76-6.74,34.83l4.33-5.22s-5.65,13-5.78,14.13-.94,7.73-.94,7.73l3.8-4.43-4.83,14.08-1.89,11.43,5.3-5.08-6.31,15.11-2.88,18.2,4.39-4.26L173,382.87q-3.4.76-6.68,1.58l-.27-5-5.21-18.73,3.27,3.85-.33-6.31-4.63-13.78,4.18,5.16L157,314.32c-.54.61-6,30.76-6.74,34.83l4.33-5.22s-5.65,13-5.78,14.13l-.94,7.73,3.8-4.43-4.83,14.08L145,386.87l5.3-5.08-3.38,8.1c-30.25,9.47-47.71,19.83-47.71,19.83V462h302V409.72A374.39,374.39,0,0,0,317.71,381.71Zm-155.43-1.13,3.68,4-2.24.57Z" transform="translate(-3.85 -39.38)"/><path class="cls-38" d="M132.73,165.55c-3.06-18-22.5-16.52-22.5-16.52-19.14.32-22.79,12.37-22.79,12.37s-3.51-3.82-14-2.55a26.36,26.36,0,0,0-16.26,8.29c-20.57-1.91-24.4,9.57-24.4,9.57H165.57S158.24,159.49,132.73,165.55Z" transform="translate(-3.85 -39.38)"/><path class="cls-39" d="M361.58,133.68c2.61-15.38,19.22-14.12,19.22-14.12,16.36.28,19.47,10.58,19.47,10.58s3-3.28,12-2.18a22.5,22.5,0,0,1,13.9,7.08c17.58-1.63,20.85,8.18,20.85,8.18H333.51S339.77,128.5,361.58,133.68Z" transform="translate(-3.85 -39.38)"/><path class="cls-40" d="M110.25,115.8c1.69-10,12.45-9.14,12.45-9.14,10.59.18,12.61,6.85,12.61,6.85s1.94-2.12,7.76-1.42a14.57,14.57,0,0,1,9,4.59c11.38-1.06,13.5,5.3,13.5,5.3H92.08S96.13,112.45,110.25,115.8Z" transform="translate(-3.85 -39.38)"/><path class="cls-41" d="M428,168.07c-2.25-13.25-16.58-12.17-16.58-12.17-14.09.24-16.78,9.12-16.78,9.12s-2.59-2.82-10.34-1.88a19.41,19.41,0,0,0-12,6.11c-15.16-1.41-18,7-18,7h97.85S446.76,163.61,428,168.07Z" transform="translate(-3.85 -39.38)"/></g></g></svg>