<svg id="Illustration" xmlns="http://www.w3.org/2000/svg" xmlns:xlink="http://www.w3.org/1999/xlink" viewBox="0 0 2189.58 1421.84"><defs><style>.cls-1{fill:#ffe42c;}.cls-2{fill:#7d97f4;}.cls-3{fill:#91b3fa;}.cls-4{fill:url(#linear-gradient);}.cls-5{fill:#bdd0fb;}.cls-6{fill:url(#linear-gradient-2);}.cls-7{fill:url(#linear-gradient-3);}.cls-8{fill:url(#linear-gradient-4);}.cls-9{fill:url(#linear-gradient-5);}.cls-10{fill:url(#linear-gradient-6);}.cls-11{fill:url(#linear-gradient-7);}.cls-12{fill:url(#linear-gradient-8);}.cls-13{fill:url(#linear-gradient-9);}.cls-14{fill:url(#linear-gradient-10);}.cls-15{fill:url(#linear-gradient-11);}.cls-16{fill:url(#linear-gradient-12);}.cls-17{fill:url(#linear-gradient-13);}.cls-18{fill:url(#linear-gradient-14);}.cls-19{fill:url(#linear-gradient-15);}.cls-20{fill:url(#linear-gradient-16);}.cls-21{fill:url(#linear-gradient-17);}.cls-22{fill:url(#linear-gradient-18);}.cls-23{fill:url(#linear-gradient-19);}.cls-24{fill:url(#linear-gradient-20);}.cls-25{fill:url(#linear-gradient-21);}.cls-26{fill:url(#linear-gradient-22);}.cls-27{fill:url(#linear-gradient-23);}.cls-28{fill:url(#linear-gradient-24);}.cls-29{fill:url(#linear-gradient-25);}.cls-30{fill:url(#linear-gradient-26);}.cls-31{fill:url(#linear-gradient-27);}.cls-32{fill:url(#linear-gradient-28);}.cls-33{fill:url(#linear-gradient-29);}.cls-34{fill:url(#linear-gradient-30);}.cls-35,.cls-41{fill:#fff;}.cls-36{fill:url(#linear-gradient-31);}.cls-37{fill:url(#linear-gradient-32);}.cls-38{fill:url(#linear-gradient-33);}.cls-39{fill:url(#linear-gradient-34);}.cls-40{fill:url(#linear-gradient-35);}.cls-41{opacity:0.69;}.cls-42{fill:url(#linear-gradient-36);}.cls-43{fill:url(#linear-gradient-37);}.cls-44{fill:url(#linear-gradient-38);}.cls-45{opacity:0.5;}.cls-46{opacity:0.78;}.cls-47{fill:url(#linear-gradient-39);}.cls-48{fill:url(#linear-gradient-40);}.cls-49{fill:url(#linear-gradient-41);}.cls-50{fill:url(#linear-gradient-42);}.cls-51{fill:url(#linear-gradient-43);}.cls-52{fill:url(#linear-gradient-44);}.cls-53{fill:url(#linear-gradient-45);}</style><linearGradient id="linear-gradient" x1="489.63" y1="1611.21" x2="544.01" y2="1345.35" gradientUnits="userSpaceOnUse"><stop offset="0" stop-color="#3f2bf3"/><stop offset="1" stop-color="#3522cb"/></linearGradient><linearGradient id="linear-gradient-2" x1="1530.17" y1="730.78" x2="1485.17" y2="880.8" gradientUnits="userSpaceOnUse"><stop offset="0" stop-color="#09005d"/><stop offset="1" stop-color="#1a0f91"/></linearGradient><linearGradient id="linear-gradient-3" x1="1644.56" y1="993.83" x2="1602.56" y2="1105.83" xlink:href="#linear-gradient-2"/><linearGradient id="linear-gradient-4" x1="1405.7" y1="977.84" x2="1393.7" y2="1223.87" xlink:href="#linear-gradient-2"/><linearGradient id="linear-gradient-5" x1="1419.51" y1="708.53" x2="1362.88" y2="786.16" gradientTransform="matrix(0, 1, -1, 0, 2370.79, -254.17)" xlink:href="#linear-gradient-2"/><linearGradient id="linear-gradient-6" x1="2073.88" y1="178.65" x2="1875.92" y2="574.57" xlink:href="#linear-gradient-2"/><linearGradient id="linear-gradient-7" x1="2058.79" y1="171.1" x2="1860.82" y2="567.02" xlink:href="#linear-gradient-2"/><linearGradient id="linear-gradient-8" x1="1734.91" y1="766.41" x2="1845.81" y2="963.2" gradientUnits="userSpaceOnUse"><stop offset="0" stop-color="#ff928e"/><stop offset="1" stop-color="#feb3b1"/></linearGradient><linearGradient id="linear-gradient-9" x1="1881.16" y1="799.19" x2="1439.56" y2="1404.51" gradientUnits="userSpaceOnUse"><stop offset="0" stop-color="#fe7062"/><stop offset="1" stop-color="#ff928e"/></linearGradient><linearGradient id="linear-gradient-10" x1="3.06" y1="-218.1" x2="140.03" y2="24.96" gradientTransform="matrix(-0.62, -0.78, -0.78, 0.62, 1611.69, 885.69)" xlink:href="#linear-gradient-8"/><linearGradient id="linear-gradient-11" x1="169.38" y1="-150.85" x2="-272.22" y2="454.47" gradientTransform="matrix(-0.62, -0.78, -0.78, 0.62, 1611.69, 885.69)" xlink:href="#linear-gradient-9"/><linearGradient id="linear-gradient-12" x1="1295.91" y1="792.16" x2="1257.63" y2="867.45" gradientTransform="matrix(-0.42, -0.91, -0.91, 0.42, 2414.33, 1869.44)" xlink:href="#linear-gradient-2"/><linearGradient id="linear-gradient-13" x1="1223.11" y1="822.12" x2="1261.25" y2="822.12" gradientTransform="matrix(-0.42, -0.91, -0.91, 0.42, 2414.33, 1869.44)" xlink:href="#linear-gradient-8"/><linearGradient id="linear-gradient-14" x1="3885.26" y1="2458" x2="4047.32" y2="2230.85" gradientTransform="matrix(-0.42, -0.91, -0.91, 0.42, 5129.26, 3606.26)" xlink:href="#linear-gradient"/><linearGradient id="linear-gradient-15" x1="1273.69" y1="868.28" x2="1140.98" y2="1041.83" gradientTransform="matrix(-0.42, -0.91, -0.91, 0.42, 2414.33, 1869.44)" xlink:href="#linear-gradient-2"/><linearGradient id="linear-gradient-16" x1="1207.28" y1="905.87" x2="1309.83" y2="905.87" gradientTransform="matrix(-0.42, -0.91, -0.91, 0.42, 2414.33, 1869.44)" gradientUnits="userSpaceOnUse"><stop offset="0" stop-color="#53d8ff"/><stop offset="1" stop-color="#3840f7"/></linearGradient><linearGradient id="linear-gradient-17" x1="1195.53" y1="857.31" x2="1231.33" y2="857.31" gradientTransform="matrix(-0.42, -0.91, -0.91, 0.42, 2414.33, 1869.44)" xlink:href="#linear-gradient-8"/><linearGradient id="linear-gradient-18" x1="3826.84" y1="2571.19" x2="3835.77" y2="2267.48" gradientTransform="matrix(-0.42, -0.91, -0.91, 0.42, 5129.26, 3606.26)" xlink:href="#linear-gradient"/><linearGradient id="linear-gradient-19" x1="1790.29" y1="732.89" x2="1348.68" y2="1338.22" xlink:href="#linear-gradient-9"/><linearGradient id="linear-gradient-20" x1="1156.69" y1="256.13" x2="1239.53" y2="256.13" gradientTransform="matrix(-0.42, -0.91, -0.91, 0.42, 2414.33, 1869.44)" xlink:href="#linear-gradient-8"/><linearGradient id="linear-gradient-21" x1="-325.02" y1="-161.24" x2="-218.52" y2="-252.73" gradientTransform="matrix(-0.36, -0.93, -0.93, 0.36, 938.75, 1979.23)" xlink:href="#linear-gradient-8"/><linearGradient id="linear-gradient-22" x1="746.99" y1="-1171.88" x2="870.7" y2="-1171.88" gradientTransform="matrix(-0.36, -0.93, -0.93, 0.36, 938.75, 1979.23)" xlink:href="#linear-gradient-2"/><linearGradient id="linear-gradient-23" x1="-349.37" y1="-189.58" x2="-242.88" y2="-281.07" gradientTransform="matrix(-0.36, -0.93, -0.93, 0.36, 938.75, 1979.23)" xlink:href="#linear-gradient-8"/><linearGradient id="linear-gradient-24" x1="1454.91" y1="1485.79" x2="1460.35" y2="1451.55" xlink:href="#linear-gradient"/><linearGradient id="linear-gradient-25" x1="1456.25" y1="1479.24" x2="1458.97" y2="1462.13" xlink:href="#linear-gradient-2"/><linearGradient id="linear-gradient-26" x1="1622.93" y1="1485.79" x2="1628.38" y2="1451.55" gradientTransform="matrix(1, 0, 0, 1, 0, 0)" xlink:href="#linear-gradient-16"/><linearGradient id="linear-gradient-27" x1="1624.28" y1="1479.24" x2="1627" y2="1462.13" gradientUnits="userSpaceOnUse"><stop offset="0" stop-color="#2b3582"/><stop offset="0.23" stop-color="#252a70"/><stop offset="0.73" stop-color="#19164f"/><stop offset="1" stop-color="#150e42"/></linearGradient><linearGradient id="linear-gradient-28" x1="11700.59" y1="1731.87" x2="11538.19" y2="1776.38" gradientTransform="translate(-10478.45 -86.8) rotate(-2.83)" xlink:href="#linear-gradient-2"/><linearGradient id="linear-gradient-29" x1="877.72" y1="1138.77" x2="1063.74" y2="982.75" xlink:href="#linear-gradient-2"/><linearGradient id="linear-gradient-30" x1="2052.64" y1="1221.19" x2="2124.65" y2="834.16" xlink:href="#linear-gradient-9"/><linearGradient id="linear-gradient-31" x1="4059.41" y1="785.18" x2="4057.31" y2="734.15" gradientTransform="matrix(1, -0.03, 0.03, 1, -2142.51, 649.26)" gradientUnits="userSpaceOnUse"><stop offset="0" stop-color="#e1473d"/><stop offset="1" stop-color="#e9605a"/></linearGradient><linearGradient id="linear-gradient-32" x1="4056.75" y1="708.57" x2="4067.27" y2="854.81" xlink:href="#linear-gradient-31"/><linearGradient id="linear-gradient-33" x1="4201.58" y1="779.32" x2="4199.47" y2="728.29" xlink:href="#linear-gradient-31"/><linearGradient id="linear-gradient-34" x1="4198.53" y1="698.37" x2="4209.05" y2="844.61" xlink:href="#linear-gradient-31"/><linearGradient id="linear-gradient-35" x1="4140.13" y1="627.15" x2="4125.93" y2="731.31" xlink:href="#linear-gradient-31"/><linearGradient id="linear-gradient-36" x1="4144.41" y1="708.27" x2="4092.33" y2="1194.36" gradientTransform="matrix(1, -0.03, 0.03, 1, -2142.51, 649.26)" xlink:href="#linear-gradient-9"/><linearGradient id="linear-gradient-37" x1="2043.86" y1="1256.03" x2="2013.86" y2="1428.03" gradientTransform="matrix(1, 0, 0, 1, 0, 0)" xlink:href="#linear-gradient-31"/><linearGradient id="linear-gradient-38" x1="4104.22" y1="895.8" x2="4163.88" y2="895.8" gradientTransform="matrix(1, -0.03, 0.03, 1, -2142.51, 649.26)" xlink:href="#linear-gradient-9"/><linearGradient id="linear-gradient-39" x1="839.13" y1="-91.24" x2="1484.92" y2="1846.11" xlink:href="#linear-gradient"/><linearGradient id="linear-gradient-40" x1="854.57" y1="511.55" x2="1215.68" y2="511.55" gradientUnits="userSpaceOnUse"><stop offset="0" stop-color="#dae3fe"/><stop offset="1" stop-color="#e9effd"/></linearGradient><linearGradient id="linear-gradient-41" x1="863.55" y1="447" x2="1205.21" y2="447" xlink:href="#linear-gradient-40"/><linearGradient id="linear-gradient-42" x1="865.61" y1="546.42" x2="987.55" y2="546.42" xlink:href="#linear-gradient-40"/><linearGradient id="linear-gradient-43" x1="1082.25" y1="546.42" x2="1204.19" y2="546.42" xlink:href="#linear-gradient-40"/><linearGradient id="linear-gradient-44" x1="1051.02" y1="342.09" x2="1408.36" y2="342.09" gradientTransform="matrix(1, 0, 0, 1, 0, 0)" xlink:href="#linear-gradient-31"/><linearGradient id="linear-gradient-45" x1="1698.69" y1="1100.6" x2="1920.57" y2="1100.6" xlink:href="#linear-gradient-40"/></defs><title>no-task</title><path class="cls-1" d="M2282.78,898.16c-38-39.13-82.86-77.3-94.56-130.44-20.26-91.94,66.36-170.34,94.72-260.14,19.61-62.09,9.49-132.79-26.75-187s-97.88-90.73-163-96.68c-112.06-10.23-221.72,64.91-332.1,43.15-88.38-17.42-158.23-94.3-247.95-102.53-105.57-9.69-193.17,77-294,109.7-120.58,39.06-251.33-1.76-369.89-46.56S606,132.92,481,154.36c-139.11,23.86-255.74,144.5-274.35,283.76-18.44,138,136.21,248.81,4.57,414.53-41.14,51.78-68.5,123.89-50.32,187.37,17.67,61.69,92.87,100.7,93.41,164.84.43,50.64-47.54,90.93-51.4,141.42-3.32,43.34,28,83.4,66.49,103.94s83.14,25.56,126.56,30.22c0,0,426,28.88,645.51,24.52L2080.1,1484.3c35.58-.71,72-1.58,105.18-14.45s62.89-40.45,67.94-75.51c8.59-59.67-54.07-111.45-48.28-171.45,7.39-76.62,115.8-106.18,136.43-180.36C2355.94,990.1,2320.74,937.29,2282.78,898.16Z" transform="translate(-155.15 -149.23)"/><path class="cls-2" d="M539.39,966.82S641.18,788.21,609.6,761.61s-32.14,50.66-44.92,39.72,8.06-75.47,2.38-120.3-18-104.81-33.93-44.54-13.94,119.69-20.83,89-30.69-190.76-61.28-143-37,109.94-6.18,146.16,72.24,76.68,21.34,50S380.59,763.82,435,812.2c0,0,81.87,67.75,46.33,64.58s-92.12,34.33-33.81,61.44C447.55,938.22,530.39,950.25,539.39,966.82Z" transform="translate(-155.15 -149.23)"/><path class="cls-2" d="M497.09,1129.71s-198.39-9.41-189.61-55.35,73.53-15.17,102.34-12.26S421.73,1045.32,363,1004s-91-101.83-28.81-73.61,87,81.2,82.77,43.83-84.09-142.58-16.52-99.5,62.94,82.94,65,114.39,11-60.87,32.16-47.12,9.13,27.89,1.57,64.44,13.61,7.09,20.61-4.91,24.18,16.78,7.34,56.49S497.09,1129.71,497.09,1129.71Z" transform="translate(-155.15 -149.23)"/><path class="cls-3" d="M536.61,1338.86a.82.82,0,0,0-.26.39s0,.28,0,.08l0-.57.11-2.25.18-4.61.31-9.32.48-18.7.65-37.45q.48-37.47.35-75c-.15-50-1.05-100-3-149.87q-1.49-37.44-3.82-74.82c-1.65-24.91-3.66-49.79-6.2-74.6s-5.8-49.53-10.09-74-9.71-48.83-18.48-71.68l0-.12a4.36,4.36,0,0,1,8.12-3.18c9.5,23.8,15.18,48.5,20,73.21s8.28,49.65,11.21,74.59,5.26,49.93,7.26,74.94,3.53,50,4.87,75.08q3.88,75.12,5,150.31.63,37.61.67,75.2l-.14,37.62-.22,18.83-.18,9.45-.13,4.77-.09,2.43,0,.61c0,.18-.06.84-.1,1.24a25.24,25.24,0,0,1-.45,2.74,8.46,8.46,0,1,1-16-5.35Z" transform="translate(-155.15 -149.23)"/><path class="cls-3" d="M535.51,1348.48a2.08,2.08,0,0,0-.1.7c0,.06,0,.35,0,.21l-.06-.35-.2-1.42-.44-2.91-.94-5.9-2-11.85-4.1-23.72q-4.22-23.7-8.75-47.36-9.07-47.31-19.55-94.33c-7.08-31.3-14.68-62.49-23.48-93.29-4.41-15.39-9.17-30.67-14.51-45.69s-11.29-29.84-19-43.39l-.07-.11a4.36,4.36,0,0,1,7.54-4.38c8.51,14.29,14.81,29.35,20.65,44.51s10.91,30.54,15.69,46c9.54,30.91,17.85,62.11,25.63,93.43s14.9,62.77,21.65,94.31q5.06,23.65,9.79,47.38l4.64,23.76,2.23,11.92,1.08,6,.53,3,.26,1.56.07.39.11,1a20.13,20.13,0,0,1,.08,2.19,8.46,8.46,0,1,1-16.84-1.65Z" transform="translate(-155.15 -149.23)"/><path class="cls-2" d="M578,1002.88s201.13-32,181.94-74.7-75.05,2.28-102.4,11.8-31.28,4.76,16.24-49,51.95-109.6-2-67.75S636.6,903.86,632,866.53s67.49-179.85,11.75-122.29-62.55,106.57-57.24,137.63-24.85-56.65-42.21-38.37-2.42,29.24,13.41,63-11.6,10.05-21.18,0-19.64,21.92,5.94,56.65S578,1002.88,578,1002.88Z" transform="translate(-155.15 -149.23)"/><path class="cls-3" d="M562.89,1344.21a20.09,20.09,0,0,1-.43-2.44c0-.35-.09-1-.09-1.1l0-.46-.06-1.84-.09-3.59-.12-7.08-.13-14.1,0-28.15q.09-28.14.63-56.26,1.07-56.25,4-112.46c2.08-37.46,4.88-74.91,9.33-112.26,2.23-18.66,5-37.3,8.53-55.84s7.93-37,15.14-54.94a4.35,4.35,0,0,1,8.11,3.17l0,.12c-6.46,17-10.39,35.19-13.62,53.41s-5.53,36.74-7.41,55.27c-3.73,37.07-5.84,74.35-7.23,111.66s-1.93,74.66-2,112q0,28,.39,56l.55,28,.39,14,.25,7,.14,3.43.09,1.66,0,.42c0,.16,0-.16,0-.22a2,2,0,0,0-.28-.69,8.46,8.46,0,1,1-16.05,5.35Z" transform="translate(-155.15 -149.23)"/><path class="cls-4" d="M466.6,1305.43H633.14a17,17,0,0,1,16.54,20.79c-10.66,46.16-23.43,93-49.56,140.55a27.44,27.44,0,0,1-24,14.28H521.74a26.8,26.8,0,0,1-23.6-14.11c-20.93-38.9-41.07-85.27-51-137.9A19.86,19.86,0,0,1,466.6,1305.43Z" transform="translate(-155.15 -149.23)"/><path class="cls-5" d="M2029.81,961.56c-9.19-19.14-15.76-39.19-17.3-61-3.86-55,28.1-105.61,51.58-152.95,21.58-43.51,37.62-108.34-35.2-102.57-58,4.59-126.21,62.41-134,122.7-9.2,71.35,25.53,161.33-15.65,226.14-57.62,90.67-99.17,69.89-99.17,222.9,0,65.38,36.21,101.45,77.69,121.31a173.6,173.6,0,0,0,195.7-31.8c46.08-44.6,73.49-108.71,64.22-173.07C2108.32,1068.2,2057.33,1018.9,2029.81,961.56Z" transform="translate(-155.15 -149.23)"/><path class="cls-3" d="M1981.13,1454.71a3.23,3.23,0,0,1-3.13-2.45c-36.11-144.14-55.77-274.82-58.43-388.4-2.13-91,6.59-171.32,25.91-238.73,17.25-60.15,39.94-98.72,55.93-120.48,17.48-23.78,30.79-33.15,31.35-33.54a3.23,3.23,0,0,1,3.68,5.31h0c-.13.09-13.25,9.39-30.2,32.58-15.67,21.42-37.88,59.42-54.79,118.77-19,66.79-27.57,146.43-25.4,236.7,2.72,112.92,22.3,242.86,58.22,386.22a3.23,3.23,0,0,1-2.35,3.92A3.06,3.06,0,0,1,1981.13,1454.71Z" transform="translate(-155.15 -149.23)"/><path class="cls-5" d="M2087.62,800.26a24.28,24.28,0,0,0-9.17-.62c-18.15,2.08-25.6,21.22-30.94,36.19-4.56,12.81-9.94,28.36-7.25,42.25,2.92,15,18.86,27.25,30.42,12,13.15-17.32,32.88-43.92,33-66.87C2103.74,811.81,2097.33,802.89,2087.62,800.26Z" transform="translate(-155.15 -149.23)"/><path class="cls-3" d="M2235.54,1217.73c7.42-48.91-10.35-105-19.22-156.77-4.7-27.34-6.86-54.47-2.47-82,4.36-27.39,17.23-57,5.37-84.3-23.91-55-80.75-29.95-113.31,11.43-37.78,48-48.11,126.5-62.46,186.93-8.65,36.43-21.68,73.8-26.24,110.92-7.56,61.5,6.34,104.19,35.76,133a89,89,0,0,0,105.71,14.17C2189.86,1333.75,2223.56,1296.62,2235.54,1217.73Z" transform="translate(-155.15 -149.23)"/><path class="cls-2" d="M2105.51,1446a3.24,3.24,0,0,1-3.19-2.7c-.12-.74-12.5-75.42-12.82-178.44-.3-95.13,9.9-234.65,60.21-359a3.23,3.23,0,0,1,6,2.43c-27.55,68.12-60.28,185.28-59.74,356.59.32,102.5,12.61,176.65,12.74,177.39a3.23,3.23,0,0,1-2.65,3.72A3.5,3.5,0,0,1,2105.51,1446Z" transform="translate(-155.15 -149.23)"/><rect class="cls-6" x="1378.29" y="1083.64" width="21.69" height="234.53"/><path class="cls-7" d="M1526.8,1228.56v65.31a7.7,7.7,0,0,0,7.66,7.93h18.59a8.18,8.18,0,0,0,8.22-7.93v-65.31Z" transform="translate(-155.15 -149.23)"/><path class="cls-8" d="M1297.95,1308.57H1480a4.08,4.08,0,0,1,4.08,4.08v10a0,0,0,0,1,0,0H1294.16a0,0,0,0,1,0,0v-10.33A3.78,3.78,0,0,1,1297.95,1308.57Z"/><rect class="cls-9" x="1575" y="1121.93" width="96.94" height="30.16" transform="translate(-196.29 2063.67) rotate(-67.88)"/><path class="cls-10" d="M1809,911.72c-53-52.85-184.82-86-232.21-7,0,0-60.91,96.13-49,182.75,6.69,23.94,23.22,55.16,64,55.07,66.11-.14,101.41-37.79,101.41-37.79C1723.27,1074.18,1862,964.57,1809,911.72Z" transform="translate(-155.15 -149.23)"/><path class="cls-11" d="M1516.17,1142c-11.63.85-22.59,2-25.25,2.13-21.89,1.19-45.57,3.22-65.67,12.71a67.14,67.14,0,0,0-15.59,10.84c-23.25,21-42.68,60-2.33,69.34,41,9.53,86,5.17,127.57,4.31,25.95-.53,51.68-1.6,77.46-4.75,18.12-2.22,42.87,3.57,58.16-6.31C1800.65,1146.17,1516.17,1142,1516.17,1142Z" transform="translate(-155.15 -149.23)"/><path class="cls-12" d="M1789.34,925.54s-13.24-57.72-54-85.59c29.6-29.3,27-14.22,27-14.22s80.32,43.08,83.82,67.5C1818.06,920.52,1789.34,925.54,1789.34,925.54Z" transform="translate(-155.15 -149.23)"/><path class="cls-13" d="M1699.45,921.43s56.34,39.29,86,4.11l59.85-35.18s55.82,157.79-145.89,123.86C1703.17,961.44,1699.45,921.43,1699.45,921.43Z" transform="translate(-155.15 -149.23)"/><path class="cls-14" d="M1582.65,809.71s53.44-25.52,100.62-10.91c69.63-2.87-5.66-30-5.66-30s-83.68-36.11-105-23.68C1568.73,784.09,1582.65,809.71,1582.65,809.71Z" transform="translate(-155.15 -149.23)"/><path class="cls-15" d="M1641.76,877.56s-80.28-31.73-54.44-69.87L1575.38,744s-158.28,54.4-6.29,191.28C1608.11,899.52,1641.76,877.56,1641.76,877.56Z" transform="translate(-155.15 -149.23)"/><path class="cls-16" d="M1133.17,1091.74s-66.49-37.51-89.21-15.18c0,0,55,49.26,79.29,47s29.56-15.17,29.56-15.17Z" transform="translate(-155.15 -149.23)"/><path class="cls-17" d="M1171,1084.51,1148.7,1106a10.18,10.18,0,0,1-12.5,1.42,26.54,26.54,0,0,1-6.46-6.25,11.84,11.84,0,0,1-.09-14.39l15.63-20.56Z" transform="translate(-155.15 -149.23)"/><path class="cls-18" d="M1451.57,1063.52s-73.34-106.24-142-134.65-170.75,134-170.75,134,7.29,15.52,32.16,26.92c0,0,83.78-107,138.21-73.26,61.2,38,98.34,97.12,98.34,97.12l41-47.38Z" transform="translate(-155.15 -149.23)"/><path class="cls-19" d="M1063.53,1079.38c11.44,9.72,52.11,33.42,55.91,38.82S1121,1137,1121,1137s-3.33,4.56-12.37,5.5c-13.74-3.63-41.11-13.12-59.5-34.39-13.53-15.64-14.51-30.5-12.47-41A57.41,57.41,0,0,1,1063.53,1079.38Z" transform="translate(-155.15 -149.23)"/><path class="cls-20" d="M1049.17,1108.15c18.39,21.27,45.76,30.76,59.5,34.39-6.11.64-14.82-.37-26.89-5.56-29.92-12.87-56.43-51.58-59.19-61.16-2.21-7.67,4.72-10,14.11-8.65C1034.66,1077.65,1035.64,1092.51,1049.17,1108.15Z" transform="translate(-155.15 -149.23)"/><path class="cls-21" d="M1143.18,1139.54c-3.47,1.43-18.37-.13-26.81-1.18a11.69,11.69,0,0,1-9.18-6.67,29.89,29.89,0,0,1-2.53-7.84,7.59,7.59,0,0,1,6.43-8.58l30.83-4.58Z" transform="translate(-155.15 -149.23)"/><path class="cls-22" d="M1537.56,1158.68s-56.74,57.31-89.44,41.29-84.42-66.36-132.27-60.84-139.28,19.59-182.21,1.75c0,0-8-22.79-3-35,0,0,128.68-38,165-40.58,31.44-2.27,77-5.24,111.73,13.29,10,5.31,19.09-.63,26.86-8.81l14.14-14.89Z" transform="translate(-155.15 -149.23)"/><path class="cls-23" d="M1735.32,986.13S1731.49,912,1581.61,840a239.51,239.51,0,0,1-19.71,33.74c-13,18.89-71.58,145-113.58,181.24,0,0,8.24,69.26,83.4,110.11C1531.72,1165,1663.92,1097.34,1735.32,986.13Z" transform="translate(-155.15 -149.23)"/><path class="cls-24" d="M1717.17,861l-30.28,66.87a13.48,13.48,0,0,1-12.43,7.7c-10.69-.24-28.07-4.53-36.7-27.83a20.83,20.83,0,0,1,3.43-20.44l34.57-42.08Z" transform="translate(-155.15 -149.23)"/><path class="cls-25" d="M1716.94,767.55c-.94.37-49.77,42.24-74.64,63.6a16.73,16.73,0,0,0-.46,25l5.63,5.21c7.69,7.12,26,17.32,35.93,13.85L1750,841.32S1738.24,759.25,1716.94,767.55Z" transform="translate(-155.15 -149.23)"/><path class="cls-26" d="M1768.59,832.24c7.13-1.23,16.67-5.44,15.36-19.37-1.32-14.15-12.11-19.17-19.58-21a6.38,6.38,0,0,1-4.84-6.61,5,5,0,0,0-3-4.9,6.28,6.28,0,0,1-2-9.07c4-5.85,6.85-14.72-1.3-24.7-14.45-17.71-37.44-7.64-47.25,4.74s7,30.69,19.35,37.62c9.42,5.27,10.2,18.58,10,24.66a6.3,6.3,0,0,1-2.53,4.87l-22.67,17.13c2.23,6.53,3.9,13.19,5.5,19.89,1.83-.95,3.41-1.73,4.61-2.23,8.48-3.59,18.77,3.48,22.88,6.76a6.3,6.3,0,0,0,4.77,1.31c6-.82,19-4.56,15.51-21.56A6.38,6.38,0,0,1,1768.59,832.24Z" transform="translate(-155.15 -149.23)"/><path class="cls-27" d="M1706.87,863.2s18-20.84,28.23-15.68,14.29,19-3.59,25.6C1709.26,881.27,1706.87,863.2,1706.87,863.2Z" transform="translate(-155.15 -149.23)"/><path class="cls-28" d="M1470.52,1473.42a13.65,13.65,0,1,1-13.65-13.64A13.64,13.64,0,0,1,1470.52,1473.42Z" transform="translate(-155.15 -149.23)"/><path class="cls-29" d="M1464.05,1473.06a6.82,6.82,0,1,1-6.82-6.82A6.82,6.82,0,0,1,1464.05,1473.06Z" transform="translate(-155.15 -149.23)"/><path class="cls-30" d="M1638.54,1473.42a13.64,13.64,0,1,1-13.64-13.64A13.63,13.63,0,0,1,1638.54,1473.42Z" transform="translate(-155.15 -149.23)"/><path class="cls-31" d="M1632.08,1473.06a6.82,6.82,0,1,1-6.82-6.82A6.82,6.82,0,0,1,1632.08,1473.06Z" transform="translate(-155.15 -149.23)"/><path class="cls-32" d="M1259.46,1118.54H1259l-201.57-.22a9,9,0,0,1,0-18l201.57.22a9,9,0,0,1,.44,18Z" transform="translate(-155.15 -149.23)"/><path class="cls-33" d="M876.24,935.54H1044.1A32,32,0,0,1,1073,953.88l77.6,164.56H942a19.44,19.44,0,0,1-18.08-12.3L863.77,953.87A13.4,13.4,0,0,1,876.24,935.54Z" transform="translate(-155.15 -149.23)"/><path class="cls-2" d="M925.53,1509.8a7.75,7.75,0,0,1-3-.61,7.34,7.34,0,0,1-4-9.77l161.23-362.87a7.79,7.79,0,0,1,10.1-3.9,7.35,7.35,0,0,1,4,9.78L932.59,1505.3A7.71,7.71,0,0,1,925.53,1509.8Z" transform="translate(-155.15 -149.23)"/><path class="cls-2" d="M1107.16,1509.8a7.68,7.68,0,0,1-7.06-4.5L938.86,1142.43a7.36,7.36,0,0,1,4-9.78,7.79,7.79,0,0,1,10.1,3.9l161.23,362.87a7.34,7.34,0,0,1-4,9.77A7.75,7.75,0,0,1,1107.16,1509.8Z" transform="translate(-155.15 -149.23)"/><path class="cls-2" d="M1424.61,1509.8a7.74,7.74,0,0,1-3-.61,7.36,7.36,0,0,1-4-9.77l161.24-362.87a7.78,7.78,0,0,1,10.1-3.9,7.35,7.35,0,0,1,4,9.78L1431.68,1505.3A7.71,7.71,0,0,1,1424.61,1509.8Z" transform="translate(-155.15 -149.23)"/><path class="cls-2" d="M1606.25,1509.8a7.7,7.7,0,0,1-7.07-4.5L1438,1142.43a7.35,7.35,0,0,1,4-9.78,7.79,7.79,0,0,1,10.1,3.9l161.24,362.87a7.36,7.36,0,0,1-4,9.77A7.74,7.74,0,0,1,1606.25,1509.8Z" transform="translate(-155.15 -149.23)"/><path class="cls-2" d="M1625.16,1125.34a8.84,8.84,0,0,0-1.53-6.71,7,7,0,0,0-5.59-3H884.54a8.15,8.15,0,0,0-7,4.31,10.34,10.34,0,0,0-.55,9l7.95,19.26a11.13,11.13,0,0,0,10.11,7.24h718c4,0,7.51-3.21,8.28-7.64Z" transform="translate(-155.15 -149.23)"/><path class="cls-34" d="M1834.32,1361.46l8,119.44a38.93,38.93,0,0,0,40,36.24l286.4-8.14a28.08,28.08,0,0,0,27.17-24.85c3.44-30.35,7.29-84.57-.87-135.07Z" transform="translate(-155.15 -149.23)"/><path class="cls-35" d="M1890.38,1510.08a.81.81,0,0,1,0-1.62l6.46-.18a.73.73,0,0,1,.83.78.79.79,0,0,1-.78.83l-6.46.19Zm21.53-.61a.81.81,0,0,1,0-1.62l6.46-.18a.78.78,0,0,1,.83.78.81.81,0,0,1-.79.83l-6.46.19Zm21.53-.62a.81.81,0,0,1,0-1.61l6.46-.19a.81.81,0,0,1,.83.79.81.81,0,0,1-.78.83l-6.46.18Zm21.54-.61a.81.81,0,0,1,0-1.61l6.46-.19a.81.81,0,0,1,.83.79.8.8,0,0,1-.78.83l-6.46.18Zm-79.45-.14a.84.84,0,0,1-.27,0,38,38,0,0,1-6-2.69.82.82,0,0,1-.32-1.1.81.81,0,0,1,1.1-.31,37.07,37.07,0,0,0,5.76,2.57.81.81,0,0,1-.26,1.57Zm101-.47a.81.81,0,0,1,0-1.61l6.46-.19a.81.81,0,1,1,0,1.62l-6.46.18ZM1998,1507a.81.81,0,0,1,0-1.62l6.46-.18a.78.78,0,0,1,.83.78.82.82,0,0,1-.78.84l-6.46.18Zm21.54-.61a.81.81,0,0,1,0-1.62l6.46-.18a.74.74,0,0,1,.83.78.8.8,0,0,1-.78.83l-6.46.19Zm21.53-.62a.81.81,0,0,1,0-1.61l6.46-.18a.75.75,0,0,1,.83.78.81.81,0,0,1-.79.83l-6.46.18Zm21.53-.61a.81.81,0,0,1,0-1.61l6.46-.19a.78.78,0,0,1,.83.79.81.81,0,0,1-.79.83l-6.46.18Zm21.53-.61a.81.81,0,0,1-.8-.78.81.81,0,0,1,.78-.84l6.46-.18a.81.81,0,0,1,0,1.62l-6.46.18Zm21.54-.61a.81.81,0,0,1,0-1.62l6.46-.18a.79.79,0,0,1,.84.78.81.81,0,0,1-.79.83l-6.46.19Zm21.53-.61a.81.81,0,0,1,0-1.62l6.46-.18a.75.75,0,0,1,.83.78.81.81,0,0,1-.79.83l-6.46.19Zm21.53-.61a.81.81,0,0,1-.8-.79.8.8,0,0,1,.78-.83l6.46-.19a.79.79,0,0,1,.83.79.81.81,0,0,1-.78.83l-6.46.19Zm21.33-2.09a.82.82,0,0,1-.76-.52.83.83,0,0,1,.47-1.05,26.1,26.1,0,0,0,5.54-2.9.82.82,0,0,1,1.13.21.81.81,0,0,1-.21,1.12,27.47,27.47,0,0,1-5.88,3.08A.75.75,0,0,1,2170.1,1500.65Zm-311.82-4.93a.8.8,0,0,1-.64-.32,37.64,37.64,0,0,1-3.56-5.55.81.81,0,0,1,1.43-.75,35.25,35.25,0,0,0,3.41,5.31.82.82,0,0,1-.64,1.31Zm327-9.58a.85.85,0,0,1-.31-.06.8.8,0,0,1-.43-1.06,25.54,25.54,0,0,0,1.73-6,.81.81,0,0,1,1.59.26,27.58,27.58,0,0,1-1.83,6.38A.81.81,0,0,1,2185.23,1486.14Zm-334.54-10.25a.82.82,0,0,1-.81-.75l-.43-6.46a.81.81,0,0,1,.76-.86.8.8,0,0,1,.86.76l.43,6.44a.81.81,0,0,1-.75.86ZM2188.58,1465h-.07a.81.81,0,0,1-.73-.88q.28-3.12.54-6.43a.81.81,0,0,1,1.62.13c-.18,2.21-.37,4.36-.55,6.45A.81.81,0,0,1,2188.58,1465Zm-339.32-10.56a.82.82,0,0,1-.81-.75l-.43-6.45a.81.81,0,0,1,.76-.86.79.79,0,0,1,.86.75l.42,6.45a.8.8,0,0,1-.75.86Zm340.88-10.93h0a.81.81,0,0,1-.76-.85c.11-2.11.22-4.26.31-6.44a.84.84,0,0,1,.85-.78.81.81,0,0,1,.77.85c-.1,2.19-.2,4.34-.32,6.46A.8.8,0,0,1,2190.14,1443.46Zm-342.31-10.56a.82.82,0,0,1-.81-.76l-.43-6.44a.81.81,0,0,1,.76-.86.79.79,0,0,1,.85.75l.43,6.45a.81.81,0,0,1-.75.86Zm343.07-11h0a.8.8,0,0,1-.79-.82q0-3.19.06-6.46a.84.84,0,0,1,.81-.8.81.81,0,0,1,.81.81q0,3.27-.07,6.47A.82.82,0,0,1,2190.9,1421.94Zm-344.5-10.54a.81.81,0,0,1-.81-.75l-.43-6.45a.81.81,0,0,1,.76-.86.8.8,0,0,1,.86.75l.42,6.45a.8.8,0,0,1-.75.86Zm344.4-11a.81.81,0,0,1-.8-.79c-.06-2.14-.13-4.28-.22-6.44a.8.8,0,0,1,.77-.84.84.84,0,0,1,.84.77c.09,2.17.16,4.32.22,6.47a.82.82,0,0,1-.79.83ZM1845,1389.91a.82.82,0,0,1-.81-.75l-.43-6.45a.81.81,0,0,1,.76-.86.78.78,0,0,1,.85.75l.43,6.45a.81.81,0,0,1-.75.86Zm344.74-11a.82.82,0,0,1-.81-.75c-.16-2.13-.34-4.28-.54-6.42a.81.81,0,0,1,1.61-.15q.3,3.23.55,6.45a.82.82,0,0,1-.75.87Zm-346.17-10.47a.81.81,0,0,1-.81-.76l-.48-7.28,7-.24a.8.8,0,0,1,.84.78.81.81,0,0,1-.78.84l-5.3.18.37,5.61a.8.8,0,0,1-.75.86Zm20.77-7.18a.81.81,0,0,1-.81-.78.82.82,0,0,1,.79-.84l6.45-.22a.77.77,0,0,1,.84.78.82.82,0,0,1-.78.84l-6.46.22Zm21.53-.74a.81.81,0,0,1-.81-.78.81.81,0,0,1,.78-.83l6.46-.23a.81.81,0,1,1,.06,1.62l-6.46.22Zm21.53-.74a.81.81,0,0,1,0-1.61l6.46-.23a.81.81,0,1,1,.06,1.62l-6.46.22Zm21.53-.74a.81.81,0,0,1,0-1.61l6.46-.22a.78.78,0,0,1,.84.78.82.82,0,0,1-.78.83l-6.46.22Zm21.53-.74a.81.81,0,0,1,0-1.61l6.46-.22a.82.82,0,0,1,.84.78.81.81,0,0,1-.78.83l-6.46.22Zm21.53-.73a.82.82,0,0,1-.81-.79.8.8,0,0,1,.78-.83l6.46-.22a.81.81,0,0,1,0,1.61l-6.46.23Zm215.48-.08a.8.8,0,0,1-.8-.7c-.29-2.13-.61-4.25-.94-6.38a.8.8,0,0,1,1.59-.25q.51,3.19.95,6.41a.81.81,0,0,1-.69.91Zm-194-.66a.81.81,0,0,1,0-1.62l6.46-.22a.78.78,0,0,1,.83.78.81.81,0,0,1-.78.84l-6.46.22Zm21.53-.74a.81.81,0,0,1,0-1.62l6.46-.22a.74.74,0,0,1,.83.78.81.81,0,0,1-.78.84l-6.46.22Zm21.52-.74a.8.8,0,0,1-.8-.78.81.81,0,0,1,.78-.84l6.46-.22a.83.83,0,0,1,.83.78.81.81,0,0,1-.78.84l-6.46.22Zm21.53-.74a.8.8,0,0,1-.8-.78.81.81,0,0,1,.78-.84l6.46-.22a.79.79,0,0,1,.83.78.81.81,0,0,1-.78.84l-6.46.22Zm21.53-.74a.81.81,0,0,1,0-1.61l6.45-.23a.77.77,0,0,1,.84.79.81.81,0,0,1-.78.83l-6.46.22Zm21.53-.74a.81.81,0,0,1,0-1.61l6.45-.22a.82.82,0,0,1,.84.78.81.81,0,0,1-.78.83l-6.46.22Zm21.53-.74a.81.81,0,0,1,0-1.61l6.46-.22a.78.78,0,0,1,.84.78.81.81,0,0,1-.78.83l-6.46.22Zm21.53-.73a.81.81,0,0,1,0-1.62l6.46-.22a.76.76,0,0,1,.84.78.81.81,0,0,1-.78.83l-6.46.23Zm21.53-.74a.81.81,0,0,1,0-1.62l6.46-.22a.81.81,0,1,1,.06,1.61l-6.46.23Z" transform="translate(-155.15 -149.23)"/><path class="cls-36" d="M1915.26,1271.77l.55-9.25a7.08,7.08,0,0,1,5.23-4.32c8.87-1.73,30.91-5,41.84,2.61l2,10.66Z" transform="translate(-155.15 -149.23)"/><path class="cls-37" d="M1942.82,1262a12.75,12.75,0,0,1-6.17.2,5.59,5.59,0,0,1-4.44-5.26l-1-28.87,14.7-.51,1,28.86A5.6,5.6,0,0,1,1942.82,1262Z" transform="translate(-155.15 -149.23)"/><path class="cls-38" d="M2057.6,1266.89l.54-9.25a7.13,7.13,0,0,1,5.24-4.33c8.87-1.72,30.91-5,41.84,2.62l2,10.66Z" transform="translate(-155.15 -149.23)"/><path class="cls-39" d="M2085.16,1257.06a12.88,12.88,0,0,1-6.17.21,5.58,5.58,0,0,1-4.44-5.26l-1.1-31.92,14.7-.5,1.09,31.89A5.6,5.6,0,0,1,2085.16,1257.06Z" transform="translate(-155.15 -149.23)"/><path class="cls-40" d="M1930,1235.15l157.86-10.66a7.62,7.62,0,0,0,7.07-6.5,64.69,64.69,0,0,0-.2-20,18.23,18.23,0,0,0-18.2-14.82c-29.5.31-104.56,2.9-145.36,20.69a14.45,14.45,0,0,0-8.39,10.32,35,35,0,0,0,.17,16.06A6.82,6.82,0,0,0,1930,1235.15Z" transform="translate(-155.15 -149.23)"/><path class="cls-41" d="M1926.93,1228.49a2.15,2.15,0,0,1-2.13-1.87,38.59,38.59,0,0,1,.56-12.47,14.65,14.65,0,0,1,9.62-10.48c8.79-2.91,25.61-7.92,39.49-8.78a2.15,2.15,0,0,1,.27,4.3c-13.4.83-29.81,5.73-38.41,8.57a10.32,10.32,0,0,0-6.78,7.37,34.83,34.83,0,0,0-.48,10.91,2.17,2.17,0,0,1-1.85,2.43Z" transform="translate(-155.15 -149.23)"/><path class="cls-42" d="M1841.81,1270.7c51-2.41,271.83-12.31,336.26-6.77a13.08,13.08,0,0,1,11.57,9.73c4.38,17,13.37,56.57,13.82,96.06a11.44,11.44,0,0,1-9,11.23L2049,1413.68l-52,1.79-157.11-25.67a12.2,12.2,0,0,1-10.23-11c-1.7-19.82-4.88-66.35-.54-96.52A13.5,13.5,0,0,1,1841.81,1270.7Z" transform="translate(-155.15 -149.23)"/><path class="cls-35" d="M1997.76,1403.61h-.13l-6.38-1a.81.81,0,1,1,.26-1.59l6.38,1a.8.8,0,0,1-.13,1.6Zm9.29-.32a.81.81,0,0,1,0-1.61l6.46-.22a.81.81,0,1,1,0,1.61l-6.45.22Zm21.53-.73a.81.81,0,0,1-.81-.78.8.8,0,0,1,.78-.84l6.46-.22a.76.76,0,0,1,.83.78.79.79,0,0,1-.78.83l-6.46.23Zm21.46-1.25a.81.81,0,0,1-.18-1.6l6.31-1.42a.81.81,0,0,1,1,.62.8.8,0,0,1-.61,1l-6.3,1.42Zm-73.54-1.17h-.13l-6.38-1a.81.81,0,1,1,.26-1.6l6.38,1a.8.8,0,0,1,.67.92A.81.81,0,0,1,1976.5,1400.14Zm-21.26-3.47h-.13l-6.38-1a.81.81,0,1,1,.26-1.6l6.38,1a.81.81,0,0,1-.13,1.61Zm115.82-.09a.81.81,0,0,1-.18-1.6l6.31-1.42a.81.81,0,0,1,1,.62.8.8,0,0,1-.61,1l-6.3,1.42A.55.55,0,0,1,2071.06,1396.58ZM1934,1393.2h-.13l-6.38-1a.81.81,0,0,1-.67-.93.82.82,0,0,1,.93-.66l6.38,1a.81.81,0,0,1,.67.93A.82.82,0,0,1,1934,1393.2Zm158.09-1.35a.8.8,0,0,1-.17-1.59l6.3-1.42a.81.81,0,0,1,.36,1.58l-6.31,1.41A.55.55,0,0,1,2092.07,1391.85Zm-179.35-2.13h-.13l-6.38-1a.81.81,0,0,1-.67-.93.83.83,0,0,1,.93-.67l6.38,1a.8.8,0,0,1-.13,1.6Zm200.37-2.59a.81.81,0,0,1-.18-1.6l6.31-1.42a.81.81,0,0,1,.35,1.58l-6.3,1.42Zm-221.63-.88h-.13l-6.38-1a.81.81,0,1,1,.26-1.6l6.38,1.05a.8.8,0,0,1,.67.92A.81.81,0,0,1,1891.46,1386.25Zm-21.26-3.47h-.13l-6.38-1a.81.81,0,1,1,.26-1.6l6.38,1a.81.81,0,0,1,.67.93A.82.82,0,0,1,1870.2,1382.78Zm263.91-.38a.81.81,0,0,1-.18-1.6l6.31-1.42a.81.81,0,0,1,.35,1.58l-6.31,1.42Zm-285.17-3.1h-.13l-6.38-1a.81.81,0,1,1,.26-1.59l6.38,1a.8.8,0,0,1-.13,1.6Zm306.18-1.63a.81.81,0,0,1-.17-1.6l6.3-1.42a.81.81,0,0,1,.36,1.58l-6.31,1.42Zm21-4.73a.81.81,0,0,1-.18-1.6l6.31-1.41a.8.8,0,0,1,.35,1.57l-6.3,1.42Zm-335.09-9.38a.81.81,0,0,1-.8-.76c-.14-2.06-.27-4.22-.41-6.46a.82.82,0,0,1,.76-.85.78.78,0,0,1,.86.76q.19,3.36.4,6.45a.81.81,0,0,1-.75.86Zm349.6-.41a.82.82,0,0,1-.81-.78q-.12-3.22-.32-6.44a.8.8,0,0,1,.76-.85.81.81,0,0,1,.85.75c.13,2.15.24,4.32.32,6.48a.8.8,0,0,1-.77.84ZM1839.92,1342a.81.81,0,0,1-.8-.78q-.12-3.19-.21-6.47a.81.81,0,0,1,.78-.83.86.86,0,0,1,.83.79q.09,3.26.21,6.45a.81.81,0,0,1-.77.84Zm349.15-.38a.8.8,0,0,1-.8-.72q-.34-3.24-.73-6.41a.81.81,0,0,1,1.6-.2c.26,2.13.51,4.27.73,6.44a.81.81,0,0,1-.71.89Zm-349.56-21.16h0a.81.81,0,0,1-.81-.81q0-3.26.06-6.48a.74.74,0,0,1,.82-.79.8.8,0,0,1,.79.82c0,2.13,0,4.29,0,6.45A.81.81,0,0,1,1839.51,1320.5Zm346.73-.2a.81.81,0,0,1-.8-.68c-.34-2.17-.7-4.29-1.06-6.37a.81.81,0,0,1,1.59-.27q.54,3.12,1.07,6.39a.82.82,0,0,1-.68.92Zm-3.87-21.2a.79.79,0,0,1-.79-.65c-.46-2.2-.91-4.31-1.35-6.31a.8.8,0,0,1,.62-1,.81.81,0,0,1,1,.61q.66,3,1.35,6.34a.81.81,0,0,1-.63.95Zm-342.21-.14h-.06a.81.81,0,0,1-.75-.86c.14-2.2.32-4.36.52-6.46a.8.8,0,0,1,.88-.73.81.81,0,0,1,.73.88q-.3,3.14-.52,6.42A.79.79,0,0,1,1840.16,1299Zm8.41-15.13a.81.81,0,0,1,0-1.61l6.46-.3a.81.81,0,0,1,.07,1.62l-6.46.29Zm21.53-1a.81.81,0,0,1,0-1.62l6.46-.28a.85.85,0,0,1,.84.77.8.8,0,0,1-.77.84l-6.46.29Zm21.53-.93a.81.81,0,0,1,0-1.62l6.46-.27a.81.81,0,0,1,.84.77.79.79,0,0,1-.77.84l-6.46.28Zm21.53-.89a.81.81,0,0,1,0-1.62l6.46-.26a.86.86,0,0,1,.84.78.81.81,0,0,1-.78.84l-6.46.26Zm21.53-.85a.8.8,0,0,1-.8-.78.81.81,0,0,1,.77-.84l6.46-.24a.81.81,0,1,1,.06,1.61l-6.46.25Zm21.54-.8a.81.81,0,0,1,0-1.62l6.46-.23a.85.85,0,0,1,.84.78.82.82,0,0,1-.78.84l-6.46.23Zm21.53-.75a.81.81,0,0,1,0-1.61l6.46-.22a.79.79,0,0,1,.84.78.82.82,0,0,1-.78.84l-6.46.21Zm199.77-.55a.81.81,0,0,1-.78-.61l0-.18c-1.62-.14-3.34-.27-5.18-.38a.81.81,0,0,1-.75-.86.8.8,0,0,1,.85-.76c1.94.13,3.74.26,5.42.41a1.23,1.23,0,0,1,1.14.9l.13.48a.8.8,0,0,1-.59,1Zm-.61-.77h0Zm-177.63.63a.81.81,0,0,1,0-1.62l6.46-.19a.81.81,0,0,1,0,1.61l-6.46.2Zm21.53-.63a.81.81,0,0,1,0-1.62l6.46-.17a.83.83,0,0,1,.83.79.8.8,0,0,1-.79.82l-6.45.18Zm21.54-.56a.81.81,0,0,1,0-1.61l6.46-.15h0a.81.81,0,0,1,0,1.61l-6.46.15Zm21.54-.46a.81.81,0,0,1-.81-.79.8.8,0,0,1,.79-.82l6.46-.12c.53.06.82.35.83.79a.82.82,0,0,1-.8.83l-6.46.11Zm92.62-.08h0c-2.06-.07-4.22-.13-6.45-.18a.81.81,0,0,1-.79-.83.79.79,0,0,1,.83-.79l6.46.18a.81.81,0,0,1,0,1.62Zm-71.09-.27a.81.81,0,0,1,0-1.61l6.47-.08h0a.81.81,0,0,1,0,1.61l-6.46.08Zm49.55-.16h0l-6.46,0a.81.81,0,0,1,0-1.62h0l6.47.05a.81.81,0,0,1,0,1.62Zm-28,0a.81.81,0,0,1,0-1.61l6.47,0h0a.81.81,0,1,1,0,1.62l-6.46,0Z" transform="translate(-155.15 -149.23)"/><path class="cls-43" d="M2044.82,1435.69l-45.57,1.57a11.79,11.79,0,0,1-12.07-10l-6.77-43.67a11.77,11.77,0,0,1,11.26-13.54l54.75-1.88a11.77,11.77,0,0,1,12.19,12.38l-2.4,44A11.79,11.79,0,0,1,2044.82,1435.69Z" transform="translate(-155.15 -149.23)"/><path class="cls-44" d="M2038.94,1427.82l-34.69,1.19a9,9,0,0,1-9.18-7.57l-5.15-33.24a9,9,0,0,1,8.57-10.3l41.67-1.43a9,9,0,0,1,9.27,9.41l-1.83,33.49A9,9,0,0,1,2038.94,1427.82Z" transform="translate(-155.15 -149.23)"/><polygon class="cls-2" points="545.6 1130.67 705.87 1119 699.54 1124.57 699.54 1131.03 677.73 1131.03 682.75 1139.65 710.04 1139.65 699.99 1155.8 697.83 1227.97 682.03 1227.97 696.4 1246.64 697.83 1348.6 710.04 1351.47 699.27 1355.78 699.99 1376.61 550.63 1402.46 517.6 1301.93 513.29 1157.6 545.6 1130.67"/><polygon class="cls-3" points="437.67 1106.26 546.6 1130.31 546.6 1184.88 519.17 1174.83 520.54 1182.01 546.36 1194.94 550.07 1256.69 518.59 1243.05 518.59 1249.51 550.9 1268.18 550.9 1314.13 521.33 1298.34 522.83 1307.67 550.9 1322.75 550.9 1402.46 454.55 1348.6 451.61 1315.57 430.03 1304.08 445.81 1292.59 445.08 1243.77 430 1221.51 440.77 1214.32 440.05 1146.83 430 1131.75 438.68 1115.95 437.67 1106.26"/><polygon class="cls-2" points="440.77 1106.26 569.48 1092.79 705.73 1119 546.32 1130.31 440.77 1106.26"/><g class="cls-45"><polygon class="cls-3" points="573.25 1180.58 699.5 1171.98 699.31 1178.44 573.25 1180.58"/><path class="cls-3" d="M748.87,1410c2.15-1.52,102.79-6.37,102.79-6.37l.15,10.78Z" transform="translate(-155.15 -149.23)"/></g><path class="cls-3" d="M585.15,1242l120.63,26.21s142.9-3.77,155.1-31.06c-20.82,6.46-137.86-14.36-137.86-14.36Z" transform="translate(-155.15 -149.23)"/><path class="cls-5" d="M588,1212.05s102,39.49,135,39.49,128.79-43.08,128.79-43.08-136.69-3.31-152.49-20.69C664.14,1199.12,588,1212.05,588,1212.05Z" transform="translate(-155.15 -149.23)"/><path class="cls-3" d="M603.1,1201.28s107.25,31.59,116.82,32.31c14.59.72,128.76-56.73,128.76-56.73L723,1160.35S637.57,1207.74,603.1,1201.28Z" transform="translate(-155.15 -149.23)"/><path class="cls-5" d="M598.61,1315.27c-1.65-4.84,76.48,29.62,76.48,29.62l-11.85,4.85S601.92,1325,598.61,1315.27Z" transform="translate(-155.15 -149.23)"/><path class="cls-5" d="M689.63,1425.67c2.15.09-81.86-29.62-81.86-29.62S649.24,1424.05,689.63,1425.67Z" transform="translate(-155.15 -149.23)"/><path class="cls-2" d="M1813,1388,1803,1404.13l-2.15,72.16H1785L1799.4,1495l.66,48.45c-.13-.13-.28-.24-.41-.35l-146,7.91-33.47-15.9-3.86-129.16L1648.6,1379l160.26-11.66-6.32,5.56v6.47h-21.82l5,8.61Z" transform="translate(-155.15 -149.23)"/><polygon class="cls-3" points="1498.74 1367.28 1498.74 1401.74 1393.22 1355.43 1392.98 1342.85 1377.87 1320.6 1388.62 1313.42 1387.9 1245.91 1377.84 1230.83 1386.45 1215.04 1385.51 1205.35 1494.44 1229.41 1494.44 1283.98 1467.01 1273.92 1468.38 1281.11 1494.19 1294.04 1497.91 1355.78 1466.43 1342.14 1466.43 1348.6 1498.74 1367.28"/><polygon class="cls-2" points="1388.61 1205.35 1517.32 1191.88 1653.57 1218.09 1494.16 1229.4 1388.61 1205.35"/><g class="cls-45"><polygon class="cls-3" points="1521.09 1279.67 1647.34 1271.07 1647.15 1277.53 1521.09 1279.67"/><path class="cls-3" d="M1696.71,1509.05c2.15-1.52,102.79-6.37,102.79-6.37l.15,10.79Z" transform="translate(-155.15 -149.23)"/></g><path class="cls-5" d="M1533,1345.43l120.63,26.21s142.9-3.77,155.1-31.06c-20.82,6.46-137.86-14.36-137.86-14.36Z" transform="translate(-155.15 -149.23)"/><path class="cls-3" d="M1520.78,1332.68s102,39.49,135,39.49,128.79-43.08,128.79-43.08-136.69-3.31-152.49-20.68C1596.9,1319.76,1520.78,1332.68,1520.78,1332.68Z" transform="translate(-155.15 -149.23)"/><path class="cls-2" d="M965.19,1532.3l173.66-45.24,130.08,30.1-154.08,53.92S997.79,1559.31,965.19,1532.3Z" transform="translate(-155.15 -149.23)"/><path class="cls-3" d="M1105.21,1532.3l173.67-45.24,130.07,30.1-154.08,53.92S1137.81,1559.31,1105.21,1532.3Z" transform="translate(-155.15 -149.23)"/><path class="cls-5" d="M1269.36,1499.92s129.21,18.53,175.31-3.69c53.68,28.53,74.15,38.23,74.15,38.23s-167,45.23-216.5,19.38C1277.55,1529.07,1269.36,1499.92,1269.36,1499.92Z" transform="translate(-155.15 -149.23)"/><path class="cls-5" d="M903.15,1512s99.26,14.24,134.67-2.83c41.24,21.91,57,29.36,57,29.36s-128.25,34.75-166.31,14.9A105.85,105.85,0,0,1,903.15,1512Z" transform="translate(-155.15 -149.23)"/><path class="cls-3" d="M703.11,838.64S539.38,876,529.33,865.94c29.44,26.57,63.19,45.24,63.19,45.24s137.87-22.07,165.15-51.61C732.54,845.84,703.11,838.64,703.11,838.64Z" transform="translate(-155.15 -149.23)"/><path class="cls-5" d="M587.13,830.55l40.93,44.36s-128.9,40.56-180.23,0c-39.49-30.87-41.65-62.1-41.65-62.1S498.81,882.77,587.13,830.55Z" transform="translate(-155.15 -149.23)"/><g class="cls-46"><path class="cls-35" d="M1094.53,627.5a5.38,5.38,0,0,1-6.78,3.47h0a5.38,5.38,0,0,1-3.47-6.77l7.92-24.61a5.38,5.38,0,0,1,6.78-3.47h0a5.38,5.38,0,0,1,3.47,6.77Z" transform="translate(-155.15 -149.23)"/><path class="cls-35" d="M1153.4,704.35a5.38,5.38,0,0,1-5.07-5.68h0a5.38,5.38,0,0,1,5.68-5.07l25.81,1.47a5.38,5.38,0,0,1,5.07,5.68h0a5.38,5.38,0,0,1-5.68,5.07Z" transform="translate(-155.15 -149.23)"/><path class="cls-35" d="M1146.48,651.4a5.37,5.37,0,0,1-7.53-1.14h0a5.38,5.38,0,0,1,1.13-7.53l20.81-15.34a5.38,5.38,0,0,1,7.53,1.14h0a5.39,5.39,0,0,1-1.14,7.53Z" transform="translate(-155.15 -149.23)"/><path class="cls-35" d="M1116,739.67a5.38,5.38,0,0,1,1.28-7.51h0a5.39,5.39,0,0,1,7.51,1.28l14.94,21.1a5.4,5.4,0,0,1-1.29,7.51h0a5.37,5.37,0,0,1-7.5-1.29Z" transform="translate(-155.15 -149.23)"/></g><path class="cls-35" d="M1020.1,837.53l1.83,6.12v.07a2.18,2.18,0,1,1-4.17,1.24h0l-1.83-6.27a2.16,2.16,0,0,1,4.14-1.22Z" transform="translate(-155.15 -149.23)"/><path class="cls-35" d="M1026.92,857.71l2.44,5.92,0,.06a2.26,2.26,0,1,1-4.17,1.72v0l-2.44-6a2.23,2.23,0,0,1,4.13-1.69Z" transform="translate(-155.15 -149.23)"/><path class="cls-35" d="M1035.7,877.14l3,5.65,0,.06a2.34,2.34,0,1,1-4.14,2.18h0l-3-5.79a2.31,2.31,0,0,1,4.09-2.15Z" transform="translate(-155.15 -149.23)"/><path class="cls-35" d="M1046.27,895.66l3.48,5.37,0,.05a2.42,2.42,0,0,1-4.06,2.63h0l-3.51-5.5a2.39,2.39,0,0,1,4-2.59Z" transform="translate(-155.15 -149.23)"/><path class="cls-35" d="M1058.41,913.2l3.92,5.06,0,0a2.5,2.5,0,0,1-3.95,3.06v0l-4-5.18a2.47,2.47,0,0,1,3.92-3Z" transform="translate(-155.15 -149.23)"/><path class="cls-35" d="M1071.94,929.7l4.3,4.74,0,0a2.57,2.57,0,0,1-3.81,3.46v0l-4.35-4.86a2.55,2.55,0,0,1,3.79-3.41Z" transform="translate(-155.15 -149.23)"/><path class="cls-35" d="M1086.68,945.13l4.65,4.42,0,0a2.65,2.65,0,0,1-3.66,3.84h0l-4.69-4.54a2.63,2.63,0,0,1,3.64-3.79Z" transform="translate(-155.15 -149.23)"/><path class="cls-35" d="M1102.48,959.5l4.93,4.1,0,0a2.68,2.68,0,0,1-3.44,4.12l-5-4.19a2.68,2.68,0,1,1,3.44-4.1Z" transform="translate(-155.15 -149.23)"/><path class="cls-35" d="M1119.21,972.79l5.18,3.77,0,0a2.71,2.71,0,0,1-3.19,4.38l-5.27-3.85a2.7,2.7,0,0,1,3.19-4.36Z" transform="translate(-155.15 -149.23)"/><path class="cls-35" d="M1136.77,985l5.42,3.43,0,0a2.74,2.74,0,1,1-2.93,4.62l-5.5-3.5a2.73,2.73,0,0,1,2.94-4.61Z" transform="translate(-155.15 -149.23)"/><path class="cls-35" d="M1155.06,996.05l5.6,3.13,0,0a2.77,2.77,0,1,1-2.7,4.83l-5.68-3.19A2.76,2.76,0,0,1,1155,996Z" transform="translate(-155.15 -149.23)"/><path class="cls-35" d="M1173.93,1006.14l5.76,2.83,0,0a2.79,2.79,0,0,1-2.46,5l-5.84-2.89a2.79,2.79,0,0,1,2.48-5Z" transform="translate(-155.15 -149.23)"/><path class="cls-35" d="M1193.29,1015.28l5.88,2.57,0,0A2.82,2.82,0,0,1,1197,1023l-6-2.61a2.81,2.81,0,0,1,2.27-5.15Z" transform="translate(-155.15 -149.23)"/><path class="cls-35" d="M1213,1023.56l6,2.33h0a2.85,2.85,0,1,1-2.07,5.31l-6-2.37a2.84,2.84,0,0,1,2.07-5.29Z" transform="translate(-155.15 -149.23)"/><path class="cls-35" d="M1233.12,1031.06l6.07,2.11h0a2.87,2.87,0,1,1-1.89,5.43l-6.12-2.14a2.87,2.87,0,1,1,1.89-5.41Z" transform="translate(-155.15 -149.23)"/><path class="cls-35" d="M1253.45,1037.86l6.14,1.93h0a2.9,2.9,0,0,1-1.73,5.54l-6.2-1.95a2.89,2.89,0,0,1,1.74-5.52Z" transform="translate(-155.15 -149.23)"/><path class="cls-35" d="M1274,1044.07l6.21,1.76h0a2.93,2.93,0,0,1-1.6,5.63l-6.25-1.79a2.92,2.92,0,0,1,1.61-5.61Z" transform="translate(-155.15 -149.23)"/><path class="cls-35" d="M1294.71,1049.76l6.25,1.63h0a3,3,0,0,1-1.49,5.73l-6.28-1.65a3,3,0,1,1,1.5-5.71Z" transform="translate(-155.15 -149.23)"/><path class="cls-35" d="M1315.55,1055l6.28,1.51h0a3,3,0,0,1-1.4,5.81l-6.3-1.54a3,3,0,0,1,1.41-5.78Z" transform="translate(-155.15 -149.23)"/><path class="cls-35" d="M1336.49,1060l6.3,1.42h0a3,3,0,0,1-1.33,5.87l-6.33-1.44a3,3,0,0,1,1.34-5.86Z" transform="translate(-155.15 -149.23)"/><path class="cls-35" d="M1357.49,1064.58l6.32,1.31h0a3,3,0,0,1-1.23,5.95l-6.35-1.33a3,3,0,0,1,1.25-5.93Z" transform="translate(-155.15 -149.23)"/><path class="cls-35" d="M1378.55,1068.81l6.34,1.19h0a3.07,3.07,0,1,1-1.13,6l-6.38-1.22a3.05,3.05,0,1,1,1.15-6Z" transform="translate(-155.15 -149.23)"/><path class="cls-35" d="M1399.68,1072.62l6.37,1.06h0a3.09,3.09,0,1,1-1,6.1l-6.4-1.08a3.08,3.08,0,0,1,1-6.08Z" transform="translate(-155.15 -149.23)"/><path class="cls-35" d="M1420.9,1076l6.38.91h0a3.12,3.12,0,1,1-.88,6.18l-6.42-.93a3.11,3.11,0,1,1,.89-6.16Z" transform="translate(-155.15 -149.23)"/><path class="cls-35" d="M1442.18,1078.81l6.39.74h0a3.15,3.15,0,0,1-.73,6.25l-6.45-.77a3.14,3.14,0,1,1,.74-6.23Z" transform="translate(-155.15 -149.23)"/><path class="cls-35" d="M1463.51,1081.1l6.42.58h0a3.15,3.15,0,0,1-.57,6.27l-6.47-.58a3.15,3.15,0,1,1,.56-6.28Z" transform="translate(-155.15 -149.23)"/><path class="cls-35" d="M1484.9,1082.82l6.43.39h0a3.13,3.13,0,1,1-.37,6.25l-6.48-.38a3.14,3.14,0,1,1,.37-6.26Z" transform="translate(-155.15 -149.23)"/><path class="cls-35" d="M1506.32,1083.87l6.43.18h0a3.12,3.12,0,0,1-.17,6.23l-6.49-.17a3.12,3.12,0,0,1,.17-6.24Z" transform="translate(-155.15 -149.23)"/><path class="cls-35" d="M1527.74,1084.22l6.43,0h0a3.1,3.1,0,1,1,0,6.19l-6.49.05a3.1,3.1,0,1,1,0-6.2Z" transform="translate(-155.15 -149.23)"/><path class="cls-35" d="M1549.16,1083.8l6.42-.28h0a3.08,3.08,0,0,1,.28,6.15l-6.49.3a3.09,3.09,0,0,1-.28-6.17Z" transform="translate(-155.15 -149.23)"/><path class="cls-35" d="M1570.54,1082.58l6.4-.53h0a3.06,3.06,0,1,1,.51,6.1l-6.47.55a3.07,3.07,0,0,1-.52-6.12Z" transform="translate(-155.15 -149.23)"/><path class="cls-35" d="M1591.85,1080.51l6.37-.81h0a3,3,0,0,1,.77,6l-6.46.82a3,3,0,0,1-.77-6Z" transform="translate(-155.15 -149.23)"/><path class="cls-35" d="M1613,1077.5l6.33-1.08h0a3,3,0,1,1,1,6l-6.41,1.12a3,3,0,0,1-1-6Z" transform="translate(-155.15 -149.23)"/><path class="cls-35" d="M1634.07,1073.54l6.27-1.38h0a3,3,0,0,1,1.3,5.88l-6.35,1.41a3,3,0,0,1-1.3-5.89Z" transform="translate(-155.15 -149.23)"/><path class="cls-35" d="M1654.89,1068.6l6.2-1.67h0a3,3,0,0,1,1.57,5.78l-6.28,1.7a3,3,0,1,1-1.57-5.78Z" transform="translate(-155.15 -149.23)"/><path class="cls-35" d="M1675.45,1062.67l6.11-2h0a3,3,0,0,1,1.84,5.65l-6.19,2a3,3,0,0,1-1.85-5.67Z" transform="translate(-155.15 -149.23)"/><path class="cls-35" d="M1695.68,1055.73l6-2.29h0a3,3,0,1,1,2.11,5.52l-6.08,2.33a3,3,0,0,1-2.12-5.53Z" transform="translate(-155.15 -149.23)"/><path class="cls-35" d="M1715.52,1047.75l5.86-2.61,0,0a2.94,2.94,0,0,1,2.38,5.38l-5.94,2.65a2.95,2.95,0,1,1-2.4-5.38Z" transform="translate(-155.15 -149.23)"/><path class="cls-35" d="M1734.89,1038.7l5.7-2.92.05,0a2.92,2.92,0,0,1,2.67,5.2l-5.79,3a2.93,2.93,0,1,1-2.68-5.2Z" transform="translate(-155.15 -149.23)"/><path class="cls-35" d="M1753.71,1028.58l5.52-3.26,0,0a2.9,2.9,0,1,1,3,5l-5.61,3.32a2.91,2.91,0,0,1-3-5Z" transform="translate(-155.15 -149.23)"/><path class="cls-35" d="M1771.88,1017.36l5.31-3.58,0,0a2.88,2.88,0,1,1,3.23,4.78l-5.39,3.65a2.89,2.89,0,0,1-3.24-4.79Z" transform="translate(-155.15 -149.23)"/><path class="cls-35" d="M1789.31,1005l5.08-3.91,0,0a2.87,2.87,0,1,1,3.51,4.54l-5.15,4a2.88,2.88,0,0,1-3.53-4.55Z" transform="translate(-155.15 -149.23)"/><path class="cls-35" d="M1805.91,991.61l4.79-4.24,0,0a2.85,2.85,0,0,1,3.79,4.27l-4.87,4.32a2.86,2.86,0,1,1-3.8-4.27Z" transform="translate(-155.15 -149.23)"/><path class="cls-35" d="M1821.55,977.1l4.49-4.56,0,0a2.84,2.84,0,0,1,4.05,4l-4.57,4.66a2.84,2.84,0,0,1-4.06-4Z" transform="translate(-155.15 -149.23)"/><path class="cls-35" d="M1836.06,961.5l4.08-4.91,0-.06a2.82,2.82,0,0,1,4.34,3.59l-4.17,5a2.82,2.82,0,1,1-4.35-3.6Z" transform="translate(-155.15 -149.23)"/><path class="cls-35" d="M1849.1,944.7l3.57-5.28,0-.08a2.8,2.8,0,1,1,4.64,3.14l-3.66,5.43a2.81,2.81,0,1,1-4.66-3.14Z" transform="translate(-155.15 -149.23)"/><path class="cls-35" d="M1860.29,926.67l2.93-5.64,0-.1a2.78,2.78,0,0,1,4.94,2.56l-3,5.84a2.79,2.79,0,0,1-5-2.56Z" transform="translate(-155.15 -149.23)"/><path class="cls-35" d="M1869.15,907.46l2.11-6,0-.12a2.77,2.77,0,0,1,5.22,1.83l-2.19,6.22a2.77,2.77,0,1,1-5.23-1.83Z" transform="translate(-155.15 -149.23)"/><path class="cls-35" d="M1875,887.23l1.09-6.22,0-.15a2.75,2.75,0,0,1,5.41.94l-1.13,6.52a2.75,2.75,0,0,1-5.42-.94Z" transform="translate(-155.15 -149.23)"/><path class="cls-35" d="M1877.3,866.35c0-2.1,0-4.21-.1-6.3v0a2.73,2.73,0,0,1,5.46-.24c.09,2.21.07,4.41.11,6.62a2.73,2.73,0,1,1-5.46.11Z" transform="translate(-155.15 -149.23)"/><path class="cls-35" d="M1875.51,845.44l-1.32-6.17,0-.15a2.71,2.71,0,0,1,5.31-1.13l1.39,6.46a2.72,2.72,0,1,1-5.32,1.14Z" transform="translate(-155.15 -149.23)"/><path class="cls-35" d="M1869.85,825.18l-2.36-5.87,0-.13a2.69,2.69,0,0,1,5-2l2.47,6.11a2.7,2.7,0,1,1-5,2Z" transform="translate(-155.15 -149.23)"/><path class="cls-35" d="M1860.92,806.06l-3.24-5.47-.06-.09a2.68,2.68,0,0,1,4.61-2.74l3.36,5.66a2.68,2.68,0,1,1-4.61,2.74Z" transform="translate(-155.15 -149.23)"/><path class="cls-35" d="M1849.26,788.39l-4-5-.06-.08a2.66,2.66,0,0,1,4.16-3.32l4.1,5.15a2.67,2.67,0,0,1-4.17,3.32Z" transform="translate(-155.15 -149.23)"/><path class="cls-35" d="M1835.35,772.41l-4.57-4.42-.07-.08a2.62,2.62,0,0,1,3.64-3.77l4.74,4.55a2.64,2.64,0,0,1-3.66,3.8Z" transform="translate(-155.15 -149.23)"/><path class="cls-35" d="M1819.47,758.38l-5.1-3.8-.08-.06a2.57,2.57,0,0,1,3.06-4.13l5.28,3.89a2.59,2.59,0,1,1-3.07,4.16Z" transform="translate(-155.15 -149.23)"/><path class="cls-35" d="M1801.92,746.46l-5.54-3.14-.08-.05a2.52,2.52,0,0,1,2.48-4.39l5.71,3.21a2.53,2.53,0,0,1-2.48,4.42Z" transform="translate(-155.15 -149.23)"/><path class="cls-35" d="M1783,736.77l-5.88-2.46-.08,0a2.47,2.47,0,0,1,1.89-4.57l6.06,2.5a2.49,2.49,0,1,1-1.9,4.6Z" transform="translate(-155.15 -149.23)"/><path class="cls-35" d="M1763.11,729.4l-6.13-1.75-.09,0a2.42,2.42,0,0,1,1.32-4.66l6.31,1.76a2.44,2.44,0,0,1-1.32,4.69Z" transform="translate(-155.15 -149.23)"/><path class="cls-35" d="M1742.45,724.44l-6.3-1-.08,0a2.37,2.37,0,0,1,.73-4.68l6.47,1a2.38,2.38,0,1,1-.72,4.71Z" transform="translate(-155.15 -149.23)"/><path class="cls-35" d="M1721.35,722l-6.39-.22h-.08a2.32,2.32,0,0,1,.14-4.63l6.56.19a2.34,2.34,0,1,1-.14,4.67Z" transform="translate(-155.15 -149.23)"/><path class="cls-35" d="M1700.1,722.23l-6.33.6h-.09a2.27,2.27,0,0,1-.44-4.52l6.51-.65a2.29,2.29,0,1,1,.45,4.55Z" transform="translate(-155.15 -149.23)"/><path class="cls-35" d="M1679.1,725.22l-6.2,1.46-.09,0a2.22,2.22,0,0,1-1-4.31l6.38-1.53a2.23,2.23,0,1,1,1,4.34Z" transform="translate(-155.15 -149.23)"/><path class="cls-35" d="M1658.71,731.1l-5.92,2.32-.09,0a2.17,2.17,0,0,1-1.59-4l6.09-2.42a2.18,2.18,0,0,1,1.61,4.06Z" transform="translate(-155.15 -149.23)"/><path class="cls-47" d="M1245.69,289.27,840.41,268.19c-33.1-1.72-59.51,24.08-58.57,57.43l10.47,372.71c.86,30.46,27.21,53.73,58.49,52.18l145.64-7.19,62.09,135.2c4.06,8.83,11.61,14,18.8,13s12.43-8.2,13.06-17.74l8.9-135.5,136.35-6.73c26.09-1.29,47.63-24.42,48.4-51.83l9.39-333.86C1294.26,316.08,1273,290.7,1245.69,289.27Z" transform="translate(-155.15 -149.23)"/><path class="cls-48" d="M1177.09,654H893.15a38.63,38.63,0,0,1-38.58-38.59V407.73a38.63,38.63,0,0,1,38.58-38.59h283.94a38.63,38.63,0,0,1,38.59,38.59V615.37A38.63,38.63,0,0,1,1177.09,654ZM893.15,394.57A13.17,13.17,0,0,0,880,407.73V615.37a13.17,13.17,0,0,0,13.15,13.16h283.94a13.18,13.18,0,0,0,13.16-13.16V407.73a13.17,13.17,0,0,0-13.16-13.16Z" transform="translate(-155.15 -149.23)"/><path class="cls-49" d="M1035.37,516.13a12.7,12.7,0,0,1-7.35-2.34L868.91,401a12.71,12.71,0,1,1,14.71-20.74l151.75,107.61,149.76-106.37a12.72,12.72,0,1,1,14.73,20.73l-157.13,111.6A12.65,12.65,0,0,1,1035.37,516.13Z" transform="translate(-155.15 -149.23)"/><path class="cls-50" d="M878.23,645.08l-3.69-25.17,1.73,12.6-10.66-6.92c2.95-4.74,60.33-105.1,98.18-171.41a12.72,12.72,0,1,1,22.09,12.61s-24.55,43-49.14,86c-12.3,21.5-24.61,43-33.87,59.15C884.39,644.11,884.39,644.11,878.23,645.08Z" transform="translate(-155.15 -149.23)"/><path class="cls-51" d="M1191.54,645.07c-6.14-1-6.14-1-24.6-33.13-9.27-16.14-21.58-37.65-33.88-59.15-24.59-43-49.14-86-49.14-86A12.72,12.72,0,1,1,1106,454.18c37.85,66.3,95.23,166.66,98.18,171.4l-10.65,6.93Z" transform="translate(-155.15 -149.23)"/><path class="cls-52" d="M1408.36,342.36c0,48.5-37.11,87.81-82.88,87.81H1133.9c-45.77,0-82.88-39.31-82.88-87.81v-.55c0-48.5,37.11-87.81,82.88-87.81h191.58c45.77,0,82.88,39.31,82.88,87.81Z" transform="translate(-155.15 -149.23)"/><path class="cls-35" d="M1254,345.59c0,28.48-11.18,46.34-32.31,46.34-20.44,0-31.34-18.54-31.48-45.52,0-27.54,11.72-46.07,32.44-46.07C1244.07,300.34,1254,319.42,1254,345.59Zm-46.89.82c-.13,21.53,5.86,32.71,15.13,32.71,9.81,0,15-12,15-33.26,0-20.58-4.9-32.71-15-32.71C1213.26,313.15,1207,324.19,1207.13,346.41Z" transform="translate(-155.15 -149.23)"/><path class="cls-2" d="M1811.81,1117.84S1655.66,1056,1653.06,1042c9.25,38.56,26.51,73,26.51,73S1805.75,1174.88,1845,1166C1832,1140.42,1811.81,1117.84,1811.81,1117.84Z" transform="translate(-155.15 -149.23)"/><path class="cls-53" d="M1879.64,1078.28l40.93,44.36s-128.9,40.56-180.24,0c-39.49-30.87-41.64-62.1-41.64-62.1S1791.32,1130.5,1879.64,1078.28Z" transform="translate(-155.15 -149.23)"/><path class="cls-35" d="M1183.64,1151.77l6.51-.33a2.25,2.25,0,1,1,.23,4.5h-.12l-6.41.13h0a2.15,2.15,0,0,1-.16-4.3Z" transform="translate(-155.15 -149.23)"/><path class="cls-35" d="M1205.36,1151.28l6.52.2a2.59,2.59,0,1,1-.15,5.17h-.14l-6.39-.39h-.06a2.49,2.49,0,0,1,.22-5Z" transform="translate(-155.15 -149.23)"/><path class="cls-35" d="M1227.07,1152.57l6.48.73a2.86,2.86,0,1,1-.64,5.68h-.13l-6.33-.86h-.07a2.79,2.79,0,0,1,.69-5.53Z" transform="translate(-155.15 -149.23)"/><path class="cls-35" d="M1248.61,1155.56l6.41,1.2a3.11,3.11,0,0,1-1.14,6.11h-.06l-.08,0-6.25-1.31-.06,0a3,3,0,0,1,1.18-6Z" transform="translate(-155.15 -149.23)"/><path class="cls-35" d="M1269.88,1160.06l6.32,1.62a3.36,3.36,0,1,1-1.67,6.5h-.06l-.07,0-6.16-1.73-.06,0a3.28,3.28,0,0,1,1.7-6.34Z" transform="translate(-155.15 -149.23)"/><path class="cls-35" d="M1290.82,1165.9l6.21,2a3.61,3.61,0,0,1-2.2,6.87l-.06,0-.07,0-6-2.09-.06,0a3.53,3.53,0,0,1,2.23-6.7Z" transform="translate(-155.15 -149.23)"/><path class="cls-35" d="M1311.39,1172.9l6.09,2.3a3.85,3.85,0,0,1-2.72,7.2l-.06,0-.07,0-5.94-2.39,0,0a3.78,3.78,0,0,1,2.75-7Z" transform="translate(-155.15 -149.23)"/><path class="cls-35" d="M1331.54,1180.94l6,2.58a4,4,0,1,1-3.17,7.34h0l-.06,0-5.85-2.63,0,0a4,4,0,0,1,3.19-7.23Z" transform="translate(-155.15 -149.23)"/><path class="cls-35" d="M1351.33,1189.81l5.86,2.8a4.15,4.15,0,1,1-3.57,7.49h0l0,0-5.76-2.84,0,0a4.11,4.11,0,0,1,3.59-7.39Z" transform="translate(-155.15 -149.23)"/><path class="cls-35" d="M1370.78,1199.34l5.78,3a4.3,4.3,0,1,1-3.93,7.66l0,0,0,0-5.68-3h0a4.26,4.26,0,0,1,3.94-7.55Z" transform="translate(-155.15 -149.23)"/><path class="cls-35" d="M1390,1209.38l5.7,3.09a4.45,4.45,0,0,1-4.25,7.83h0l0,0-5.62-3.15h0a4.41,4.41,0,0,1,4.26-7.72Z" transform="translate(-155.15 -149.23)"/><path class="cls-35" d="M1408.9,1219.8l5.65,3.19a4.61,4.61,0,1,1-4.53,8l0,0,0,0-5.57-3.24h0a4.56,4.56,0,0,1,4.54-7.92Z" transform="translate(-155.15 -149.23)"/><path class="cls-35" d="M1427.67,1230.5l5.6,3.24a4.76,4.76,0,0,1-4.77,8.24l0,0,0,0-5.53-3.31a4.71,4.71,0,0,1,4.77-8.13Z" transform="translate(-155.15 -149.23)"/><path class="cls-35" d="M1446.31,1241.35l5.58,3.27a4.91,4.91,0,0,1-5,8.47l-.06,0-5.52-3.34a4.86,4.86,0,0,1,5-8.36Z" transform="translate(-155.15 -149.23)"/><path class="cls-35" d="M1464.89,1252.26l5.56,3.29a5,5,0,0,1-5.11,8.64h0l-5.55-3.32a5,5,0,0,1,5.13-8.6Z" transform="translate(-155.15 -149.23)"/><path class="cls-35" d="M1483.43,1263.21l5.56,3.25a5.07,5.07,0,0,1-5.11,8.76h0l-5.58-3.3a5.06,5.06,0,1,1,5.15-8.7Z" transform="translate(-155.15 -149.23)"/><path class="cls-35" d="M1502,1274l5.59,3.19h0a5.12,5.12,0,0,1-5.08,8.9h0l-5.61-3.24a5.11,5.11,0,1,1,5.1-8.85Z" transform="translate(-155.15 -149.23)"/><path class="cls-35" d="M1520.7,1284.52l5.64,3.1h0a5.17,5.17,0,0,1-5,9.07h0l-5.67-3.15a5.16,5.16,0,1,1,5-9Z" transform="translate(-155.15 -149.23)"/><path class="cls-35" d="M1539.57,1294.69l5.7,3,0,0a5.22,5.22,0,1,1-4.81,9.27h0l-5.76-3a5.21,5.21,0,0,1,4.84-9.22Z" transform="translate(-155.15 -149.23)"/><path class="cls-35" d="M1558.65,1304.36l5.78,2.78,0,0a5.27,5.27,0,1,1-4.58,9.49h0l-5.86-2.86a5.25,5.25,0,1,1,4.61-9.44Z" transform="translate(-155.15 -149.23)"/><path class="cls-35" d="M1578,1313.38l5.86,2.57.06,0a5.32,5.32,0,0,1-4.27,9.75h0l-6-2.64a5.3,5.3,0,1,1,4.29-9.7Z" transform="translate(-155.15 -149.23)"/><path class="cls-35" d="M1597.67,1321.68l6,2.34,0,0a5.37,5.37,0,1,1-3.93,10h0l-6.06-2.42a5.36,5.36,0,1,1,4-9.95Z" transform="translate(-155.15 -149.23)"/><path class="cls-35" d="M1617.63,1329.22l6,2.12.06,0a5.42,5.42,0,0,1-3.58,10.23h0l-6.15-2.18a5.41,5.41,0,0,1,3.62-10.19Z" transform="translate(-155.15 -149.23)"/><path class="cls-35" d="M1637.86,1336l6.11,1.88.06,0a5.47,5.47,0,1,1-3.21,10.46h0l-6.23-1.95a5.46,5.46,0,1,1,3.25-10.42Z" transform="translate(-155.15 -149.23)"/><path class="cls-35" d="M1658.32,1342l6.19,1.63.06,0a5.52,5.52,0,0,1-2.81,10.68h0l-6.3-1.7a5.5,5.5,0,0,1,2.85-10.63Z" transform="translate(-155.15 -149.23)"/><path class="cls-35" d="M1679,1347.16l6.24,1.4.06,0a5.49,5.49,0,0,1-2.39,10.72l-6.37-1.41a5.51,5.51,0,1,1,2.38-10.75h.08Z" transform="translate(-155.15 -149.23)"/><path class="cls-35" d="M1699.86,1351.52l6.29,1.14h.07a5.46,5.46,0,0,1-1.93,10.75l-6.43-1.14a5.47,5.47,0,1,1,1.91-10.77h.09Z" transform="translate(-155.15 -149.23)"/><path class="cls-35" d="M1720.88,1355l6.33.86h.07a5.43,5.43,0,0,1-1.44,10.76l-6.48-.85a5.44,5.44,0,0,1,1.43-10.79h.09Z" transform="translate(-155.15 -149.23)"/><path class="cls-35" d="M1742,1357.5l6.36.57h.08a5.4,5.4,0,0,1-.94,10.75l-6.52-.56a5.41,5.41,0,1,1,.93-10.77h.09Z" transform="translate(-155.15 -149.23)"/><path class="cls-35" d="M1763.25,1359.05l6.38.26h.08a5.36,5.36,0,0,1-.43,10.72l-6.53-.25a5.37,5.37,0,1,1,.41-10.74h.09Z" transform="translate(-155.15 -149.23)"/><path class="cls-35" d="M1784.52,1359.57l6.39,0h.08a5.33,5.33,0,0,1,.1,10.66l-6.55.07a5.34,5.34,0,0,1-.11-10.68h.09Z" transform="translate(-155.15 -149.23)"/><path class="cls-35" d="M1805.79,1359l6.36-.37h.08a5.3,5.3,0,0,1,.64,10.58l-6.53.4a5.3,5.3,0,1,1-.65-10.59h.1Z" transform="translate(-155.15 -149.23)"/><path class="cls-35" d="M1827,1357.38l6.34-.72h.09a5.27,5.27,0,0,1,1.19,10.47l-6.5.75a5.28,5.28,0,1,1-1.22-10.48h.1Z" transform="translate(-155.15 -149.23)"/><path class="cls-35" d="M1848,1354.59l6.29-1.06h.09a5.23,5.23,0,1,1,1.75,10.31l-6.45,1.11a5.24,5.24,0,1,1-1.78-10.33h0Z" transform="translate(-155.15 -149.23)"/><path class="cls-35" d="M1868.91,1350.64l6.22-1.42.09,0a5.2,5.2,0,0,1,2.33,10.13l-6.39,1.48a5.21,5.21,0,1,1-2.35-10.15h0Z" transform="translate(-155.15 -149.23)"/><path class="cls-35" d="M1889.52,1345.49l6.11-1.78.09,0a5.16,5.16,0,0,1,2.9,9.91l-6.28,1.85a5.18,5.18,0,0,1-2.93-9.93h0Z" transform="translate(-155.15 -149.23)"/><path class="cls-35" d="M1909.76,1339.13l6-2.16.1,0a5.13,5.13,0,1,1,3.5,9.65l-6.17,2.25a5.15,5.15,0,0,1-3.52-9.67h0Z" transform="translate(-155.15 -149.23)"/><path class="cls-35" d="M1929.51,1331.47l5.83-2.56.09,0a5.1,5.1,0,0,1,4.12,9.33l-6,2.66a5.11,5.11,0,0,1-4.14-9.35h0Z" transform="translate(-155.15 -149.23)"/><path class="cls-35" d="M1948.72,1322.49l5.65-2.93.09,0a5.07,5.07,0,0,1,4.69,9l-5.81,3a5.08,5.08,0,1,1-4.72-9h0Z" transform="translate(-155.15 -149.23)"/><path class="cls-35" d="M1967.31,1312.28l5.45-3.3.08,0a5,5,0,0,1,5.23,8.61l-5.6,3.41a5,5,0,1,1-5.25-8.61h0Z" transform="translate(-155.15 -149.23)"/><path class="cls-35" d="M1985.21,1300.89l5.22-3.64.08-.06a5,5,0,0,1,5.74,8.2l-5.37,3.77a5,5,0,1,1-5.76-8.21Z" transform="translate(-155.15 -149.23)"/><path class="cls-35" d="M2002.37,1288.4l5-4,.08-.06a4.91,4.91,0,0,1,6.13,7.67l-5.11,4.12a4.94,4.94,0,0,1-6.2-7.69l0,0Z" transform="translate(-155.15 -149.23)"/><path class="cls-35" d="M2018.71,1274.86l4.73-4.27.07-.06a4.81,4.81,0,0,1,6.48,7.11l-4.83,4.44a4.84,4.84,0,1,1-6.55-7.13l0,0Z" transform="translate(-155.15 -149.23)"/><path class="cls-35" d="M2034.14,1260.28l4.44-4.56.07-.07a4.71,4.71,0,0,1,6.78,6.53l-4.52,4.75a4.74,4.74,0,0,1-6.86-6.55l0,0Z" transform="translate(-155.15 -149.23)"/><path class="cls-35" d="M2048.58,1244.72l4.13-4.85.06-.07a4.61,4.61,0,0,1,7.05,5.94l-4.2,5a4.64,4.64,0,1,1-7.12-5.94l0,0Z" transform="translate(-155.15 -149.23)"/><path class="cls-35" d="M2061.94,1228.22l3.78-5.12.06-.08a4.51,4.51,0,0,1,7.28,5.33l-3.84,5.31a4.54,4.54,0,1,1-7.36-5.33l0,0Z" transform="translate(-155.15 -149.23)"/><path class="cls-35" d="M2074.11,1210.84l3.41-5.38.05-.08a4.41,4.41,0,0,1,7.48,4.69l-3.46,5.57A4.44,4.44,0,0,1,2074,1211l0,0Z" transform="translate(-155.15 -149.23)"/><path class="cls-35" d="M2085,1192.63l3-5.62,0-.08a4.31,4.31,0,0,1,7.63,4l-3,5.82a4.34,4.34,0,1,1-7.7-4l0,0Z" transform="translate(-155.15 -149.23)"/><path class="cls-35" d="M2094.48,1173.66l2.56-5.83,0-.09a4.21,4.21,0,0,1,7.73,3.35l-2.58,6a4.24,4.24,0,1,1-7.8-3.34v0Z" transform="translate(-155.15 -149.23)"/><path class="cls-35" d="M2102.46,1154l2.08-6,0-.1a4.12,4.12,0,0,1,7.79,2.66l-2.09,6.22a4.15,4.15,0,0,1-7.86-2.64l0,0Z" transform="translate(-155.15 -149.23)"/><path class="cls-35" d="M2108.81,1133.79l1.57-6.17,0-.1a4,4,0,0,1,7.78,2l-1.56,6.38a4,4,0,0,1-7.86-1.93v0Z" transform="translate(-155.15 -149.23)"/><path class="cls-35" d="M2113.43,1113.1l1-6.27,0-.11a3.92,3.92,0,0,1,7.73,1.25l-1,6.48a3.95,3.95,0,0,1-7.8-1.21v-.14Z" transform="translate(-155.15 -149.23)"/><path class="cls-35" d="M2116.24,1092.09l.5-6.33v-.11a3.8,3.8,0,0,1,7.58.54l-.41,6.55a3.85,3.85,0,0,1-7.68-.49v-.16Z" transform="translate(-155.15 -149.23)"/><path class="cls-35" d="M2117.15,1071l-.18-6.34v-.12a3.64,3.64,0,0,1,7.27-.26l.28,6.58a3.69,3.69,0,0,1-7.37.31V1071Z" transform="translate(-155.15 -149.23)"/><path class="cls-35" d="M2115.77,1049.87l-.86-6.29v-.12a3.47,3.47,0,0,1,6.87-1l1,6.5a3.52,3.52,0,1,1-7,1v-.16Z" transform="translate(-155.15 -149.23)"/><path class="cls-35" d="M2112.13,1029l-1.53-6.17,0-.1a3.31,3.31,0,0,1,6.41-1.65l1.69,6.36a3.36,3.36,0,0,1-6.5,1.71v0Z" transform="translate(-155.15 -149.23)"/><path class="cls-35" d="M2106.22,1008.69l-2.22-6,0-.1a3.15,3.15,0,0,1,5.88-2.25l2.4,6.12a3.2,3.2,0,1,1-6,2.33v0Z" transform="translate(-155.15 -149.23)"/><path class="cls-35" d="M2098,989.21l-2.95-5.62-.05-.11a3,3,0,0,1,5.27-2.81l3.14,5.79a3,3,0,0,1-5.33,2.9l0,0Z" transform="translate(-155.15 -149.23)"/><path class="cls-35" d="M2087.29,971l-3.7-5.14-.08-.11a2.82,2.82,0,0,1,4.56-3.33l3.93,5.29a2.87,2.87,0,0,1-4.61,3.43l0,0Z" transform="translate(-155.15 -149.23)"/><path class="cls-35" d="M2074,954.6l-4.47-4.47-.1-.1a2.66,2.66,0,0,1,3.72-3.79l4.75,4.59a2.71,2.71,0,1,1-3.77,3.9l0,0Z" transform="translate(-155.15 -149.23)"/><path class="cls-35" d="M2058.27,940.67l-5.21-3.58-.12-.08a2.44,2.44,0,0,1,2.72-4l5.52,3.63a2.5,2.5,0,0,1-2.75,4.18l0,0Z" transform="translate(-155.15 -149.23)"/><path class="cls-35" d="M2040.15,930l-5.82-2.48-.12-.06a2.21,2.21,0,0,1,1.7-4.09l6.12,2.46a2.29,2.29,0,0,1-1.71,4.24h0Z" transform="translate(-155.15 -149.23)"/></svg>