<svg xmlns="http://www.w3.org/2000/svg" viewBox="0 0 705.26 423.15"><defs><style>.cls-1{fill:#8ad3db;}.cls-2{fill:#6395ce;}.cls-3{fill:#e17c37;}.cls-4{fill:#d77062;}.cls-5{fill:#f8ebe5;}.cls-6{fill:#212443;}.cls-7{fill:#fff;}.cls-8{fill:#4f7ca6;}.cls-9{fill:#eac2b0;}.cls-10{fill:#cc5b1c;}.cls-11{fill:#1f2241;}.cls-12{fill:#e8a628;}.cls-13{fill:#6297d4;}.cls-14{fill:#d88f25;}.cls-15{fill:#e7a729;}.cls-16{fill:#dd6a3e;}.cls-17{fill:#f9efe6;}.cls-18{fill:#f4d9c6;}.cls-19{fill:#c34622;}.cls-20{fill:none;stroke:#d88f25;stroke-miterlimit:10;stroke-width:1.5px;}.cls-21{fill:#e28a21;}</style></defs><title>partners-img</title><g id="OBJECTS"><path class="cls-1" d="M229.79,222.58c-9-6-20.9-7.21-33.46-.27-13.85,7.64-24,15.46-40.71,12.43-26.19-4.76-47.39-19.62-75.08-18.2-14.6.75-29.68,5.87-39,17.21a41.76,41.76,0,0,0-8.6,32.77,46.14,46.14,0,0,0,17.7,29.05c7.07,5.35,15.83,8.7,24.67,8.3,8-.37,15.58-3.72,23.08-6.66,18.06-7.08,38.31-12,56.62-5.58,11.18,3.89,20.55,11.84,32.42,13.54a52.58,52.58,0,0,0,34.24-6.78c13.22-7.93,23.26-22.43,24.64-37.95C247.69,244.62,240.87,230,229.79,222.58Z" transform="translate(-32.39 -59)"/><path class="cls-1" d="M197.09,319.94c-7.49,3.25-16.41,7.55-19.8,15.55s.92,16.38,7.36,21.4c4.36,3.4,9.51,5.57,14.52,7.82L218,373.15c5.15,2.31,10.9,4.38,14.83,8.6,3.52,3.78,5.12,8.93,6.81,13.69,2.25,6.31,4.85,13.68,11.71,16.25,7.65,2.87,16.22-2.06,18.6-9.63,2.71-8.61-1.85-16.66-8.55-21.84-8.52-6.58-18.44-10.18-24.57-19.59-6.73-10.32-4.59-24.05-13.67-33a27.32,27.32,0,0,0-25.82-7.12,1,1,0,0,0,.55,2,25.31,25.31,0,0,1,24.75,7.56c6.65,7.3,5.65,17.48,9.44,26.09a39.85,39.85,0,0,0,14.4,16.95c6.72,4.55,15.48,7.94,19.77,15.24,2.74,4.66,3.36,10.72.68,15.57-3,5.41-10.17,8.21-15.86,5.41-6.78-3.33-8.48-12.13-10.93-18.56-2.27-6-5.25-11-10.81-14.42-8.45-5.18-18.34-8.6-27.37-12.65-9.67-4.35-24.36-10-23.8-22.92.43-10.17,12-15.58,20-19.07,1.21-.52.17-2.3-1-1.77Z" transform="translate(-32.39 -59)"/><path class="cls-1" d="M452.72,139.69c-2.28-6.31-7-11.85-13.56-13.47-12.09-1-18.39,2.09-24.64,8.12s-9.84,14.22-13.32,22.18-7.19,16.12-13.58,22c-10.92,10-27.76,11.59-38.39,21.92s-12.23,28-5.47,41.15,20.6,21.89,35.17,24.63a45.1,45.1,0,0,0,14.38.57c14-1.89,26-12.25,32.42-24.88s7.94-27.25,7.19-41.4c-.37-6.89-1.19-14.14,1.65-20.43,5.64-12.48,20-16.77,19.66-32.49A25.06,25.06,0,0,0,452.72,139.69Z" transform="translate(-32.39 -59)"/><path class="cls-1" d="M193.52,177.2c-3.84-11,7.46-17.87,17-17.71,7.63.12,15.24,3.1,22.63-.17,14.17-6.28,15-24.34,26.17-33.51,7.51-6.18,19.23-5.79,21.31,5.39,1.64,8.82-4.82,16.31-11,21.63s-12.63,9.84-17.79,16.26c-4.86,6-9,12.75-14.72,18C229.76,194,219,198.19,209,195.46c-9.16-2.5-16.15-11-15.78-20.58.05-1.42-2.15-1.42-2.2,0-.67,17.64,18.17,26.93,33.48,22.15,9.07-2.83,15.75-9.15,21.46-16.52,3.21-4.13,6.16-8.48,9.61-12.43,3.7-4.22,8.06-7.59,12.42-11.06,6.64-5.28,13.83-11.78,15-20.69.86-6.52-2.06-14-8.59-16.34-7.24-2.64-15.05,2-19.67,7.34-6.7,7.83-9,18.62-16.5,25.86-10.65,10.25-23.39,1.25-35.7,5.19-8.24,2.63-14.13,10.74-11.11,19.4.46,1.33,2.59.76,2.12-.58Z" transform="translate(-32.39 -59)"/><path class="cls-1" d="M590.17,198c-6-10-20.4-16.15-31.76-13.44-17.12,4.08-17.67,23.09-19.76,37.43-1.61,11-5.21,22.35-13.49,29.78-4.78,4.28-10.75,6.93-16.55,9.68-14.71,7-29.18,15.11-40.44,26.86s-19.05,27.62-18.11,43.87a34.56,34.56,0,0,0,2.66,11.92c3.59,8.21,11,14.19,18.94,18.31A70,70,0,0,0,508.14,370c11.69-.75,23.54-4.74,31.78-13,11.82-11.93,14.16-30,15.6-46.76s3.12-34.74,14.14-47.4c3.41-3.91,7.57-7.11,11-11,10.33-11.61,15.45-29.14,12.83-44.49A27.18,27.18,0,0,0,590.17,198Z" transform="translate(-32.39 -59)"/><path class="cls-1" d="M559.56,94.09c-21.9-2.15-43.71,13.44-43.15,36.72A31.48,31.48,0,0,0,529,155.15c9.65,7.25,20.29,6.1,31.53,4.24,14.38-2.39,28.66,0,40.11,9.57,6.48,5.41,13.86,18.37,24.24,13.9,4-1.74,6.64-6.23,8.7-9.88,2.64-4.68,4-9.69,2.27-14.93-3.56-10.47-14.68-15-23.75-19.49-6.82-3.36-12.9-7.25-16.3-14.33-2.82-5.87-4.95-11.52-9.4-16.45a42.67,42.67,0,0,0-30.19-13.92c-1.41,0-1.41,2.15,0,2.19a40.38,40.38,0,0,1,27.64,12.23,39.86,39.86,0,0,1,7.87,12c1.88,4.26,3.5,8.49,6.78,11.92,6.38,6.64,15.56,9.09,23.27,13.69,4.29,2.56,8.52,6,10.92,10.45,3.48,6.5,1,12.73-2.77,18.44-1.63,2.47-3.27,4.95-6.12,6.08-4,1.58-8.07-.31-11.13-2.86-4.22-3.52-7.34-8.13-11.7-11.55a48.9,48.9,0,0,0-23.57-9.91c-10.62-1.42-20.48,2.52-31,2.41s-20.09-6.59-24.82-15.94c-5.76-11.39-2.8-25.79,5.56-35.1,8.15-9.05,20.52-12.75,32.41-11.58,1.41.13,1.4-2.06,0-2.2Z" transform="translate(-32.39 -59)"/><path class="cls-1" d="M698.79,250.68c-12.42-7.19-27.35-6.26-39.84.3-13,6.86-20.33,18.31-25.87,31.52-6.18,14.74-12,32.42-29.6,36.21-13.59,2.93-25.85,8.45-34.23,20.14C562,349,561.76,362.7,572.06,371c9.32,7.52,23,5.85,33.46,1.82a51.12,51.12,0,0,0,14.83-8.61c6-5.09,9.56-12.15,14.1-18.4,11-15.11,28.3-18.71,44.9-24.68,14.74-5.31,29.89-14.52,35.38-30.05s-2.53-32-15.94-40.41c-1.21-.75-2.31,1.15-1.11,1.9,13.48,8.45,20.78,25.3,13.93,40.4-6.17,13.6-20.06,21.5-33.54,26.28-12.31,4.37-25.62,7.29-36.14,15.47-10.87,8.47-15.07,22.63-26.49,30.48-9.57,6.59-23.34,11.19-34.87,7.75a20.37,20.37,0,0,1-14-14c-1.79-6.74.57-13.46,4.53-19a47.79,47.79,0,0,1,15.07-13.18c6.2-3.55,12.54-4.63,19.37-6.3,12.06-2.94,19-13.25,23.93-23.94,6-13.1,9.91-27.4,21.14-37.23,12.82-11.21,31.75-15.58,47-6.73A1.1,1.1,0,0,0,698.79,250.68Z" transform="translate(-32.39 -59)"/><path class="cls-1" d="M677.44,331.25c-5.94-1.89-12.92,2.3-12.41,12.35.26,5.09,2.35,10.48,6.8,13,9.69,5.39,14.44-6.48,13.46-14.38C684.52,336.07,681.19,332.45,677.44,331.25Z" transform="translate(-32.39 -59)"/><path class="cls-1" d="M50.8,153.71c-6.63,3.35-12.34,10.54-9.27,18.31,2.63,6.68,11.22,9.61,17.82,8,6.95-1.73,10.48-8.36,8.45-15.2a16.19,16.19,0,0,0-17.16-11.11c-1.39.16-1.41,2.36,0,2.2a14.07,14.07,0,0,1,13.84,6.81c3.5,6,1.26,13.41-5.72,15.18-5.15,1.31-12-.76-14.68-5.57-3.87-6.9,2-13.74,7.83-16.71,1.26-.63.15-2.53-1.11-1.89Z" transform="translate(-32.39 -59)"/><path class="cls-2" d="M160.08,366.91c.57-1.82,1.28-3.59,1.69-5.46,1-4.45,1-8.8-1.05-13,.55-.26,1.1-.53,1.67-.77a5.77,5.77,0,0,1,6.74,1.38,8.19,8.19,0,0,1,2.43,6.89c-.19,2-.36,4.08-.61,6.11a81.46,81.46,0,0,0-.43,12.88,27.66,27.66,0,0,1-.17,3.27,3.6,3.6,0,0,1-.45,1.56,2.3,2.3,0,0,1-3.72.89,9.21,9.21,0,0,1-3.42-5.66,51.43,51.43,0,0,0-1.71-6.33A5.41,5.41,0,0,0,160.08,366.91Z" transform="translate(-32.39 -59)"/><path class="cls-2" d="M208.9,166.24a13.86,13.86,0,0,0-5.51-3.19,19,19,0,0,0-13.11.34c-6.53,2.7-11,8.85-17.29,12.13s-13.61,3.51-19.21,7.55c-3.32,2.4-5.84,6-9.67,7.48a15.8,15.8,0,0,1-8.14.38c-7.48-1.25-15.06-5.33-17.92-12.35-2-4.79-1.52-10.46-4.28-14.84-1.73-2.76-4.61-4.8-5.74-7.85-1.6-4.34.81-9,1.7-13.52a19.54,19.54,0,0,0-3.33-15.16,17.68,17.68,0,0,0-13.68-7.11s-3.84-.41-9.72,2.83c-7.3,5-9.77,15.08-8.23,23.81s6.37,16.5,11.2,23.94,9.88,15,12,23.63a6.93,6.93,0,0,1,0,4.2c-.6,1.48-2,2.4-3.31,3.38C83.5,210.53,83,227.33,74.74,238.75c-2.69,3.71-6.17,6.78-8.87,10.47-3.29,4.5-5.15,10.28-2.62,15.58a13.13,13.13,0,0,0,11.62,7.4l.58,0c2-.12,3.93-.72,5.93-.76a20.77,20.77,0,0,1,5.88,1,221.19,221.19,0,0,1,23.23,7.33c7.88,3.13,15.44,7.19,23.63,9.41s17.41,2.42,24.71-1.91c6.29-3.73,10.46-10.54,11.75-17.74a36.5,36.5,0,0,0-3.16-21.38c-2.2-4.83-5.25-9.28-6.87-14.34s-1.5-11.13,2.08-15c2.05-2.23,4.94-3.46,7.59-4.95a38.08,38.08,0,0,0,10.29-8.53,50.88,50.88,0,0,1,4.78-5.47c3.38-3,7.87-4.27,11.83-6.41a31.13,31.13,0,0,0,11.5-10.8c2.76-4.41,4.95-9.79,1.78-14.59A10.71,10.71,0,0,0,208.9,166.24Z" transform="translate(-32.39 -59)"/><path class="cls-3" d="M160.08,366.91c-.33.51-.68,1-1,1.54a14.7,14.7,0,0,1-16.9,6.76,14,14,0,0,1-4-1.53c-2.29-1.49-4.51-1.13-6.8-.2-2.24.58-4.46,1.18-6.71,1.73a1.14,1.14,0,0,0-1,1.31,17.52,17.52,0,0,1-2.75,9.25c-.06,0-.14.06-.17.12C116,393.1,106,392.05,100.57,387c-1.65-1.54-3.16-3.22-4.75-4.82-1.15-1.17-2.3-2.34-3.52-3.44a38,38,0,0,0-9.4-6.49,130.26,130.26,0,0,1-18.29-10.1,41.51,41.51,0,0,1-10.92-10.71c-4.33-6.18-5.18-12.95-3.37-20.15a39.31,39.31,0,0,1,5.84-12.59c2.39-3.49,4.73-7,7.32-10.39a123.84,123.84,0,0,0,13.29-21.86c2.31-4.74,4.71-9.41,7.38-13.95.24-.41.42-.86.63-1.28A40.64,40.64,0,0,0,89,263.5c1.15-2.62,2.21-5.3,4.14-7.5.58.47,1.17.93,1.75,1.41a42.9,42.9,0,0,0,14.76,8.2c7.71,2.32,15.5,4.35,23.56,5.06a3.63,3.63,0,0,1,2.51.67,4.38,4.38,0,0,0,0,.81c1.07,5.86,2.18,11.71,2.68,17.66.32,8.18-1.84,15.84-4.9,23.3-1.17,2.84-2.6,5.57-3.83,8.39a17.34,17.34,0,0,0-1.35,9.82,43,43,0,0,1,.08,14.5c-.21,1.19-.09,1.19,1.18,1.15a53,53,0,0,0,15.87-3,17.61,17.61,0,0,1,4.84-.83,10.81,10.81,0,0,1,9.79,4.55c.2.26.45.5.68.75,2.1,4.18,2,8.53,1.05,13C161.36,363.32,160.65,365.09,160.08,366.91ZM93,325c-1.42,1.37-2.43,2.37-3.47,3.34s-2,1.81-3,2.76a3.29,3.29,0,0,0,0,5.12l4.35,4.34c1.35,1.32,1.61,1.27,2.33-.45a2.27,2.27,0,0,0,.2-1A85.11,85.11,0,0,1,93,325Z" transform="translate(-32.39 -59)"/><path class="cls-4" d="M146.2,181.89a1.77,1.77,0,0,0-1.29-1.41.75.75,0,0,0-.42,0,1,1,0,0,0-.48.45,7.78,7.78,0,0,1-1.48,2.08,1.51,1.51,0,0,1-2.24-.2c-.09-.17-.16-.4-.35-.43s-.28.08-.4.18a42.51,42.51,0,0,1-8.24,5.77c-.11,0-.23.13-.24.25s.09.19.16.28c.37.45.17,1.12-.06,1.66-.67,1.57-1.69,3.25-3.37,3.59a1.88,1.88,0,0,0-.75.23,1.28,1.28,0,0,0-.41.69,8.21,8.21,0,0,0,2.25,8.17,5.42,5.42,0,0,0,4.35,1.61,5.71,5.71,0,0,0,2.75-1.25c2.07-1.62,5.05-4.71,3.2-6.43-3.07-2.84-1-9.63,2.63-11.47a5.73,5.73,0,0,1,1.42-.38,3.93,3.93,0,0,0,2.84-1.93A2.29,2.29,0,0,0,146.2,181.89Z" transform="translate(-32.39 -59)"/><path class="cls-2" d="M121,385.77a17.52,17.52,0,0,0,2.75-9.25,1.14,1.14,0,0,1,1-1.31c2.25-.55,4.47-1.15,6.71-1.73,2.05,1.59,2.55,3.84,2.44,6.23a67.21,67.21,0,0,1-.81,6.9,55.82,55.82,0,0,0-.3,7.55c0,1.64.13,3.27.15,4.91a4.92,4.92,0,0,1-.84,3.11,2.16,2.16,0,0,1-3.22.57,7.71,7.71,0,0,1-3.17-5.1,25.47,25.47,0,0,0-4.49-11.09A2.13,2.13,0,0,1,121,385.77Z" transform="translate(-32.39 -59)"/><path class="cls-5" d="M147.55,219.28a4.21,4.21,0,0,0-.05-4.62,18.17,18.17,0,0,1-2.51-8.14,52.12,52.12,0,0,1,.15-6.13c.08-2-.67-2.87-2.7-3.09-1.08-.11-2.18-.12-3.26-.17a8.38,8.38,0,0,1-3.65,6.77,4.79,4.79,0,0,1-5.59.11c-3.4-2.2-4.54-6.94-3-9.72-2.35-1-3.63-.7-5.23,1.56A61.65,61.65,0,0,1,111.29,207l-.05,0a6.57,6.57,0,0,0-.57.48l-.65.53,0,.1a5.29,5.29,0,0,0-1.38,3.08c-.46,7.08,1.14,14.77-2.47,20.88-1.74,2.95-4.5,5.12-7.09,7.35s-5.18,4.7-6.35,7.91a8.47,8.47,0,0,0,1,7.86,13.14,13.14,0,0,0,.17,1.37c.33.26.65.51,1,.77a42.9,42.9,0,0,0,14.76,8.2c7.71,2.32,15.5,4.35,23.56,5.06a3.63,3.63,0,0,1,2.51.67,6.23,6.23,0,0,0,3-3.46,22.5,22.5,0,0,0,1.71-10.21,87.25,87.25,0,0,1,.1-16.56,50.06,50.06,0,0,1,2.23-11.21A66.23,66.23,0,0,1,147.55,219.28Zm-47.91,28.1c-.43.32-.9.65-1.37,1a29.59,29.59,0,0,1,3.16-2.49C100.86,246.4,100.27,246.9,99.64,247.38Z" transform="translate(-32.39 -59)"/><path class="cls-4" d="M143.16,180.23c-1.43,6.51-5.88,11.1-9.92,10.18-5.77-1.31-6.16-6.89-4.73-13.39s5.87-11.07,9.91-10.18S144.59,173.73,143.16,180.23Z" transform="translate(-32.39 -59)"/><path class="cls-6" d="M133.32,169.87c-1.49-.48-3-1-4.48-1.45-7.23-2.45-12.15-7.09-13.35-14.85-.87-5.6.55-10.62,5.13-14.36a10,10,0,0,1,8.62-2.28c6.58,1.35,8.29,6.76,7.63,11.27a27.14,27.14,0,0,1-1.89,6.27,2.71,2.71,0,0,0-.33,1.56c.71,4.29,2.29,8,6.38,10.2a12.31,12.31,0,0,1,3,2.13,3.82,3.82,0,0,1,1.19,3.73,5.77,5.77,0,0,0,.07,2.8c.47,2-.33,3.76-1,5.56a9.61,9.61,0,0,1-1.74,2.49c-1,.82-1.64.74-2.39-.29a4.65,4.65,0,0,1-.89-3.46,9.91,9.91,0,0,1,2.17-5c1-1.29,1-1.42-.53-2.16A33.61,33.61,0,0,0,133.32,169.87Z" transform="translate(-32.39 -59)"/><path class="cls-4" d="M147,183.28c-1.21,2.41-3.26,3.81-4.59,3.14s-1.42-3.15-.21-5.56,3.26-3.8,4.59-3.14S148.17,180.88,147,183.28Z" transform="translate(-32.39 -59)"/><path class="cls-4" d="M130.49,177.76c.32,2.39-.5,4.48-1.84,4.66s-2.67-1.62-3-4,.5-4.47,1.84-4.65S130.17,175.37,130.49,177.76Z" transform="translate(-32.39 -59)"/><path class="cls-7" d="M136.07,182.8A2.84,2.84,0,0,1,130.7,181Z" transform="translate(-32.39 -59)"/><path class="cls-4" d="M215.49,161.5c-.67-.88-4.34,2.3-4.34,2.3s4.52-4.45,4.14-5.21c-.61-1.2-5.68,3.95-5.68,3.95s5.37-5.75,4.18-6.61-5.87,5.43-5.87,5.43,4-6.19,2.88-6.75-6,7.63-6,7.63-.72-4.77-1.7-4.69c-1.65.15-.55,10.33-.55,10.33l4.33,3.58S216.16,162.39,215.49,161.5Z" transform="translate(-32.39 -59)"/><path class="cls-4" d="M78.62,115c.82-.75,3.84,3.06,3.84,3.06s-3.63-5.21-3.11-5.89c.82-1.07,4.85,4.92,4.85,4.92s-4.22-6.63-2.89-7.26,4.77,6.42,4.77,6.42-2.82-6.83-1.59-7.16S89,117.7,89,117.7s1.58-4.55,2.53-4.29c1.6.44-1.36,10.26-1.36,10.26l-4.91,2.71S77.8,115.76,78.62,115Z" transform="translate(-32.39 -59)"/><path class="cls-8" d="M200.63,168.68c2.12,2.22,4.29,3.84,7.42,4.2,1.59.19,1.58-2.31,0-2.49-2.42-.28-4.05-1.79-5.66-3.48-1.11-1.16-2.87.61-1.76,1.77Z" transform="translate(-32.39 -59)"/><path class="cls-8" d="M92.75,123.06a11.45,11.45,0,0,0-9.81,4.68c-1,1.28,1.19,2.53,2.15,1.26a8.9,8.9,0,0,1,7.66-3.45c1.6.08,1.6-2.41,0-2.49Z" transform="translate(-32.39 -59)"/><path class="cls-8" d="M124.36,190.08A42.08,42.08,0,0,1,104,209.52c-7.3,3.29-16.77,6.37-17.91,15.6-.09.79,1.15.79,1.25,0,1.28-10.39,14.19-12.36,21.61-16.74a43.08,43.08,0,0,0,16.44-17.67c.36-.72-.71-1.35-1.07-.63Z" transform="translate(-32.39 -59)"/><path class="cls-8" d="M86.07,229a26.42,26.42,0,0,1-2.54,6,.63.63,0,0,0,1.08.63,27.49,27.49,0,0,0,2.66-6.33.62.62,0,0,0-1.2-.33Z" transform="translate(-32.39 -59)"/><path class="cls-8" d="M144.84,194.74c1.17,3.71-.23,7.32-.19,11.08a21.43,21.43,0,0,0,1.91,8c2.27,5.44,5.84,10.71,5.11,16.86-.09.79,1.16.79,1.25,0,.69-5.82-2.35-10.9-4.64-16-1.38-3.09-2.52-6.31-2.37-9.75.17-3.59,1.25-7,.13-10.53-.24-.76-1.45-.43-1.2.33Z" transform="translate(-32.39 -59)"/><path class="cls-8" d="M153,237.84a11.14,11.14,0,0,0,.61,4.72c.27.75,1.48.43,1.21-.33a10.25,10.25,0,0,1-.57-4.39c.06-.8-1.18-.8-1.25,0Z" transform="translate(-32.39 -59)"/><path class="cls-8" d="M142.1,286.63c6.32-.11,13.37-3.71,15.64-9.85,2.57-7-.33-14.18-3.05-20.62-.31-.74-1.38-.1-1.07.63,2.41,5.71,5,12,3.35,18.26s-8.5,10.22-14.87,10.33a.63.63,0,0,0,0,1.25Z" transform="translate(-32.39 -59)"/><path class="cls-8" d="M81.2,243.52c-4.73,3.39-8.54,8.73-9.14,14.64-.26,2.51.38,5.3,2.63,6.76,2.77,1.8,6.31-.41,9,1.46.66.46,1.28-.62.63-1.08-1.5-1.06-3.06-1-4.83-.86s-3.54.19-4.84-1.19a6.5,6.5,0,0,1-1.24-5.43,20.21,20.21,0,0,1,8.46-13.22c.64-.46,0-1.55-.63-1.08Z" transform="translate(-32.39 -59)"/><path class="cls-8" d="M98.62,199.39a43.63,43.63,0,0,0,18.5-28.4c.14-.78-1.06-1.12-1.2-.33A42.41,42.41,0,0,1,98,198.31c-.66.45,0,1.53.63,1.08Z" transform="translate(-32.39 -59)"/><path class="cls-8" d="M154.61,181.71a48.54,48.54,0,0,0,1.18,21.73c1.49,5.3,3.27,11.33,8.41,14.2.7.39,1.33-.69.63-1.08-5.07-2.83-6.7-9.15-8.09-14.38a46.59,46.59,0,0,1-.93-20.14c.14-.79-1.06-1.12-1.2-.33Z" transform="translate(-32.39 -59)"/><path class="cls-9" d="M122.67,197a10.53,10.53,0,0,0,6.55,11.37c5.24,2,8.87-.87,11.32-5.29a.63.63,0,0,0-1.08-.63c-.91,1.65-1.87,3.47-3.54,4.48a7.41,7.41,0,0,1-6.91,0,9.36,9.36,0,0,1-5.1-9.93c.11-.79-1.14-.79-1.24,0Z" transform="translate(-32.39 -59)"/><path class="cls-9" d="M94.11,256c-1.37-4.1,4.16-6.32,6.8-8.25a55.22,55.22,0,0,0,16.39-19.1c.37-.71-.7-1.34-1.07-.63a54.82,54.82,0,0,1-12.9,16.24c-2.46,2.1-5.22,3.67-7.77,5.62-2.09,1.59-3.55,3.78-2.66,6.45.26.76,1.46.43,1.21-.33Z" transform="translate(-32.39 -59)"/><path class="cls-9" d="M118.49,220.62a5.58,5.58,0,0,1-1,3.34c-.45.67.63,1.3,1.08.63a6.81,6.81,0,0,0,1.16-4,.63.63,0,0,0-1.25,0Z" transform="translate(-32.39 -59)"/><path class="cls-5" d="M128.47,268.18c6.26,13.64,2.57,29-4.81,41.39-1.29,2.18-3.74,4.61-3.86,7.26-.12,2.93,1.36,6.2,1.81,9.1,1.11,7.19.37,15-5.1,20.35a.62.62,0,0,0,.27,1,7,7,0,0,1,4.94,7.46.63.63,0,0,0,.94.54,19.43,19.43,0,0,1,20.56.69.65.65,0,0,0,.76-.09,15.1,15.1,0,0,1,17.42-1.56.63.63,0,0,0,.63-1.08,16.3,16.3,0,0,0-10-2.16,17.09,17.09,0,0,0-4.51,1.15c-1.41.59-3.21,2.45-4.58,2.06-1.66-.48-3.19-1.65-4.92-2.13a20.85,20.85,0,0,0-5.32-.77A20.57,20.57,0,0,0,122,354.24l.93.54a8.21,8.21,0,0,0-5.85-8.66c.09.35.19.69.28,1,4.64-4.51,6.24-11,5.89-17.29a72.48,72.48,0,0,0-1.9-11c-.52-2.52.44-4,1.75-6q1.55-2.39,2.91-4.87c6.75-12.34,9.55-27.18,3.51-40.37-.33-.73-1.41-.1-1.08.63Z" transform="translate(-32.39 -59)"/><path class="cls-10" d="M93.55,324.39c-3.17-3.67-6.36-7.61-5.81-12.77.09-.8-1.16-.8-1.24,0-.59,5.46,2.8,9.75,6.17,13.65.52.61,1.4-.28.88-.88Z" transform="translate(-32.39 -59)"/><path class="cls-10" d="M93,324.59C91.63,336,90.84,347.73,98,357.47c.47.64,1.55,0,1.08-.63-7.06-9.57-6.21-21.06-4.89-32.25.09-.79-1.15-.79-1.25,0Z" transform="translate(-32.39 -59)"/><path class="cls-10" d="M105.38,365.29a24.26,24.26,0,0,0,5.94,5.5,36.37,36.37,0,0,0,8.2,3c2.52.73,5.21,1.7,7.87,1.25s7.41-3.27,9.93-1.3c.63.49,1.52-.39.88-.88-1.7-1.33-3.59-1-5.59-.54-3.49.74-6.16,2-9.8,1.09a68.61,68.61,0,0,1-8.79-2.69c-3.26-1.29-5.52-3.68-7.76-6.28-.53-.61-1.41.28-.88.88Z" transform="translate(-32.39 -59)"/><path class="cls-10" d="M87.85,318.4a77.4,77.4,0,0,1-13.2,13.26.65.65,0,0,0-.1.76,23.7,23.7,0,0,1,1.9,17.13.63.63,0,0,0,1.21.33,25.07,25.07,0,0,0,.77-8.75c-.26-2.82-1.4-5.18-2.07-7.86-.27-1.11-.42-.84.51-1.79.49-.5,1.1-.91,1.63-1.37q1.77-1.53,3.45-3.18a76.89,76.89,0,0,0,6.79-7.64c.48-.63-.39-1.52-.89-.89Z" transform="translate(-32.39 -59)"/><path class="cls-10" d="M77.69,351.3c19,2.76,23.08,33.31,44.29,30.09.79-.13.46-1.33-.33-1.21-11.11,1.69-18.59-8.38-24.55-16.08-4.9-6.33-10.72-12.79-19.07-14-.79-.12-1.13,1.08-.34,1.2Z" transform="translate(-32.39 -59)"/><path class="cls-10" d="M104.14,263.42c-2.74-5.58-8.64-11.88-15.3-12.17-3-.13-5.38,1.54-7.68,3.31a11.9,11.9,0,0,1-4.58,2.6c-2.65.55-5.28-.83-7.57-2-1.43-.72-2.69,1.43-1.26,2.15,2.92,1.46,6.15,3,9.49,2.23,2.78-.63,4.77-2.71,7-4.26,7-4.74,14.79,3.42,17.71,9.37.7,1.44,2.86.17,2.15-1.26Z" transform="translate(-32.39 -59)"/><path class="cls-10" d="M114.73,265.42a5.06,5.06,0,0,0-7.62.09c-3,3.25-3.65,7.92-5.84,11.61-1.17,1.95-2.91,3.93-5.19,4.53s-4.76-.77-7.13-1.1a7.85,7.85,0,0,0-8,4.22c-.75,1.42,1.4,2.68,2.16,1.26a5.33,5.33,0,0,1,4.35-3c2.07-.17,4,.94,6,1.23a8.69,8.69,0,0,0,6.93-2.17,18.36,18.36,0,0,0,4.72-7.24c1-2.37,4-11.73,7.84-7.62,1.11,1.17,2.87-.6,1.77-1.77Z" transform="translate(-32.39 -59)"/><path class="cls-5" d="M123.65,266.92a38.22,38.22,0,0,1-4.88,38.47c-1.88,2.47-3.53,4.93-3.6,8.14-.08,3.82.93,7.71,1.13,11.53.4,7.68-.82,15.73-6.29,21.52a1.25,1.25,0,0,0,.55,2.08,10,10,0,0,1,7,10.16c-.1,1.61,2.4,1.6,2.49,0a12.43,12.43,0,0,0-8.86-12.56l.55,2.08c5.1-5.4,7-12.69,7.1-20,0-4.41-.73-8.69-1.11-13.06-.4-4.57,2.14-7.06,4.56-10.54a40.52,40.52,0,0,0,3.48-39.1c-.65-1.46-2.8-.2-2.15,1.26Z" transform="translate(-32.39 -59)"/><path class="cls-5" d="M120.27,360.21a25,25,0,0,1,24.75,4c1.22,1,3-.73,1.76-1.76a27.49,27.49,0,0,0-27.17-4.68c-1.49.57-.85,3,.66,2.41Z" transform="translate(-32.39 -59)"/><path class="cls-5" d="M147.72,363.49c.74-2.22,3.45-2.75,5.49-3.08a22.69,22.69,0,0,1,9.25.16,1.25,1.25,0,0,0,.66-2.41,25.48,25.48,0,0,0-11.81.08c-2.66.6-5.08,1.87-6,4.59-.51,1.52,1.9,2.18,2.4.66Z" transform="translate(-32.39 -59)"/><path class="cls-5" d="M166.29,348.66c1.68,2.14,1.65,4.86,1.58,7.45-.07,2.81-.18,5.61-.28,8.42l-.26,7.92c-.07,2.35.52,6.33-1.38,8.06-.6.54.28,1.42.88.88,1.59-1.44,1.56-3.47,1.64-5.48.13-3.79.25-7.59.37-11.38.11-3.44.37-6.9.3-10.34a10.22,10.22,0,0,0-2-6.41c-.5-.63-1.37.25-.88.88Z" transform="translate(-32.39 -59)"/><path class="cls-5" d="M129.78,374.41c2.16,4.63.85,9.57.37,14.41-.44,4.6,1.17,10-1.79,14-.48.65.6,1.27,1.08.63,3.14-4.22,1.48-9.74,2-14.59.51-5.12,1.73-10.16-.55-15-.33-.73-1.41-.09-1.07.63Z" transform="translate(-32.39 -59)"/><path class="cls-4" d="M344.88,157.92a92.07,92.07,0,0,0-5.25-23.81c-2-.05-4-.16-5.95-.28.22,1.5.31,3,.38,4.55.12,2.73.24,5.47.52,8.19.66,6.32,1.4,12.63,2.13,18.94a5.09,5.09,0,0,1-.55,3c-2.32,4.72-4.27,9.62-6.92,14.18a22,22,0,0,0-1.14,2.63,1.82,1.82,0,0,0,.1.59,116.29,116.29,0,0,1,5.8,10.63c.05.11.2.18.3.26a16.39,16.39,0,0,0,3.82-5.52c1.68-3.44,3.09-7,4.44-10.59a43.8,43.8,0,0,0,2.95-12.11A59.94,59.94,0,0,0,344.88,157.92Z" transform="translate(-32.39 -59)"/><path class="cls-11" d="M374.74,317.34c-.67-5.93-3.66-12.06-10.19-12.95a16.36,16.36,0,0,0-10.39,2.54c-7.18,4.29-18.81,18-25.88,5.9-2.41-4.12-3.6-9.16-4.6-13.77-2.26-10.38-4.29-20.81-6.83-31.13-.36-1-.7-2-1-3a179,179,0,0,1-25.42,2.47,66.86,66.86,0,0,1-23.44-3.3c-1.37-.44-2.75-.81-4.13-1.22-11.66,14.36-19.6,30.61-28.07,46.91-7.69,14.79-19.41,26.89-28.58,40.71-8.11,12.24-18.17,30.87-7.55,44.6a46.21,46.21,0,0,0,4.6,4.89,21.9,21.9,0,0,0,5.87,3.61c1,.16,2,.38,3,.45,10.18.7,18.08-3.71,24.21-11.39a71.35,71.35,0,0,0,9.45-16.28c4.69-10.72,8.57-21.76,12.82-32.65a78.27,78.27,0,0,1,11.53-20.47,19.08,19.08,0,0,1,6.06-5.11c6.28-3.35,11.37,1,13.65,6.8,4.72,11.92,8.5,24.49,17.77,33.86,5.23,5.29,12.25,9.15,19.69,9.35,15.65.4,31.93-13.84,41.24-25.21C372.55,338.09,375.79,326.55,374.74,317.34Z" transform="translate(-32.39 -59)"/><path class="cls-12" d="M324.34,184.16a8.65,8.65,0,0,0-.67.61,37.39,37.39,0,0,1-3,2.8,48.85,48.85,0,0,0-6.42,6.28,2.36,2.36,0,0,1-2,.81c-2.45.06-4.91.09-7.35.3-1.36.11-3.55-1.18-4.34.28-.09.17.34,1.34.09,1.43a5.61,5.61,0,0,1-5.9,5.44c-3.06,0-5.12-2.31-5.24-5.78-.43-.9-1.19-1-2.07-.86-3.8.53-7.63.16-11.43.4-2.41.15-4.84-2.32-6.54-3.76-3.5-3-6.78-3.74-10.47-6.43-.37-.27-.7-.7-1.4-.43-.58,2.29-1.19,4.66-1.79,7l-2.46,12.64c-.55,1.86.35,3.13,1.74,4.18.61.45,1.21.89,1.83,1.31a35.5,35.5,0,0,0,10.61,4.78,1.66,1.66,0,0,1,1.44,2c-.17,3.21-.36,6.42-.81,9.6-.8,5.62-1.68,11.22-3.72,16.57-1.85,4.84-3.37,9.81-5.69,14.48-.88,1.77-.48,2.73,1.28,3.69.89.49,1.82.92,2.73,1.37,1.38.41,2.76.78,4.13,1.22a66.86,66.86,0,0,0,23.44,3.3,170.35,170.35,0,0,0,27.31-2.84c4.69-2.27,5.11-3.24,3.82-8.36a84.67,84.67,0,0,1-2.78-18c-.2-6.64.37-13.25.38-19.88a3.17,3.17,0,0,1,2.11-3.27,31.86,31.86,0,0,0,5.48-3.17c3.55-2.68,5.74-6.35,7.75-10.19a4.66,4.66,0,0,0,.55-3.62A162.05,162.05,0,0,0,324.34,184.16Z" transform="translate(-32.39 -59)"/><path class="cls-4" d="M253.65,189.9a74.21,74.21,0,0,0-6-7c-1.8-1.88-3.39-3.94-5.07-5.92a4.49,4.49,0,0,1-1.19-2.76c-.19-4.86-1.2-9.62-1.62-14.46-.47-5.37-1.32-10.72-2.05-16.06a32,32,0,0,1,.63-8.79c-1.82.69-4.21,4.67-6,4.29a7.08,7.08,0,0,1-.11,1.7c-1.07,5.92-2.21,11.83-2.82,17.83-.66,6.48-.34,12.84,2.32,18.9,1.37,3.13,2.8,6.24,4.23,9.35a12.93,12.93,0,0,0,1.15,1.93c4.37,6.42,10,11.52,16.3,16l2.46-12.64A8,8,0,0,1,253.65,189.9Z" transform="translate(-32.39 -59)"/><path class="cls-4" d="M300.72,196.67a5.61,5.61,0,0,1-5.9,5.44c-3.06,0-5.12-2.31-5.24-5.78a5.12,5.12,0,0,0,2.69-5.41,1.54,1.54,0,0,0-.82-1.08,8,8,0,0,1-2.58-2.58c-.76-1.2-1.1-2.66-3-2.87-1-.11-1.39-1.42-1.36-2.49,0-1.38.47-2.56,2-2.93,1,.65,1.7.41,2-.72a1.54,1.54,0,0,1,1.76-1.31c.6,0,1.2-.29,1.81-.32a5.47,5.47,0,0,0,5.45-4.14c0-.09.22-.13.39-.22a3.42,3.42,0,0,1,1.82,2.74c.31,1.47.5,3,.82,4.43.41,1.86,1,2.14,2.91,1.61,1.54.85,1.67,2.22,1.25,3.69a2.69,2.69,0,0,1-2.86,2.14,1.58,1.58,0,0,0-1.64.92,11.09,11.09,0,0,1-.7,1c-.48.7-1.56,1-1.42,2.1a8.09,8.09,0,0,0,1.4,4.41C299.9,195.76,300.31,196.21,300.72,196.67Z" transform="translate(-32.39 -59)"/><path class="cls-13" d="M198.63,395.13a46.21,46.21,0,0,0,4.6,4.89,21.9,21.9,0,0,0,5.87,3.61,1,1,0,0,0-.85,1,26,26,0,0,1-.41,3.05c-.87,4.13-3.54,5.81-7.52,3.93-2.22-1.05-3.77-2.94-5.53-4.53a25.52,25.52,0,0,0-6.22-4.28,33.4,33.4,0,0,1-5.71-3.21,6.68,6.68,0,0,1-2-2,3.2,3.2,0,0,1,2.44-4.91,8.64,8.64,0,0,1,2.86.17c3.27.71,6.55,1.36,9.82,2.07A14.77,14.77,0,0,0,198.63,395.13Z" transform="translate(-32.39 -59)"/><path class="cls-13" d="M374.19,317.4c-.31-1.46-.54-2.93-.93-4.37-1.46-5.53-4.64-8.75-10.66-8.77a5.74,5.74,0,0,1-.8-.12,8.27,8.27,0,0,1,7.43-3.45,10.92,10.92,0,0,1,5.37,1.85c1.48,1,2.88,2,4.3,3.13,2.51,1.91,5.45,3.1,8.18,4.65a14.68,14.68,0,0,1,3.07,2c2.22,2.11,2.21,4.36-.14,6.3a6.62,6.62,0,0,1-5.55,1.45A43.91,43.91,0,0,1,374.19,317.4Z" transform="translate(-32.39 -59)"/><path class="cls-4" d="M302.64,180.44a1.93,1.93,0,0,0-.71.16c-.1-5.92-3.42-10.67-7.51-10.67-3.68,0-6.73,3.83-7.39,8.89a2.47,2.47,0,0,0-.38,0c-1.36,0-2.46,1.56-2.46,3.49s1.1,3.5,2.46,3.5a1.79,1.79,0,0,0,1-.28c1,4.36,3.8,6.34,6.82,6.34,2.67,0,5-2,6.35-5.09a2.31,2.31,0,0,0,1.87,1.13c1.44,0,2.61-1.66,2.61-3.71S304.08,180.44,302.64,180.44Z" transform="translate(-32.39 -59)"/><path class="cls-12" d="M303.43,180.66a2,2,0,0,0-2.27,1,49.12,49.12,0,0,1-1.24-6.35,4.42,4.42,0,0,1-3.78,2,12.71,12.71,0,0,1-4.36-.89,3.86,3.86,0,0,1-.66,3,2.81,2.81,0,0,1-5-.63,4,4,0,0,1,0-2.94,4.39,4.39,0,0,1-3.46-2.46,6.18,6.18,0,0,1-.31-4.34,3.37,3.37,0,0,1,.69-1.39,4.12,4.12,0,0,1,2.74-1,4.54,4.54,0,0,1-1.78-4.65,4.65,4.65,0,0,1,3.71-3.43,3.41,3.41,0,0,1,2,.22,2.35,2.35,0,0,1,1.3,1.46,12.67,12.67,0,0,1-.54-3.6,5,5,0,0,1,1.18-3.22,4.91,4.91,0,0,1,2.69-1.42,6.49,6.49,0,0,1,6.62,3c1.39,2.37,1.11,5.33.64,8-.28,1.65-.62,3.29-1,4.92a1.49,1.49,0,0,1,2.18-.37,3.81,3.81,0,0,1,1.29,2.18A16.62,16.62,0,0,1,303.43,180.66Z" transform="translate(-32.39 -59)"/><path class="cls-4" d="M346.61,127.54c-.67-.89-4.34,2.3-4.34,2.3s4.52-4.46,4.14-5.22c-.61-1.2-5.68,3.95-5.68,3.95s5.37-5.75,4.18-6.61-5.87,5.43-5.87,5.43,4-6.19,2.88-6.74-6,7.62-6,7.62-.72-4.77-1.7-4.68c-1.65.14-.55,10.33-.55,10.33l4.33,3.57S347.28,128.42,346.61,127.54Z" transform="translate(-32.39 -59)"/><path class="cls-4" d="M225.32,131.63c.76-.82,4.09,2.73,4.09,2.73s-4-4.9-3.59-5.61c.73-1.13,5.25,4.5,5.25,4.5s-4.76-6.26-3.49-7,5.29,6,5.29,6-3.38-6.56-2.18-7,5.23,8.2,5.23,8.2,1.2-4.67,2.17-4.49c1.63.31-.5,10.33-.5,10.33l-4.67,3.12S224.57,132.44,225.32,131.63Z" transform="translate(-32.39 -59)"/><path class="cls-14" d="M255.55,183.38a154.27,154.27,0,0,1-5.84,23.28c-1,3.05,3.79,4.36,4.81,1.33a154.39,154.39,0,0,0,5.84-23.29c.54-3.13-4.27-4.48-4.81-1.32Z" transform="translate(-32.39 -59)"/><path class="cls-14" d="M322.9,183.18q5.6,8.94,11.2,17.87l3.91-3-.48-.46c-2.3-2.25-5.82,1.28-3.52,3.52l.48.47c2,1.93,5.45-.57,3.91-3q-5.59-8.94-11.2-17.88c-1.7-2.71-6-.21-4.3,2.52Z" transform="translate(-32.39 -59)"/><path class="cls-7" d="M296.29,185.38a2.84,2.84,0,0,1-5.65-.28Z" transform="translate(-32.39 -59)"/><path class="cls-14" d="M292.47,232.29a68.15,68.15,0,0,1-14.06,12.47c-1.33.88-.08,3,1.26,2.15a70.24,70.24,0,0,0,14.56-12.86c1-1.21-.72-3-1.76-1.76Z" transform="translate(-32.39 -59)"/><path class="cls-14" d="M303.38,220.69a47.76,47.76,0,0,1-4.87,5.67,1.25,1.25,0,0,0,1.76,1.76,50.14,50.14,0,0,0,5.27-6.18c.94-1.3-1.22-2.54-2.16-1.25Z" transform="translate(-32.39 -59)"/><path class="cls-2" d="M275,266.48c-6.38,13-5.82,29.43-4.88,43.53.06.79,1.3.8,1.25,0-.93-13.85-1.55-30.16,4.71-42.9.35-.71-.72-1.35-1.08-.63Z" transform="translate(-32.39 -59)"/><path class="cls-2" d="M282,267.68c-3.3,14.85-3.16,30.25-.67,45.21.13.79,1.33.46,1.2-.33-2.45-14.73-2.58-29.92.67-44.55.18-.78-1-1.11-1.2-.33Z" transform="translate(-32.39 -59)"/><path class="cls-2" d="M267,311.25c7.76-.83,14.79.2,19.41,7,2.94,4.32,4.56,9.42,5.8,14.45a.63.63,0,0,0,1.21-.33c-1.47-5.9-3.49-12.12-7.5-16.84-4.86-5.72-11.8-6.31-18.92-5.55-.79.09-.8,1.33,0,1.25Z" transform="translate(-32.39 -59)"/><path class="cls-2" d="M298.43,268.39c4,8.81,11.35,23.94,23.57,20.31a.62.62,0,0,0-.33-1.2c-11.56,3.43-18.41-11.4-22.17-19.74-.32-.73-1.4-.09-1.07.63Z" transform="translate(-32.39 -59)"/><path class="cls-2" d="M269,265.36c-2.32,4.44-4.67,9-8.24,12.59a19.66,19.66,0,0,1-6.29,4.35c-1.92.82-4,.91-5.79,2a.62.62,0,0,0,.63,1.07c2-1.2,4.68-1.31,6.83-2.4a22.33,22.33,0,0,0,5.5-4.11c3.64-3.66,6.07-8.3,8.44-12.84.37-.71-.71-1.34-1.08-.63Z" transform="translate(-32.39 -59)"/><path class="cls-2" d="M274.35,311.61c-14.29,11.6-22.53,28.08-30,44.51-4.18,9.15-8.4,18.48-14.76,26.36C223,390.56,212.18,399.82,201,397.3c-.78-.18-1.11,1-.33,1.2,18.68,4.23,33.27-18.12,40.16-32.05,9.56-19.34,17.09-39.93,34.38-54,.63-.5-.26-1.38-.88-.88Z" transform="translate(-32.39 -59)"/><path class="cls-2" d="M315.43,288.65q1.56,8.07,3.13,16.15c.64,3.26.63,9.61,2.71,12.24s6.31,3.71,8.77,5.89c4.16,3.69,7,8.39,7.27,14,0,.8,1.29.81,1.25,0-.4-7.3-4.73-13.11-10.6-17.19-2.1-1.45-5-2.36-6.16-4.82s-1.18-6-1.66-8.55l-3.51-18.05c-.15-.79-1.35-.46-1.2.33Z" transform="translate(-32.39 -59)"/><path class="cls-2" d="M337.45,330.14A82.07,82.07,0,0,1,355.18,315c6.67-4.19,17.3-10.89,24.38-4.16.59.55,1.47-.33.89-.88-6-5.66-13.91-2.57-20.26.73a82.75,82.75,0,0,0-23.62,18.57c-.53.6.34,1.49.88.89Z" transform="translate(-32.39 -59)"/><path class="cls-5" d="M180.38,395.92a73.18,73.18,0,0,1,15.91,8.7c3.43,2.51,6.35,6,10.87,5.91a.62.62,0,0,0,0-1.24c-4.87.07-10.55-6.16-14.59-8.66a77.48,77.48,0,0,0-11.85-5.91c-.75-.3-1.07.91-.34,1.2Z" transform="translate(-32.39 -59)"/><path class="cls-5" d="M189.59,391.12a26.25,26.25,0,0,1,1.37,6.14c.08.79,1.33.8,1.25,0a27.51,27.51,0,0,0-1.42-6.47c-.27-.76-1.47-.43-1.2.33Z" transform="translate(-32.39 -59)"/><path class="cls-5" d="M192.24,391.12a31.93,31.93,0,0,0,2.4,7.45c.34.73,1.42.1,1.08-.62a30.63,30.63,0,0,1-2.28-7.16c-.15-.79-1.35-.46-1.2.33Z" transform="translate(-32.39 -59)"/><path class="cls-5" d="M365.36,301.56c4.9.52,8.49,5.63,12.82,7.79s8.87,3.43,12.52,6.74c.6.54,1.48-.34.88-.88-4.1-3.71-9.33-4.95-14.06-7.6-4.26-2.4-7-6.75-12.16-7.3-.79-.09-.79,1.16,0,1.25Z" transform="translate(-32.39 -59)"/><path class="cls-5" d="M259.15,189.44a84.12,84.12,0,0,1,14,9.93c.6.53,1.49-.35.88-.88a85,85,0,0,0-14.23-10.12.62.62,0,0,0-.63,1.07Z" transform="translate(-32.39 -59)"/><path class="cls-5" d="M273.46,199.66a127.53,127.53,0,0,1,17.7.27c.8.06.79-1.18,0-1.25a126,126,0,0,0-17.7-.26c-.8,0-.81,1.29,0,1.24Z" transform="translate(-32.39 -59)"/><path class="cls-5" d="M259.74,186.77a57.25,57.25,0,0,1,13.48,9.3c.58.54,1.47-.34.88-.89a58.33,58.33,0,0,0-13.74-9.48c-.71-.36-1.34.71-.62,1.07Z" transform="translate(-32.39 -59)"/><path class="cls-5" d="M274,196.2h15.2a.63.63,0,0,0,0-1.25H274a.63.63,0,0,0,0,1.25Z" transform="translate(-32.39 -59)"/><path class="cls-5" d="M300.63,195.86q6.51-.27,13-.14c-.11-.39-.21-.78-.32-1.16l-.3.23c-.62.48,0,1.56.63,1.07l.3-.23a.63.63,0,0,0-.31-1.16q-6.51-.12-13,.14c-.8,0-.8,1.28,0,1.25Z" transform="translate(-32.39 -59)"/><path class="cls-5" d="M313.94,195.43a42.43,42.43,0,0,1,11.15-10.35c.68-.43.05-1.51-.63-1.08a44.19,44.19,0,0,0-11.6,10.8c-.48.64.6,1.26,1.08.63Z" transform="translate(-32.39 -59)"/><path class="cls-5" d="M300.14,199l15.21-1c.79,0,.8-1.29,0-1.24l-15.21.94c-.8,0-.81,1.3,0,1.25Z" transform="translate(-32.39 -59)"/><path class="cls-5" d="M315.1,198.06a41.94,41.94,0,0,1,12-10.13c.7-.39.07-1.47-.63-1.08a43,43,0,0,0-12.3,10.33c-.51.61.37,1.5.88.88Z" transform="translate(-32.39 -59)"/><path class="cls-5" d="M288.26,195.27c.44,1.95.15,4,1.77,5.44,1.36,1.23,3.38,1.47,5.14,1.49,5,.05,6.61-3.77,6.7-8.23a1.25,1.25,0,0,0-2.49,0,8.71,8.71,0,0,1-.69,4.11c-.86,1.56-2.61,1.71-4.2,1.6-1.26-.09-2.49-.28-3.15-1.43-.57-1-.43-2.52-.68-3.64-.35-1.56-2.75-.9-2.4.66Z" transform="translate(-32.39 -59)"/><path class="cls-5" d="M379.71,313.5v6.65a.62.62,0,0,0,1.24,0V313.5a.62.62,0,0,0-1.24,0Z" transform="translate(-32.39 -59)"/><path class="cls-5" d="M384.25,317.29a34,34,0,0,0-.65,3.49c-.11.78,1.09,1.12,1.2.33.16-1.18.38-2.34.65-3.49.19-.78-1-1.11-1.2-.33Z" transform="translate(-32.39 -59)"/><path class="cls-11" d="M459.29,174.73a19.05,19.05,0,0,1-7-5.51,17,17,0,0,1-3.75-11.85,7.94,7.94,0,0,1,7.15-7.53,11.92,11.92,0,0,1,6.61,1c1.25.56,2.51,1.09,3.73,1.71a4.29,4.29,0,0,0,4.8-.57,12.77,12.77,0,0,0,4.62-6.14c1-2.63,1.89-5.28,2.9-7.9a18.3,18.3,0,0,1,6-8.19c4.58-3.49,10.22-3.67,14.46-.45a10.06,10.06,0,0,1,3.77,5.48c.23.85.44,1.72.74,2.56a5.48,5.48,0,0,0,7,3.65,14.77,14.77,0,0,0,5.34-3,30.93,30.93,0,0,0,3.68-3.56,31.38,31.38,0,0,1,7.74-6.35c9-5.06,19.52-3.43,26.73,6,5.8,7.6,2.52,17.74-2.41,22.23a21.66,21.66,0,0,1-6.53,4.18c-4.76,1.93-9.53,3.82-14.28,5.74-.76.3-1.51.65-2.25,1-3.8,1.84-5.68,5-6.08,9.1-.24,2.45-.43,4.91-.72,7.35a17.51,17.51,0,0,1-6.84,12,9.4,9.4,0,0,1-11.79.46c-1.92-1.31-3.71-2.81-5.55-4.23a26.5,26.5,0,0,0-4.1-2.72c-1.95-1-2.8-.83-4.37.77-.72.73-1.39,1.51-2.15,2.19-3.13,2.79-6.72,2.7-9.73-.17a32.31,32.31,0,0,1-4.11-5.36c.94-1.23,1.85-2.33,3.62-2.6a3.25,3.25,0,0,0,2.63-3,2.11,2.11,0,0,0-1-2.3,1.62,1.62,0,0,0-2,.29.61.61,0,0,1-.89.08c-.86-1.41-.5-3,0-4.55.12-.38.28-.85-.05-1.15s-.76,0-1.06.26c-2.76,2.2-7.78.9-9.65-1.47a2,2,0,0,0-1.17-1,7.89,7.89,0,0,0-1.67,2.45C461.16,174.82,460.46,175.19,459.29,174.73Z" transform="translate(-32.39 -59)"/><path class="cls-4" d="M464.25,188.91a2.13,2.13,0,0,1-.14.37,27.69,27.69,0,0,1-3.2,5.22,2,2,0,0,1-2,.69c-4.87-.28-17.64,1.71-22.35,2.78,3.95,5,20.94,12.6,27.16,13.41,12.4,1.62,23.17-2.44,29.78-5.2a208.24,208.24,0,0,0-21-9.28,2.25,2.25,0,0,1-1.82-1.91c-.24-1.35-.61-2.66-.84-4a6.53,6.53,0,0,1-.17-2.08,10.67,10.67,0,0,0,4.64-3.93l.19-.14.05,0c1.59,1.23,4.09.65,5.59-1.29s1.42-4.51-.17-5.73a3.35,3.35,0,0,0-3.08-.46c.4-5.6-2.27-10.47-6.53-11.35-4.79-1-9.74,3.42-11.07,9.85C458.11,181.72,460.29,187.18,464.25,188.91Z" transform="translate(-32.39 -59)"/><path class="cls-11" d="M458.85,172.57a5.46,5.46,0,0,0,.91,1.76,4.31,4.31,0,0,0,3.12,1.16c2.51.09,5.28-1,6.25-3.3a3.68,3.68,0,0,0,4.73,4,3.68,3.68,0,0,0,2.06,5.16,7.34,7.34,0,0,1,5.9-6.76,31.91,31.91,0,0,0-3.31-11.45,12.51,12.51,0,0,0-2.7-3.77c-3.65-3.21-8.39-1.92-12.75-1.86-1.28,0-2.64,0-3.69.83-1.51,1.25-2,3.71-2.08,5.54A22.41,22.41,0,0,0,458.85,172.57Z" transform="translate(-32.39 -59)"/><path class="cls-15" d="M411.78,378.35c2.5-.44,5-1,7.54-.27a3.43,3.43,0,0,0,.15.8c1.14,2.55.33,4.62-1.46,6.52a25.34,25.34,0,0,1-3.5,3.13,66.61,66.61,0,0,0-8.68,7.13,7.81,7.81,0,0,1-3.25,2.07,2.06,2.06,0,0,1-2.29-.42,2.39,2.39,0,0,1-.52-2.47,4.86,4.86,0,0,1,1.36-2c1.43-1.46,2.84-2.95,4.34-4.34C408.52,385.69,410.18,382,411.78,378.35Z" transform="translate(-32.39 -59)"/><path class="cls-16" d="M411.78,378.35c-2.07-.5-2.25-.67-2.49-2.42-1.16-8.46-9.61-55.38-5.07-72.13a30.18,30.18,0,0,1,4.9-10.1c2.21-3.05,16.72-18.41,20.81-22.36a99.77,99.77,0,0,0,9.91-11.21c.68,0,1.36-.07,2,0,3.42.12,6.83.42,10.25.38,8.34-.08,16.66.59,25,.87a6.23,6.23,0,0,1,1.19.28c2.52,5.63,4.67,11.36,4.93,17.63a43,43,0,0,1-.76,7.53,85.61,85.61,0,0,1-2.29,11.86c-.4,1.44-.18,1.71,1.37,1.47a68.68,68.68,0,0,0,6.85-1.23C495.6,297,503,295.83,510,293.26a8.35,8.35,0,0,0,1.86-.82,2.53,2.53,0,0,1,.93,1.53c.71,2.4,1.41,4.81,2.12,7.22a1.73,1.73,0,0,1-.91,1c-6.71,4.11-13.31,8.4-20.15,12.28s-13.35,8.09-20.73,10.76c-3.54,1.28-7.73,2.93-11.49,1.67-8.06-2.69-6.77-17.42-7.35-24.06-.27-3-1.1-11.11-1.76-12.14a6.74,6.74,0,0,0-2,1.52,287.63,287.63,0,0,1-25.18,20.07c-3.91,2.81-3.92,2.76-4,7.58-.31,13-.2,26,0,39,.1,5.73.18,11.48-.12,17.23-.09,1.66-.14,1.66-1.93,2C416.78,377.34,414.28,377.91,411.78,378.35Z" transform="translate(-32.39 -59)"/><path class="cls-17" d="M513.44,208.19a4.08,4.08,0,0,0-.89-.37,14.33,14.33,0,0,0-1.61-.32c-2.67-.54-5.35-1.05-8-1.62a54.11,54.11,0,0,1-10.28-3.55l-.12.09a46.34,46.34,0,0,1-33.31,6.82c-8.82-1.53-18.28-6-21.42-14.72h-.12c-.75,0-1.5-.16-2.25-.18a14.75,14.75,0,0,1-7.8-2.73c-2.75-1.79-5.3-3.84-7.9-5.84-2.2-1.7-3.19-1.4-4.2,1.22l-3,12.65c.05,1-1.63,10.59-1.82,14.42-.1,2.07.13,2.49,2.21,3a121.42,121.42,0,0,0,14.63,3.06c1.61.21,1.65.23,1.78,1.89,0,.67-.86,28-1.48,34.82-.17,1.86-.06,2,1.79,2.13,11.16,2.07,59,3.67,61.28,2.69,2-.11,2.84-1,3-2.88.28-2.85,1.85-23.37,1.86-24.46,0-.89.44-1.42,1.39-1.35,3.83.3,14.13-.44,15.6-2.63A133.32,133.32,0,0,1,513.44,208.19Z" transform="translate(-32.39 -59)"/><path class="cls-4" d="M405,180.31c-3.49-2.65-6.74-5.59-10.06-8.43-6-5.12-24.42-21.18-24.22-22-2.82,1.11-1.94,1.73-4.71,2.93,1.07,1.45,2,3,3.1,4.44,8.93,11.92,18.69,23.06,30.07,32.72,2,1.68,4.11,3.19,6,5a22.38,22.38,0,0,0,7.41,4.66l3-12.65A74.9,74.9,0,0,1,405,180.31Z" transform="translate(-32.39 -59)"/><path class="cls-4" d="M569.94,208.79a3,3,0,0,1-2.25,2,94.84,94.84,0,0,1-12.48,2.43c-5.9.82-11.86.9-17.8,1.22a101.11,101.11,0,0,1-15.37.08c-2.79-.27-5.57-.68-8.35-1a65.94,65.94,0,0,0-.39,12.72c.13,1.26,18.67.69,33.29-2.39a120.28,120.28,0,0,0,23.17-7.89A6.53,6.53,0,0,0,569.94,208.79Z" transform="translate(-32.39 -59)"/><path class="cls-15" d="M514.91,301.19c-.71-2.41-1.41-4.82-2.12-7.22a2.53,2.53,0,0,0-.93-1.53,22.49,22.49,0,0,1,1.23-2.57c1.61-2.51,4.1-2.7,6.14-.54a8,8,0,0,1,2.2,3.88c.75,3.77,3.21,6.39,5.81,8.92A22.24,22.24,0,0,1,530.6,306a4.49,4.49,0,0,1,.75,3.31,2.13,2.13,0,0,1-2.8,1.9,3.77,3.77,0,0,1-2.22-1.38,20.27,20.27,0,0,1-1.56-2.15,9.37,9.37,0,0,0-3.29-3.3C519.38,303.1,517.47,301.47,514.91,301.19Z" transform="translate(-32.39 -59)"/><path class="cls-18" d="M512.39,207.11a147.73,147.73,0,0,0-1.39,24c.07,2.75,4.35,2.76,4.28,0a141.54,141.54,0,0,1,1.23-22.82c.38-2.69-3.75-3.86-4.12-1.14Z" transform="translate(-32.39 -59)"/><path class="cls-18" d="M415.27,182.15a148.83,148.83,0,0,0-6,34.65c-.15,2.75,4.13,2.75,4.27,0a144.38,144.38,0,0,1,5.81-33.51c.79-2.65-3.34-3.78-4.12-1.14Z" transform="translate(-32.39 -59)"/><path class="cls-4" d="M358.87,143.37c.72-.83,4.13,2.58,4.13,2.58s-4.16-4.73-3.73-5.45c.69-1.15,5.34,4.31,5.34,4.31S359.7,138.74,361,138s5.42,5.79,5.42,5.79-3.55-6.41-2.37-6.88,5.43,8,5.43,8,1.05-4.67,2-4.52c1.63.26-.18,10.26-.18,10.26l-4.54,3.23S358.14,144.2,358.87,143.37Z" transform="translate(-32.39 -59)"/><path class="cls-4" d="M583.12,206.93c-.6-.93-4.46,2-4.46,2s4.79-4.09,4.46-4.87c-.51-1.23-5.89,3.5-5.89,3.5s5.72-5.3,4.6-6.24-6.19,5-6.19,5,4.42-5.84,3.32-6.47-6.51,7.11-6.51,7.11-.37-4.76-1.35-4.75c-1.65,0-1.28,10.18-1.28,10.18l-.06,3.61S583.72,207.86,583.12,206.93Z" transform="translate(-32.39 -59)"/><path class="cls-14" d="M473.3,192.52a16.29,16.29,0,0,0-3.38-1.26c.1.55.28,1.33.28,1.33l.42.12a6.51,6.51,0,0,1,4,10.12c-2,2.79-6.12,3.55-8.91,5.35-5.86,3.76-9.62,12.57-17,13.57-8.59,1.16-14.88-9.63-14.5-17.09a12.43,12.43,0,0,1,5.12-9.48c3.33-2.37,6.87-1.91,10.63-1.15,2.82.57,5.81,1.1,8.39-.52a21.4,21.4,0,0,1,2.64-1.78,5.34,5.34,0,0,1,2.15-.44c.21-.42.42-.84.62-1.26a6.58,6.58,0,0,0-3.68.65c-2.2,1.21-3.43,2.78-6.21,2.69-2.31-.08-4.53-.84-6.8-1.15-7.83-1.06-14.11,5.5-14.13,13.16,0,7.45,5.77,17.21,13.94,17.7,4.09.24,7.65-2.23,10.4-5,3.58-3.63,6.45-7.62,11.11-10,3.79-1.93,8-3.22,8.63-8.1A7.57,7.57,0,0,0,473.3,192.52Z" transform="translate(-32.39 -59)"/><path class="cls-14" d="M478.5,185.26a1.83,1.83,0,1,1-1.7-2A1.84,1.84,0,0,1,478.5,185.26Z" transform="translate(-32.39 -59)"/><path class="cls-7" d="M468.54,183.46a2.84,2.84,0,0,1-5.61-.69Z" transform="translate(-32.39 -59)"/><path class="cls-19" d="M474,262.22c4.27,7,3.45,15.93,3.35,23.84A108.57,108.57,0,0,1,474.4,312a.62.62,0,0,0,1.2.34c2.37-9.23,2.93-18.65,3-28.14,0-7.65.59-15.8-3.53-22.58a.63.63,0,0,0-1.08.63Z" transform="translate(-32.39 -59)"/><path class="cls-19" d="M475.94,309.13q19.44-4.74,38.56-10.7c.76-.24.44-1.44-.33-1.2q-19.12,6-38.56,10.7c-.78.19-.45,1.39.33,1.2Z" transform="translate(-32.39 -59)"/><path class="cls-19" d="M453.31,292.38a44.07,44.07,0,0,0-3.64-11.72c-.34-.73-1.41-.1-1.07.63a43,43,0,0,1,3.5,11.42c.13.79,1.33.45,1.21-.33Z" transform="translate(-32.39 -59)"/><path class="cls-19" d="M451.17,287.23c-5.45,3.72-11.08,7.16-16.5,10.93-5.6,3.91-13.9,8.37-16.87,14.81-2.4,5.23-1.21,12.63-1.14,18.19q.31,23.31.61,46.63a.63.63,0,0,0,1.25,0L418,334.57c-.06-5.14-.37-10.35-.2-15.5.34-9.93,11.54-15.7,18.87-20.74,5-3.44,10.17-6.6,15.17-10,.66-.45,0-1.53-.62-1.07Z" transform="translate(-32.39 -59)"/><line class="cls-20" x1="367.9" y1="338.31" x2="387.64" y2="321.86"/><path class="cls-14" d="M514.82,288.68c3.29,2.64,3.63,7.35,5.89,10.78,2.09,3.15,8.88,7,8.66,11,0,.8,1.21.8,1.25,0,.23-4.25-4.65-6.57-7.12-9.4-3.43-3.93-3.71-9.94-7.8-13.22-.62-.5-1.51.38-.88.88Z" transform="translate(-32.39 -59)"/><path class="cls-4" d="M590.4,110.12c1-.45,2.67,4.07,2.67,4.07s-1.8-6-1.1-6.51c1.1-.75,3,6.15,3,6.15s-1.92-7.57-.47-7.74,2.51,7.52,2.51,7.52-.54-7.3.72-7.24,1.6,9.52,1.6,9.52,2.91-3.8,3.72-3.26c1.37.91-4.46,9.24-4.46,9.24l-5.48,1S589.39,110.57,590.4,110.12Z" transform="translate(-32.39 -59)"/><path class="cls-4" d="M719.78,167.34c-.77-.79-4,2.81-4,2.81s3.9-5,3.43-5.65c-.75-1.11-5.1,4.59-5.1,4.59s4.58-6.32,3.29-7-5.1,6.07-5.1,6.07,3.2-6.59,2-7-5,8.25-5,8.25-1.3-4.6-2.25-4.4c-1.61.35.73,10.24.73,10.24l4.71,3S720.55,168.13,719.78,167.34Z" transform="translate(-32.39 -59)"/><path class="cls-11" d="M712.64,176.82c-2.41-1.65-4.74-3.42-7.07-5.19-.1.16-.21.33-.32.53a183.14,183.14,0,0,1-12.34,18.63c-1.21,1.56-2.22,3.28-3.53,4.78-1.06,1.22-1.07,1.22-2.09,0a83.17,83.17,0,0,1-6.38-9.3,47.65,47.65,0,0,0-7.83-10,26.55,26.55,0,0,0-15.79-7.58,59.47,59.47,0,0,0-10.25,0c-.6,2.51-1.12,5.05-2.9,7.08a6,6,0,0,1-7.92,1.25,8.69,8.69,0,0,1-4-6.13c-.15-.66-.25-1.33-.37-2-3.34-.16-6.67-.62-10-.52a3.52,3.52,0,0,1-1.91-.64,59.83,59.83,0,0,0-10.24-4.66c-4.8-1.68-9-4.64-13.56-6.73-.7-.32-.77-.78-.64-1.49,1.09-5.77,2.11-11.55,3.2-17.32s2.65-11.44,3.6-17.25c0-.13,0-.25.05-.37-4-.29-8-.54-12-1.06-.09.16-.17.33-.25.51-2.3,5.42-4.45,10.88-6.24,16.49-1.6,5-3.27,10-5.11,14.94A56.84,56.84,0,0,0,576,160a10.1,10.1,0,0,0,.62,6,32.49,32.49,0,0,0,5.46,8.15c5.82,6.79,12.21,12,19.3,17.4a14.32,14.32,0,0,1,2.87,2.62c3.3,4.36,3.15,14.62,3.62,20.06.49,5.76-5,10.76-5.86,16.31a15.51,15.51,0,0,0,2.11,10.1,27.52,27.52,0,0,0,8.21,8.83A38.38,38.38,0,0,0,628.92,255a41.55,41.55,0,0,0,10,0c5.61-.8,10.23-3.65,14.52-7.16.42-.34.83-.7,1.24-1.06.74-1,1.53-1.93,2.2-3a18.87,18.87,0,0,0,2.83-13.34c-1-7-.32-14,.43-21a2.42,2.42,0,0,1,1.7-2.31c1.06-.36,1.47.53,2,1.06q6.09,6,12.6,11.44a34,34,0,0,0,7.21,4.65,7.35,7.35,0,0,0,7.74-.72,12.34,12.34,0,0,0,3.78-4.25c2.72-4.66,5.53-9.27,7.86-14.14,2.45-5.12,5.08-10.14,7.54-15.24a46.72,46.72,0,0,0,4.09-11.81C714,177.68,713.3,177.27,712.64,176.82Z" transform="translate(-32.39 -59)"/><path class="cls-12" d="M612.34,249.49A38.38,38.38,0,0,0,628.92,255a41.55,41.55,0,0,0,10,0c5.61-.8,10.23-3.65,14.52-7.16.42-.34.83-.7,1.24-1.06,1.87,3.63,4.09,7.07,5.11,11.12,2.44,9.65.71,18.39-5.53,26.19a103,103,0,0,1-16.55,16.71,15.82,15.82,0,0,0-1.57,1.6,2.35,2.35,0,0,0-1.25.64c-1.59,1.29-3.15,2.61-4.81,3.81-5.08,3.69-10.08,7.5-15.59,10.56-2,1.12-2,1.23-.64,3.27,2.42,3.72,5,7.33,7.26,11.16a65.94,65.94,0,0,1,5.47,7.42c2.31,3.47,4.45,7.06,6.77,10.52.81,1.21,1.14,2.27.23,3.5a58.34,58.34,0,0,0-5.7,7.82,13.08,13.08,0,0,0-2.16,2.7c-.49.65-.92.7-1.5.18-1.83-1.65-3.66-3.28-5.5-4.91a33.24,33.24,0,0,0-3.93-3.27l-11.43-9.27c-3.71-3-7.39-6-11.15-9-2.52-2-4.72-4.35-7.47-6-2.52-2.51-5-5-7.55-7.53a40.64,40.64,0,0,1-4.75-5.64c-3-4.29-3-7.62.09-11.82A106.65,106.65,0,0,1,583.81,294c2.41-2.34,4.81-4.68,7.06-7.17,5.46-6,11.2-11.81,16.83-17.7a3.5,3.5,0,0,0,1.11-2.68A45.79,45.79,0,0,1,612.34,249.49Z" transform="translate(-32.39 -59)"/><path class="cls-21" d="M584.77,331.48c2.75,1.68,5,4.06,7.47,6,3.76,2.94,7.44,6,11.15,9l11.43,9.27a37,37,0,0,0,1.44,7c1.89,7.67,3.72,15.36,5.28,23.1.3,1.51.24,1.53-1.15,2-.77.27-1.56.51-2.33.76l-9.68,3c-.89.34-1.77.69-2.67,1-1.69.61-1.7.61-2.34-1-1.24-3.1-2.43-6.23-3.7-9.33-2.63-6.44-5.26-12.89-8-19.3a238.77,238.77,0,0,1-7.94-23A10.6,10.6,0,0,1,584.77,331.48Z" transform="translate(-32.39 -59)"/><path class="cls-21" d="M621.14,331.8c-2.26-3.83-4.84-7.44-7.26-11.16-1.33-2-1.38-2.15.64-3.27,5.51-3.06,10.51-6.87,15.59-10.56,1.66-1.2,3.22-2.52,4.81-3.81a2.35,2.35,0,0,1,1.25-.64c-1.46,2.92-2.89,5.86-4.39,8.75-3.25,6.22-6.53,12.42-9.79,18.63A4.69,4.69,0,0,0,621.14,331.8Z" transform="translate(-32.39 -59)"/><path class="cls-16" d="M608.38,391.62l9.68-3c.09.88.17,1.76.27,2.64a6,6,0,0,1-1.79,5.44c-4.44,4-8.6,8.41-13.39,12.07a5.72,5.72,0,0,1-1.92,1.15c-1.34.37-2.16-.27-2.07-1.67a8.87,8.87,0,0,1,2-4.63,19.34,19.34,0,0,1,2.47-2.73c2.56-2.36,3.57-5.61,5-8.59C608.84,392,608.59,391.8,608.38,391.62Z" transform="translate(-32.39 -59)"/><path class="cls-16" d="M627.91,361.06a58.34,58.34,0,0,1,5.7-7.82,6.74,6.74,0,0,1,3.41,7.27c-.31,2.3-.53,4.6-.87,6.89a38.92,38.92,0,0,0-.39,6.73,7.21,7.21,0,0,1-.41,2.61,1.65,1.65,0,0,1-2.9.69,5.38,5.38,0,0,1-1.53-2.62,30.43,30.43,0,0,1-.84-4A51.58,51.58,0,0,0,627.91,361.06Z" transform="translate(-32.39 -59)"/><path class="cls-4" d="M647.65,147.56c-1.55-.29-3.09.89-3.71,2.7a3.81,3.81,0,0,1-.37-.27,5.25,5.25,0,0,1-1.76-2.31,4.83,4.83,0,0,1-.33-1.51c0-.57-.06-1.15-.08-1.89h0a4.77,4.77,0,0,0-1.75,1.23c-.15.15-.39-.39-.53-.24-2.12,2.13-4.14,2.39-7.4,2.61a3.94,3.94,0,0,1-1.18-.3c-.27-.23-.53-.44-.77-.66a13.44,13.44,0,0,0-.34,3,12.31,12.31,0,0,0,2,6.87l.06.09a7.75,7.75,0,0,0,4.5,3.28,2.24,2.24,0,0,1,.38,1.79c-.05.41,0,.83-.06,1.22-.43,2.38-1.21,4.48-3.95,5.07-.3.06-.34.39-.47.62.12.67.22,1.34.37,2a8.69,8.69,0,0,0,4,6.13,6,6,0,0,0,7.92-1.25c1.78-2,2.3-4.57,2.9-7.08a11.06,11.06,0,0,1-5.36-9.14c0-.27-.07-.54-.07-.8a9.93,9.93,0,0,0,2.91-4.24,2.67,2.67,0,0,0,1.63,1c1.74.33,3.49-1.2,3.9-3.4S649.39,147.89,647.65,147.56Z" transform="translate(-32.39 -59)"/><path class="cls-6" d="M649.29,126.86a5.81,5.81,0,0,0-6.73-.77,6,6,0,0,0-3.57,5.74,16.24,16.24,0,0,0,.37,3.22,13.36,13.36,0,0,0-4.61-1.58,9.51,9.51,0,0,0-7.39,1.94,7.06,7.06,0,0,0-2.39,7.05c.76,2.78,3.36,4.42,6,5.23,3.9,1.21,7.31-1,10.48-3,0,.56.05,1,.07,1.51a5.12,5.12,0,0,0,2.08,3.82c.9.7,1.25.71,1.77-.09l.15-.24c.25-.4.43-.84.65-1.26a20.4,20.4,0,0,0,.47-4.78,7.13,7.13,0,0,0,6.68-6.33A11,11,0,0,0,649.29,126.86Z" transform="translate(-32.39 -59)"/><path class="cls-14" d="M645.2,253.42c7,13.49-4.13,28.59-13.6,37.63-8.92,8.51-19.6,14.88-30.15,21.13a.63.63,0,0,0,.63,1.08c12.37-7.34,25.07-14.91,34.71-25.79,8.1-9.14,15.78-22.6,9.49-34.68-.37-.71-1.45-.09-1.08.63Z" transform="translate(-32.39 -59)"/><path class="cls-14" d="M598.57,310.12A506.79,506.79,0,0,0,632,354.05c.52.61,1.39-.27.88-.88a504.46,504.46,0,0,1-33.19-43.68c-.45-.66-1.53,0-1.08.63Z" transform="translate(-32.39 -59)"/><path class="cls-17" d="M618.12,393.68c-4.91,6.63-11.5,11.49-18.13,16.25-.65.47,0,1.55.63,1.08,6.81-4.9,13.54-9.89,18.58-16.7.47-.64-.61-1.26-1.08-.63Z" transform="translate(-32.39 -59)"/><path class="cls-17" d="M603,401.31q2.19,1.72,4.31,3.55c.61.52,1.49-.36.88-.88-1.41-1.22-2.84-2.4-4.31-3.55-.62-.49-1.51.38-.88.88Z" transform="translate(-32.39 -59)"/><path class="cls-17" d="M604.1,399.28c2,1.1,4,2.3,5.93,3.57.68.45,1.3-.63.63-1.08q-2.88-1.9-5.93-3.57c-.7-.39-1.33.69-.63,1.08Z" transform="translate(-32.39 -59)"/><path class="cls-17" d="M636.45,364.49a67.24,67.24,0,0,1-7.58,4.39c-.72.35-.09,1.43.63,1.07a68.72,68.72,0,0,0,7.58-4.38c.67-.44,0-1.52-.63-1.08Z" transform="translate(-32.39 -59)"/><path class="cls-17" d="M636.73,367.77q-3.79,2.31-7.74,4.34c-.71.36-.08,1.44.63,1.07q3.95-2,7.74-4.33c.68-.42,0-1.5-.63-1.08Z" transform="translate(-32.39 -59)"/><path class="cls-17" d="M637,356.75c-.16,3.26-.39,6.52-.7,9.76-.36,3.71-.3,8.21-2,11.56-.37.71.7,1.34,1.07.63,1.43-2.73,1.54-5.92,1.88-8.94.5-4.33.83-8.66,1.05-13,0-.8-1.21-.8-1.25,0Z" transform="translate(-32.39 -59)"/><ellipse class="cls-6" cx="613.09" cy="74.6" rx="9.3" ry="10.69"/><path class="cls-7" d="M639,153.1a2.84,2.84,0,0,1-5.65-.28Z" transform="translate(-32.39 -59)"/><circle class="cls-12" cx="150.5" cy="52.91" r="5.83"/><circle class="cls-12" cx="699.43" cy="212.34" r="5.83"/><path class="cls-12" d="M165.13,148.16a2.81,2.81,0,1,1-2.81-2.81A2.81,2.81,0,0,1,165.13,148.16Z" transform="translate(-32.39 -59)"/><path class="cls-12" d="M41.82,211.56A2.54,2.54,0,1,1,39.29,209,2.54,2.54,0,0,1,41.82,211.56Z" transform="translate(-32.39 -59)"/><path class="cls-12" d="M41.82,312a2.54,2.54,0,1,1-2.53-2.54A2.53,2.53,0,0,1,41.82,312Z" transform="translate(-32.39 -59)"/><path class="cls-12" d="M167.77,314.73a2.73,2.73,0,1,1-2.72-2.72A2.72,2.72,0,0,1,167.77,314.73Z" transform="translate(-32.39 -59)"/><path class="cls-12" d="M394.17,285.63a4.66,4.66,0,1,1-4.66-4.66A4.66,4.66,0,0,1,394.17,285.63Z" transform="translate(-32.39 -59)"/><circle class="cls-12" cx="210.11" cy="372.56" r="4.66"/><path class="cls-12" d="M389.51,97.57a2.66,2.66,0,1,1-2.66-2.65A2.66,2.66,0,0,1,389.51,97.57Z" transform="translate(-32.39 -59)"/><path class="cls-12" d="M345.58,279.48a4.29,4.29,0,1,1-4.29-4.29A4.29,4.29,0,0,1,345.58,279.48Z" transform="translate(-32.39 -59)"/><path class="cls-12" d="M452.73,423.88a4.29,4.29,0,1,1-4.28-4.28A4.28,4.28,0,0,1,452.73,423.88Z" transform="translate(-32.39 -59)"/><path class="cls-12" d="M553.1,259.85a3.06,3.06,0,1,1-3.06-3.06A3.06,3.06,0,0,1,553.1,259.85Z" transform="translate(-32.39 -59)"/><path class="cls-12" d="M695.16,125.07a4.46,4.46,0,1,1-4.46-4.45A4.46,4.46,0,0,1,695.16,125.07Z" transform="translate(-32.39 -59)"/><path class="cls-12" d="M674.57,391.18a2.82,2.82,0,1,1-2.82-2.82A2.82,2.82,0,0,1,674.57,391.18Z" transform="translate(-32.39 -59)"/><path class="cls-12" d="M563.37,384.55a3.26,3.26,0,1,1-3.26-3.26A3.26,3.26,0,0,1,563.37,384.55Z" transform="translate(-32.39 -59)"/><circle class="cls-4" cx="32.84" cy="82.64" r="3.71"/><path class="cls-4" d="M38.43,344.54a3,3,0,1,1-3-3A3,3,0,0,1,38.43,344.54Z" transform="translate(-32.39 -59)"/><path class="cls-4" d="M138.73,426.9a3,3,0,1,1-3-3A3,3,0,0,1,138.73,426.9Z" transform="translate(-32.39 -59)"/><circle class="cls-12" cx="186.44" cy="184.43" r="3.31"/><circle class="cls-12" cx="313.19" cy="344.68" r="3.31"/><path class="cls-4" d="M194,277.85a2.66,2.66,0,1,1-2.66-2.66A2.66,2.66,0,0,1,194,277.85Z" transform="translate(-32.39 -59)"/><circle class="cls-4" cx="255.75" cy="325.93" r="3.64"/><circle class="cls-4" cx="349.97" cy="176.21" r="2.03"/><circle class="cls-4" cx="275.78" cy="44.16" r="2.93"/><path class="cls-4" d="M430.67,152.74a2.83,2.83,0,1,1-2.82-2.82A2.82,2.82,0,0,1,430.67,152.74Z" transform="translate(-32.39 -59)"/><circle class="cls-4" cx="467.93" cy="41.37" r="2.79"/><circle class="cls-4" cx="501.78" cy="214.98" r="2.75"/><path class="cls-4" d="M457.15,365.83a3.59,3.59,0,1,1-3.58-3.58A3.58,3.58,0,0,1,457.15,365.83Z" transform="translate(-32.39 -59)"/><path class="cls-4" d="M726,234.15a3.09,3.09,0,1,1-3.08-3.08A3.08,3.08,0,0,1,726,234.15Z" transform="translate(-32.39 -59)"/><circle class="cls-4" cx="609.85" cy="44.47" r="3.24"/><path class="cls-4" d="M655.91,373.88a1.24,1.24,0,1,1-1.24-1.23A1.24,1.24,0,0,1,655.91,373.88Z" transform="translate(-32.39 -59)"/><circle class="cls-4" cx="680.75" cy="262.89" r="2.68"/><polygon class="cls-5" points="77.26 19.97 80.41 25.72 86.16 28.86 80.41 32.01 77.26 37.76 74.11 32.01 68.36 28.86 74.11 25.72 77.26 19.97"/><polygon class="cls-5" points="17.04 49.43 19.18 53.35 23.1 55.49 19.18 57.64 17.04 61.56 14.89 57.64 10.97 55.49 14.89 53.35 17.04 49.43"/><polygon class="cls-5" points="29.14 349.24 31.47 353.5 35.73 355.83 31.47 358.16 29.14 362.42 26.81 358.16 22.54 355.83 26.81 353.5 29.14 349.24"/><polygon class="cls-5" points="63.26 380.85 65.14 384.28 68.56 386.15 65.14 388.03 63.26 391.46 61.39 388.03 57.96 386.15 61.39 384.28 63.26 380.85"/><polygon class="cls-5" points="240.56 21.79 243.06 26.36 247.63 28.86 243.06 31.36 240.56 35.93 238.06 31.36 233.49 28.86 238.06 26.36 240.56 21.79"/><polygon class="cls-5" points="196.73 14.03 197.78 15.95 199.7 17 197.78 18.05 196.73 19.97 195.68 18.05 193.76 17 195.68 15.95 196.73 14.03"/><polygon class="cls-5" points="286.69 89.2 287.51 90.69 289 91.51 287.51 92.33 286.69 93.82 285.88 92.33 284.39 91.51 285.88 90.69 286.69 89.2"/><polygon class="cls-5" points="275.78 350.05 276.96 352.19 279.1 353.37 276.96 354.54 275.78 356.69 274.61 354.54 272.46 353.37 274.61 352.19 275.78 350.05"/><polygon class="cls-5" points="246.65 294.93 247.91 297.24 250.22 298.5 247.91 299.77 246.65 302.08 245.38 299.77 243.07 298.5 245.38 297.24 246.65 294.93"/><polygon class="cls-5" points="416.05 0 419.56 6.42 425.99 9.93 419.56 13.44 416.05 19.86 412.54 13.44 406.12 9.93 412.54 6.42 416.05 0"/><polygon class="cls-5" points="404.16 280.47 405.78 283.44 408.75 285.06 405.78 286.69 404.16 289.65 402.53 286.69 399.56 285.06 402.53 283.44 404.16 280.47"/><polygon class="cls-5" points="465.14 331.79 467.65 336.38 472.24 338.89 467.65 341.4 465.14 345.99 462.63 341.4 458.04 338.89 462.63 336.38 465.14 331.79"/><polygon class="cls-5" points="482.87 273.41 484.46 276.33 487.39 277.93 484.46 279.53 482.87 282.46 481.26 279.53 478.34 277.93 481.26 276.33 482.87 273.41"/><polygon class="cls-5" points="364.61 79.74 364.61 79.74 364.61 79.74 364.61 79.74 364.61 79.74 364.61 79.74 364.61 79.74 364.61 79.74 364.61 79.74"/><polygon class="cls-5" points="632.61 19.67 633.77 21.79 635.89 22.95 633.77 24.11 632.61 26.23 631.45 24.11 629.33 22.95 631.45 21.79 632.61 19.67"/><polygon class="cls-5" points="580.54 9.93 581.99 12.58 584.63 14.03 581.99 15.47 580.54 18.12 579.09 15.47 576.44 14.03 579.09 12.58 580.54 9.93"/><polygon class="cls-5" points="395.45 31.82 396.9 34.47 399.55 35.92 396.9 37.36 395.45 40.01 394 37.36 391.36 35.92 394 34.47 395.45 31.82"/><polygon class="cls-5" points="674.1 301.37 676.11 305.06 679.8 307.07 676.11 309.08 674.1 312.77 672.08 309.08 668.4 307.07 672.08 305.06 674.1 301.37"/><polygon class="cls-5" points="490.28 345.29 492.3 348.97 495.98 350.99 492.3 353 490.28 356.69 488.26 353 484.58 350.99 488.26 348.97 490.28 345.29"/></g><g id="DESIGNED_BY_FREEPIK" data-name="DESIGNED BY FREEPIK"><path class="cls-7" d="M408.77,469.67a8.06,8.06,0,0,0-1.07,1.41l-.45-.23a.58.58,0,0,0-.64-.45.59.59,0,0,0-.52.65.58.58,0,0,0,.65.51.48.48,0,0,0,.18-.05l.44.23a6.91,6.91,0,0,0-.52,1.69l.72.13a6.45,6.45,0,0,1,1.74-3.37Z" transform="translate(-32.39 -59)"/><path class="cls-7" d="M414.1,467.44h-.49l-.07-.6a.7.7,0,1,0-.73.08l.07.61a7.27,7.27,0,0,0-2,.62l.31.67a6.63,6.63,0,0,1,2.91-.66,6.81,6.81,0,0,1,1.43.16l.16-.72A7,7,0,0,0,414.1,467.44Z" transform="translate(-32.39 -59)"/><path class="cls-7" d="M420.51,469.91a.58.58,0,0,0-.14-1.16.57.57,0,0,0-.51.59l-.41.35a6.68,6.68,0,0,0-1.37-1.1l-.39.62a6.52,6.52,0,0,1,2.49,2.84l.67-.31a7.41,7.41,0,0,0-.91-1.5l.39-.34A.37.37,0,0,0,420.51,469.91Z" transform="translate(-32.39 -59)"/><path class="cls-7" d="M413.57,477.35c-.37,0-.75,0-1.12,0a16.37,16.37,0,0,1-2.41-.17,7.51,7.51,0,0,1-1.23-.29,6,6,0,0,0,11-1.33,10,10,0,0,1-2.39,1.09A16.79,16.79,0,0,1,413.57,477.35Z" transform="translate(-32.39 -59)"/><path class="cls-7" d="M414.1,468.91a5.85,5.85,0,0,0-5.9,5.77,6.24,6.24,0,0,0,.13,1.22c.66.47,2.63.87,5.19.71a11.13,11.13,0,0,0,6.48-2.09,5.46,5.46,0,0,0,0-.57A5.87,5.87,0,0,0,414.1,468.91ZM412,475.23a1.8,1.8,0,1,1,1.79-1.79A1.8,1.8,0,0,1,412,475.23Zm4.6-.88a1.32,1.32,0,1,1,1.32-1.32A1.33,1.33,0,0,1,416.61,474.35Z" transform="translate(-32.39 -59)"/><path class="cls-7" d="M429.64,470.72a2.76,2.76,0,0,0-1.34-.23c-.54.07-.82.33-.82,1v.84h2.16V474h-2.16v5.29H425.6V474h-1.3v-1.67h1.3v-.86a2.39,2.39,0,0,1,2.5-2.7,3.67,3.67,0,0,1,1.54.3Z" transform="translate(-32.39 -59)"/><path class="cls-7" d="M434.2,474a2.94,2.94,0,0,0-.51,0,1.39,1.39,0,0,0-1.46,1.57v3.79h-1.88v-7h1.82v.76a2.21,2.21,0,0,1,2-.95,1.76,1.76,0,0,1,1.06.33Z" transform="translate(-32.39 -59)"/><path class="cls-7" d="M441.65,475.78a5.57,5.57,0,0,1,0,.63h-4.93a1.67,1.67,0,0,0,1.78,1.45,2.87,2.87,0,0,0,1.77-.67l1.09,1.21a4.23,4.23,0,0,1-3,1.05,3.67,3.67,0,0,1-.1-7.33A3.37,3.37,0,0,1,441.65,475.78Zm-5-.65h3.09a1.55,1.55,0,0,0-3.09,0Z" transform="translate(-32.39 -59)"/><path class="cls-7" d="M449.08,475.78a5.57,5.57,0,0,1,0,.63h-4.93a1.67,1.67,0,0,0,1.78,1.45,2.87,2.87,0,0,0,1.77-.67l1.09,1.21a4.23,4.23,0,0,1-3,1.05,3.67,3.67,0,0,1-.1-7.33A3.37,3.37,0,0,1,449.08,475.78Zm-5-.65h3.09a1.55,1.55,0,0,0-3.09,0Z" transform="translate(-32.39 -59)"/><path class="cls-7" d="M457.18,475.79a3.45,3.45,0,0,1-3.37,3.66,2.55,2.55,0,0,1-2.05-.9v3.6h-1.87v-9.84h1.84v.77a2.51,2.51,0,0,1,2.07-1A3.46,3.46,0,0,1,457.18,475.79Zm-5.51,0a1.79,1.79,0,1,0,1.79-1.92A1.79,1.79,0,0,0,451.67,475.79Z" transform="translate(-32.39 -59)"/><path class="cls-7" d="M460.19,470a1.2,1.2,0,0,1-2.39,0,1.2,1.2,0,1,1,2.39,0Zm-.25,9.24h-1.87v-7h1.87Z" transform="translate(-32.39 -59)"/><path class="cls-7" d="M463.07,474.79l2.62-2.48H468l-3.37,3.28,3.39,3.68h-2.3l-2.64-2.81v2.81H461.2V468.93h1.87Z" transform="translate(-32.39 -59)"/><path class="cls-7" d="M335.29,479.21v-1a2.9,2.9,0,0,1-2.32,1.19c-1.79,0-3.05-1.37-3.05-3.6s1.25-3.61,3.05-3.61a2.87,2.87,0,0,1,2.32,1.21v-3.66h1.07v9.49Zm0-1.86v-3.12a2.57,2.57,0,0,0-2.06-1.11c-1.38,0-2.2,1.14-2.2,2.66s.82,2.65,2.2,2.65A2.57,2.57,0,0,0,335.29,477.35Z" transform="translate(-32.39 -59)"/><path class="cls-7" d="M337.74,475.77a3.44,3.44,0,0,1,3.38-3.6c2.08,0,3.3,1.62,3.3,3.68v.27h-5.56a2.43,2.43,0,0,0,2.48,2.38,3,3,0,0,0,2.11-.87l.52.7a3.76,3.76,0,0,1-2.73,1.05A3.4,3.4,0,0,1,337.74,475.77Zm3.37-2.72a2.29,2.29,0,0,0-2.25,2.29h4.51A2.23,2.23,0,0,0,341.11,473.05Z" transform="translate(-32.39 -59)"/><path class="cls-7" d="M345.19,478.3l.55-.77a3.12,3.12,0,0,0,2.27,1c1.05,0,1.62-.5,1.62-1.18,0-1.66-4.26-.64-4.26-3.18,0-1.07.93-2,2.56-2a3.47,3.47,0,0,1,2.55,1l-.5.74a2.66,2.66,0,0,0-2.05-.87c-.93,0-1.52.47-1.52,1.08,0,1.51,4.25.51,4.25,3.18,0,1.16-.92,2.08-2.7,2.08A3.65,3.65,0,0,1,345.19,478.3Z" transform="translate(-32.39 -59)"/><path class="cls-7" d="M351.86,470.65a.72.72,0,1,1,1.44,0,.72.72,0,0,1-1.44,0Zm.18,8.56v-6.87h1.07v6.87Z" transform="translate(-32.39 -59)"/><path class="cls-7" d="M354.87,481l.54-.79a2.64,2.64,0,0,0,2.24.93,2,2,0,0,0,2.2-2.06v-1a2.86,2.86,0,0,1-2.3,1.22c-1.8,0-3.06-1.33-3.06-3.55s1.25-3.57,3.06-3.57a2.85,2.85,0,0,1,2.3,1.21v-1h1.07V479c0,2.28-1.6,3-3.27,3A3.51,3.51,0,0,1,354.87,481Zm5-3.74v-3a2.52,2.52,0,0,0-2.05-1.11c-1.38,0-2.2,1.1-2.2,2.62s.82,2.62,2.2,2.62A2.54,2.54,0,0,0,359.85,477.23Z" transform="translate(-32.39 -59)"/><path class="cls-7" d="M367.33,479.21v-4.49c0-1.21-.61-1.6-1.54-1.6a2.65,2.65,0,0,0-2,1.07v5h-1.07v-6.87h1.07v1a3.4,3.4,0,0,1,2.45-1.17,2,2,0,0,1,2.19,2.22v4.82Z" transform="translate(-32.39 -59)"/><path class="cls-7" d="M369.78,475.77a3.44,3.44,0,0,1,3.38-3.6c2.08,0,3.3,1.62,3.3,3.68v.27H370.9a2.41,2.41,0,0,0,2.47,2.38,3,3,0,0,0,2.12-.87l.51.7a3.72,3.72,0,0,1-2.73,1.05A3.4,3.4,0,0,1,369.78,475.77Zm3.37-2.72a2.29,2.29,0,0,0-2.25,2.29h4.51A2.23,2.23,0,0,0,373.15,473.05Z" transform="translate(-32.39 -59)"/><path class="cls-7" d="M382.8,479.21v-1a2.9,2.9,0,0,1-2.32,1.19c-1.79,0-3.05-1.37-3.05-3.6s1.25-3.61,3.05-3.61a2.87,2.87,0,0,1,2.32,1.21v-3.66h1.07v9.49Zm0-1.86v-3.12a2.57,2.57,0,0,0-2.06-1.11c-1.38,0-2.2,1.14-2.2,2.66s.82,2.65,2.2,2.65A2.57,2.57,0,0,0,382.8,477.35Z" transform="translate(-32.39 -59)"/><path class="cls-7" d="M389,479.21v-9.49H390v3.66a2.84,2.84,0,0,1,2.31-1.21c1.79,0,3.06,1.42,3.06,3.61s-1.27,3.6-3.06,3.6a2.9,2.9,0,0,1-2.31-1.19v1Zm3.11-.78c1.4,0,2.22-1.13,2.22-2.65s-.82-2.66-2.22-2.66a2.51,2.51,0,0,0-2,1.11v3.12A2.52,2.52,0,0,0,392.07,478.43Z" transform="translate(-32.39 -59)"/><path class="cls-7" d="M396.57,480.93a1.62,1.62,0,0,0,.58.11,1,1,0,0,0,1-.72l.46-1-2.87-6.94h1.15L399.2,478l2.27-5.63h1.17l-3.44,8.26a2.06,2.06,0,0,1-2,1.4,3.78,3.78,0,0,1-.78-.1Z" transform="translate(-32.39 -59)"/></g></svg>