<svg id="Слой_1" data-name="Слой 1" xmlns="http://www.w3.org/2000/svg" viewBox="0 0 3145.27 1786.95"><defs><style>.cls-1{fill:#fff;}.cls-2{fill:#f7d987;}.cls-3{fill:#95a6db;}.cls-4{fill:#4364cc;}.cls-5{fill:#f37a50;}.cls-6{fill:#8a284c;}.cls-7{fill:#e62552;}.cls-8{fill:#3b1120;}.cls-9{fill:#de623c;}.cls-10{fill:#070635;}.cls-11{fill:#768fdb;}.cls-12{fill:#95adf5;}.cls-13{fill:#201d40;}.cls-14{fill:#2c2858;}.cls-15{fill:#c4204a;}.cls-16{fill:#3f964f;}.cls-17{fill:#0e6a41;}.cls-18{fill:#494c7f;}.cls-19{fill:#555994;}.cls-20{fill:#cfdbff;}.cls-21{fill:#7f99eb;}.cls-22{fill:#e3eaff;}.cls-23{fill:#bdcdff;}.cls-24{fill:#cdd8fa;}.cls-25{fill:#062440;}.cls-26{fill:#80bc48;}.cls-27{fill:#17962e;}.cls-28{fill:#de8914;}.cls-29{fill:#ff9a16;}.cls-30{fill:#faaf16;}.cls-31{fill:#fac352;}</style></defs><title>side-bar</title><rect class="cls-1" width="3145.27" height="1786.95"/><path class="cls-2" d="M232,1733.08c-243.38-333.67-104.48-669.16,176-859.57C693,680,371.15,279.53,938.52,116.58c293.52-84.29,551.63,145.6,839.32,155.58,257.79,8.95,524.47-193.78,786.21-99.86,175,54.06,350,205.78,337,387.18-6.75,93.74-66.45,204.71-4.63,275.92,260.91,300.55,234,563.43,131.76,893.47Z"/><path class="cls-3" d="M3053.42,1747.34H135.26c-5.75,0-10.41-5-10.41-11.11h0c0-6.14,4.66-11.11,10.41-11.11H3053.42c5.75,0,10.41,5,10.41,11.11h0C3063.83,1742.37,3059.17,1747.34,3053.42,1747.34Z"/><path d="M1501.16,697.74c49.83-14.06,156.24,31,127.28,212.2s-166.16,151.33-166.16,151.33-59.79-18.8-65.16-133.93S1417.38,721.39,1501.16,697.74Z"/><path class="cls-4" d="M1526.2,940s65.62,50.86,163.47,47.71c19.73-37.83-20.49-56.66-20.49-56.66l-78.28-35.47s-28.16-9.25-51.4,9C1519.26,920.56,1526.2,940,1526.2,940Z"/><path class="cls-5" d="M1595.27,839.62s25.1,59.21,39.59,94.47c5.75,14,27.54,54.44,54.81,53.62,24.2-26.08-8.47-99.33-82-159.85C1599,837.06,1595.27,839.62,1595.27,839.62Z"/><path class="cls-6" d="M1598.81,865.16l24.2-11.89a6.62,6.62,0,0,0,3-8.86l-25.43-51.78c-1.61-3.28-7.88-5.42-11.17-3.81l-21.89,12.67a6.63,6.63,0,0,0-3,8.87L1586.2,863C1587.22,865.47,1592.86,868.18,1598.81,865.16Z"/><path class="cls-7" d="M1593.86,864.82l24.2-11.88a6.62,6.62,0,0,0,3-8.87l-25.43-51.77a6.63,6.63,0,0,0-8.87-3l-24.19,11.89a6.62,6.62,0,0,0-3,8.86L1585,861.8A6.61,6.61,0,0,0,1593.86,864.82Z"/><path class="cls-8" d="M1590.87,854.37l20.52-10.08a5.44,5.44,0,0,0,2.49-7.29l-20.39-41.53a5.47,5.47,0,0,0-7.3-2.49l-20.52,10.08a5.45,5.45,0,0,0-2.49,7.3l20.39,41.52A5.46,5.46,0,0,0,1590.87,854.37Z"/><path class="cls-6" d="M1600.33,854.68a3.3,3.3,0,1,0,2.53-3.93A3.3,3.3,0,0,0,1600.33,854.68Z"/><path id="c" class="cls-5" d="M1621.19,829.44a5.16,5.16,0,0,0-1.5-.57l.15-.23c2.82-4.77,2.34-10.27-1.08-12.29a5.34,5.34,0,0,0-1.8-.65c.69-3.46-.25-6.68-2.69-8.12a5.51,5.51,0,0,0-3.21-.73c.91-3.41-.13-6.88-2.86-8.5-3.42-2-8.14-.37-10.55,3.7s-1.59,9,1.82,11a6.13,6.13,0,0,0,2.79.85c-2,4.4-1.3,9.08,1.79,10.91a5.34,5.34,0,0,0,1.8.65c-.69,3.45.25,6.67,2.69,8.12a5.56,5.56,0,0,0,3,.74c-1,3-.09,6.11,2.31,7.53,2.89,1.71,6.88.32,8.91-3.12S1624.08,831.15,1621.19,829.44Z"/><path class="cls-5" d="M1544.44,862.34l-37.14-5.56,3,34.47s18.81,33.89,36.65,28,9.14-20.81,9.14-20.81Z"/><path class="cls-5" d="M1477.59,806.41c6,40.73,36.86,69.9,68.85,65.16s53-41.6,47-82.32-36.86-69.91-68.85-65.17S1471.55,765.68,1477.59,806.41Z"/><path d="M1512.36,795.42a2.09,2.09,0,0,0,1.13-.82c4.15-6,12.49-5.78,12.57-5.78a2.12,2.12,0,0,0,.14-4.23c-.43,0-10.7-.27-16.18,7.59a2.11,2.11,0,0,0,2.34,3.24Z"/><path d="M1583.7,794.24a2.09,2.09,0,0,0,.59-.35,2.13,2.13,0,0,0,.25-3,14.89,14.89,0,0,0-14.38-4.9,2.12,2.12,0,0,0,1,4.11,10.63,10.63,0,0,1,10.14,3.53A2.12,2.12,0,0,0,1583.7,794.24Z"/><path class="cls-9" d="M1554.16,811.48c2.66,3.27,5,6.6,7.6,8.61a2.13,2.13,0,0,1,.45,2.88c-2.61,3.81-9.5,6.52-13.69,7.88a.56.56,0,0,1-.51-1c4.4-3.22,6.38-5.7,7.24-7.09a2.52,2.52,0,0,0,.2-2.28c-.69-1.73-2.06-5.25-2.94-8.14A1,1,0,0,1,1554.16,811.48Z"/><path class="cls-1" d="M1527.36,842.24a1.68,1.68,0,0,1,1.7-2.59,119.46,119.46,0,0,0,31.73,1.9,1.69,1.69,0,0,1,1.39,2.78c-2.94,3.51-8.9,8.74-18,8.19S1529.86,846.08,1527.36,842.24Z"/><path d="M1464.57,802.68c37.83-1.71,87.59-36.63,93.6-55.8-5.16-24.12-24.18-37.75-46.9-28.79S1451.34,771.73,1464.57,802.68Z"/><path d="M1549.53,756.57s22.52,22.89,45.32,28.11c-8-26.69-13.68-46.92-27.36-53.47s-28.79-7.7-28.79-7.7Z"/><path class="cls-5" d="M1486.43,800.09c7.09,6.59,8.47,16.64,3.07,22.44s-15.51,5.16-22.61-1.43-8.46-16.64-3.06-22.45S1479.34,793.49,1486.43,800.09Z"/><path class="cls-9" d="M1480.32,819.9a2.08,2.08,0,0,0,.8-.56c3.26-3.63,3.92-8,1.76-11.62a10.2,10.2,0,0,0-10.79-4.8,2.12,2.12,0,1,0,1,4.12,6,6,0,0,1,6.18,2.84c1.2,2,.75,4.38-1.27,6.63a2.12,2.12,0,0,0,2.35,3.39Z"/><path d="M1516.42,801.65a6.5,6.5,0,1,0,6.5-6.5A6.5,6.5,0,0,0,1516.42,801.65Z"/><path d="M1563.79,801.65a6.51,6.51,0,1,0,6.51-6.5A6.51,6.51,0,0,0,1563.79,801.65Z"/><path class="cls-5" d="M1579.21,1642.89c-2.49-24.8,10.31-213.56,10.31-213.56,36.19-165.95,22-284.74,22-284.74l-62.2,4.37-24.52,93.78,11.63,156.6s-4.36,12.06-6.67,21.7c-12.49,52.27,0,114.75,7.64,156.39,3.57,19.29,9.11,59.85,9.26,69.06L1531,1666.7s56.56,62.59,65.26,63c16.91.77,11.92-16,11.92-16C1584.94,1689.83,1579.92,1650,1579.21,1642.89Z"/><path class="cls-7" d="M1530,1688.88l3.11,40.21,7.23.33,3.66-37.35c19.24,4.91,33,39.83,33,39.83,13.25,4.75,46.94,8,58.93,1.83,2.89-11.75-27.85-20-27.85-20-2.77,3.28-19.18,5.8-25,2.28-21.46-18.27-31.92-44.83-36.49-69.54C1546.63,1646.49,1512.72,1648.86,1530,1688.88Z"/><path class="cls-5" d="M1558.17,1156.66l-87.63-12.07c-33.52,75.85-44.45,207.89-53.54,254.93-36.53,61.25-48.13,247-48.13,247l-15.63,20.21s56.56,62.59,65.26,63c16.91.77,11.93-16,11.93-16-23.25-23.87-27.78-55.59-29.29-62.57-2.26-10.48,70.93-216.52,70.93-216.52l7.82-19.55c89.39-147.65,104.06-259.27,104.06-259.27Z"/><path class="cls-7" d="M1352.27,1688.88l3.12,40.21,7.22.33,3.66-37.35c19.24,4.91,33,39.83,33,39.83,13.25,4.75,46.94,8,58.93,1.83,2.9-11.75-27.84-20-27.84-20-2.78,3.28-19.19,5.8-25,2.28-21.45-18.27-31.92-44.83-36.49-69.54C1368.87,1646.49,1335,1648.86,1352.27,1688.88Z"/><path class="cls-10" d="M1395.26,1390.91c8.75-29.28,4.94-238.86,82.2-295.85l132.94,14c30.72,49.73,19.45,179.12,9.11,285.61C1557,1417,1507.3,1426,1395.26,1390.91Z"/><path class="cls-11" d="M1612,1076.27c0-29.12,25.23-72.73,13.14-102.13-8.81-23.64-26.12-77-45-80.58-7.65-1.46-16,0-26.65-2.92,0,0,5.53,24.69-6.92,25.69-24,1.93-36.58-28.81-36.58-28.81-12.92-1.24-58,12.22-58,17.09.14,38.13,16.91,99.8,27,141a185.14,185.14,0,0,1-1.71,49.16c-3.84,12.38-8.53,19.47-8.56,22.15,0,0,88.87,30.19,145.41-.94C1614.24,1116,1612,1095.93,1612,1076.27Z"/><g id="c-2" data-name="c"><path class="cls-5" d="M1453.91,1103.94l7.57,3s7.9-12.55,15.91-12.15l-4,12s4.52,14,28.78,12.41c20.72,4.71,6.22,14.55,12,18.49,8.46,5.8-15.27,20.06-35.27,13.91-25.88-8-42.69-32.4-42.69-32.4Z"/></g><path class="cls-5" d="M1453.91,902.32s-63.32,37.09-94,126c27.54,30.53,50.74,7.75,50.74,7.75L1472,975.45s18-22.15,9.41-49.21C1473.91,902.67,1453.91,902.32,1453.91,902.32Z"/><path class="cls-5" d="M1453.91,1103.94l-44.27-64.84s-10.45-24.86-49.71-10.78c-1.9,21.11,13.38,51.16,83.4,97.47A154.8,154.8,0,0,1,1453.91,1103.94Z"/><path class="cls-1" d="M1546.61,916.33c2.14,10-3.66,21.94-20.37,16.33-20-6.72-29.36-44.28-29.36-44.28l12.55-6.8S1519,907.53,1546.61,916.33Z"/><path class="cls-1" d="M1546.61,916.33c2.47,5.14,16.55,18.31,23.22,10.47s-1.12-28.44-1.12-28.44l-15.18-7.72S1559.48,909.19,1546.61,916.33Z"/><path class="cls-4" d="M1453.91,902.32s-63.32,37.09-94,126c27.54,30.53,53.13,5.39,53.13,5.39l59-58.26s18-22.15,9.41-49.21C1473.91,902.67,1453.91,902.32,1453.91,902.32Z"/><path class="cls-4" d="M1086.78,1599.76l38.9,124c1,3.31,2.77,5.29,4.62,5.29h0c3.43,0,6-6.62,5.51-13.93l-8.47-115.4Z"/><path class="cls-4" d="M728,1599.76l-38.9,124c-1,3.31-2.77,5.29-4.62,5.29h0c-3.43,0-6.05-6.62-5.51-13.93l8.47-115.4Z"/><path class="cls-4" d="M542.92,1599.76l-38.9,124c-1,3.31-2.77,5.29-4.62,5.29h0c-3.43,0-6-6.62-5.51-13.93l8.47-115.4Z"/><path class="cls-11" d="M765.87,1305.31h359a33.89,33.89,0,0,1,33.89,33.89v221.54a43.58,43.58,0,0,1-43.58,43.58H765.87a0,0,0,0,1,0,0v-299A0,0,0,0,1,765.87,1305.31Z"/><path class="cls-4" d="M678.87,1305.31h359a33.89,33.89,0,0,1,33.89,33.89v221.54a43.58,43.58,0,0,1-43.58,43.58H678.87a0,0,0,0,1,0,0v-299A0,0,0,0,1,678.87,1305.31Z"/><path class="cls-11" d="M602.87,1137.06H861.06a31.47,31.47,0,0,1,31.47,31.47v212.4a0,0,0,0,1,0,0H602.87a0,0,0,0,1,0,0V1137.06A0,0,0,0,1,602.87,1137.06Z"/><path class="cls-12" d="M571.69,1375.81h461.07a39.73,39.73,0,0,1,39.73,39.73v45.83a0,0,0,0,1,0,0H571.69a0,0,0,0,1,0,0v-85.56A0,0,0,0,1,571.69,1375.81Z"/><rect class="cls-11" x="571.69" y="1451.43" width="500.8" height="153.11"/><path class="cls-4" d="M534.64,1137.06h68.23a0,0,0,0,1,0,0v243.87a0,0,0,0,1,0,0H502.11a0,0,0,0,1,0,0V1169.58A32.53,32.53,0,0,1,534.64,1137.06Z"/><path class="cls-13" d="M808.06,869.92a48.45,48.45,0,1,1-48.45-48.45A48.45,48.45,0,0,1,808.06,869.92Z"/><path class="cls-14" d="M883,1006.41c22.83-22.1,46.8-114.87-16.6-142.91-60-26.53-135.71,10.56-138.6,74.27s45.79,94.63,45.79,94.63Z"/><path class="cls-5" d="M1159.9,1562.36,1179,1589.1s17.08,21.77,37.44,11.55,11.33-42.92,11.33-42.92l-23.39-30.79Z"/><path class="cls-14" d="M1227,1554.19a153.09,153.09,0,0,0,42.89-7.8c12.49-4.26,45.15-16.64,52.48,5.7,1.1,3.34.59,8-5.54,15.11-9.06,10.49-22.87,22-55.28,32.08-38.88,12-42,18.93-56.87,22.59-15.39,3.81-20.48-17.66-26.43-35.1h0c2.71,3.68,10.8,12.74,39.72,7.46C1226.59,1592.65,1202,1565.52,1227,1554.19Z"/><path class="cls-5" d="M998,1654.3v18.14s1.23,27.64,23.74,31.17,34.18-28.32,34.18-28.32l-.83-28.57Z"/><path class="cls-15" d="M911.75,1202.52c-11-.1-33.46,40.15-31.56,43.48,26.62,29.51,130.56,32.55,130.56,32.55l12.49-12.81S961.47,1237.4,911.75,1202.52Z"/><path class="cls-15" d="M813.18,1110.31c10.11,30.4,56.05,132,67,135.69l31.56-43.48S864,1095.88,855.73,1080C841.52,1052.43,796.59,1060.71,813.18,1110.31Z"/><path class="cls-5" d="M816,1010.56s4.38,39.25,6.2,53.69l-51.25,13c-6.6-44-7.1-99.32-7.1-99.32Z"/><path class="cls-5" d="M762.18,953.35c-2.53,47.14,25.43,87,62.46,89s69.1-34.62,71.63-81.77-25.44-87-62.47-89S764.71,906.21,762.18,953.35Z"/><path d="M876.63,967.29a6.45,6.45,0,1,0,5.24-7.46A6.45,6.45,0,0,0,876.63,967.29Z"/><path d="M824.52,964.86a7,7,0,1,0,5.67-8.08A7,7,0,0,0,824.52,964.86Z"/><path class="cls-14" d="M818.77,957.12a2.43,2.43,0,0,0,1.4-.79c5.5-6.24,15-5,15.08-5a2.43,2.43,0,0,0,.71-4.8c-.5-.07-12.16-1.71-19.43,6.54a2.43,2.43,0,0,0,2.24,4Z"/><path class="cls-14" d="M892.78,962.34a2.44,2.44,0,0,0,1.7-3.56,17,17,0,0,0-15-8.8,2.43,2.43,0,0,0,.2,4.85,12.21,12.21,0,0,1,10.58,6.29A2.44,2.44,0,0,0,892.78,962.34Z"/><path class="cls-9" d="M868.67,979.56c2.35,4.49,4.26,9,6.89,12a2.55,2.55,0,0,1-.16,3.5c-4,3.86-12.77,5.41-18,6a.68.68,0,0,1-.36-1.3c6-2.74,8.89-5.19,10.24-6.61a3,3,0,0,0,.78-2.65c-.4-2.2-1.17-6.68-1.52-10.3A1.15,1.15,0,0,1,868.67,979.56Z"/><path class="cls-9" d="M838.12,1021.86c-16.83-5-20.75-17.53-21-18.2a2.68,2.68,0,0,1,5.14-1.53c.22.71,5.47,16.65,31.64,16.4a2.68,2.68,0,1,1,0,5.36A53.69,53.69,0,0,1,838.12,1021.86Z"/><path class="cls-14" d="M756.93,953.2c42.9,6.72,118.67-22.17,129.81-42.34-.28-28.28-38.94-53.93-66.52-49.06S749.13,915.39,756.93,953.2Z"/><path class="cls-5" d="M778.73,950.16c6.46,9,5.71,20.63-1.68,25.92s-18.62,2.25-25.08-6.78-5.71-20.63,1.68-25.92S772.27,941.13,778.73,950.16Z"/><path class="cls-9" d="M767.33,971a2.26,2.26,0,0,0,1-.44c4.5-3.33,6.24-8.06,4.65-12.65a11.73,11.73,0,0,0-11-7.87,2.43,2.43,0,0,0,.15,4.86,6.92,6.92,0,0,1,6.3,4.6c.89,2.56-.16,5.1-2.95,7.16a2.43,2.43,0,0,0,1.87,4.34Z"/><path class="cls-16" d="M835.36,1393.25l218.39-9.33s10.77-54.51,2.67-76.12-208.76-17.16-208.76-17.16Z"/><path class="cls-17" d="M771.13,1253.29c-5.92,13.68-29,54.38-26.76,87.38,2.3,34.06,26.33,63.71,67,63.06,0,0,76.65-43.57,60.06-132.82C871.43,1270.91,831.3,1255.24,771.13,1253.29Z"/><path class="cls-17" d="M805.31,1411.51l192.37,18.14s66-27.84,65.62-51.49-194.21-88.37-194.21-88.37C755.41,1256.64,717.51,1397.74,805.31,1411.51Z"/><path class="cls-17" d="M1063.3,1378.16l-3.86,271.35s-48,20.24-64.85.15c-8-92.1-45.76-173.68-3.54-229.82C1047.59,1344.64,1063.3,1378.16,1063.3,1378.16Z"/><path class="cls-16" d="M1056,1307.16,1216,1527s-35.73,47.75-60.68,42.16c-43-54.46-130.14-118.33-130.7-186.87C1023.92,1290.49,1056,1307.16,1056,1307.16Z"/><path class="cls-7" d="M768.73,1060.07l53.89-.6c24.72,28.75,49.82,53.46,54.26,73.1,5.84,25.85,4.76,165.52,4.76,165.52-45.33,16.59-96,1.81-129-10.46,8.29-68.74-46.92-146-14.8-198.3C745.84,1076.27,756.52,1070.06,768.73,1060.07Z"/><path class="cls-14" d="M1057.3,1671.94a153.12,153.12,0,0,0,39.42,18.6c12.64,3.8,46.41,12.72,39.38,35.16-1,3.35-4.18,6.85-13.3,9.07-13.46,3.27-31.42,4.62-63.62-6.06-38.63-12.82-45.19-9-59.4-14.69-14.74-5.86-6.39-26.28-1.09-43.93h0c.07,4.57,1.38,16.65,28,29.17C1034.61,1703,1030.34,1666.59,1057.3,1671.94Z"/><path class="cls-14" d="M875.37,1309.52H1049.9L1084.34,1200a7.85,7.85,0,0,0-7.48-10.21H918.79a7.87,7.87,0,0,0-7.49,5.5Z"/><path class="cls-18" d="M888.61,1309.52h167a10.21,10.21,0,0,0,9.74-7.15l32.2-102.38a7.85,7.85,0,0,0-7.49-10.21H932a7.86,7.86,0,0,0-7.49,5.5Z"/><path class="cls-19" d="M991.36,1251.81c-1.92,6.77,1.5,13.67,7.64,15.41s12.68-2.32,14.61-9.09-1.5-13.67-7.65-15.41S993.28,1245,991.36,1251.81Z"/><path class="cls-14" d="M782.16,1293.3H888.61a0,0,0,0,1,0,0v3.56a12.38,12.38,0,0,1-12.38,12.38H782.16a0,0,0,0,1,0,0V1293.3A0,0,0,0,1,782.16,1293.3Z" transform="translate(1670.77 2602.55) rotate(180)"/><path class="cls-5" d="M868.29,1301.31c-12.5-.11-28.91,2.27-28.53-4.21s6.83-8.85,7.61-16.62c.69-6.9-22.48-5.13-37.13,17.64l-4.32-2.38-12.39,21.09,7.84,2.9c13.24,15.93,53.18,24.08,76.66,11.65C901.8,1318.79,880.78,1301.41,868.29,1301.31Z"/><path class="cls-15" d="M718.88,1097.3c-15.4,33.84-72.1,110.7-59.73,153.23,8.66,29.78,136.93,73.35,136.93,73.35l12.18-31.06-89.13-66.32s52-101.43,57.43-120.62C786,1072.33,743.08,1044.08,718.88,1097.3Z"/><path class="cls-7" d="M765.35,1040.6l1.24,21.19h56v-16.93S785.12,1043.34,765.35,1040.6Z"/><path class="cls-11" d="M589.12,1305.31H807.3a33.89,33.89,0,0,1,33.89,33.89v221.54a43.58,43.58,0,0,1-43.58,43.58H589.12a0,0,0,0,1,0,0v-299A0,0,0,0,1,589.12,1305.31Z"/><path class="cls-4" d="M502.11,1305.31H720.3a33.89,33.89,0,0,1,33.89,33.89v221.54a43.58,43.58,0,0,1-43.58,43.58H502.11a0,0,0,0,1,0,0v-299A0,0,0,0,1,502.11,1305.31Z"/><path class="cls-17" d="M283.86,1653.75c-16.49,69.26-75.44,31.17-63.11,74.94a7.85,7.85,0,0,0,7.32,5.51l34.62,1.32a15.54,15.54,0,0,0,9.39-2.71c18.26-12.5,30.65-30.12,70.09-32.25-.29-16.84.47-40.89-5.09-49.48Z"/><path class="cls-13" d="M375.09,1167.76s-100.68,153.54-114.58,201.3,15.18,128.69,9.92,291.79c31.47,8.17,73.42,1.15,73.42,1.15s25.25-204.58-4.45-252.89C383.9,1341.21,495.68,1193,495.68,1193Z"/><path class="cls-17" d="M430.92,1676.08c-25.62,34.87-89.56,14.24-87,61,96.91-1.54,137.2-1.33,137.2-1.33-.24-10.75-2.4-36.26-4.73-46.23Z"/><path class="cls-14" d="M400.89,1136.71s-32.1,250.51-24.69,299.7,30.37,87.69,31.17,250.87c31.75,7,80.27,13.28,80.27,13.28s20.45-196.82-21.63-251c11.93-80.31,68.76-282.31,68.76-282.31Z"/><path class="cls-15" d="M236.43,1026.44l-39.14-43.89A4.64,4.64,0,0,0,194,981l-32.23-.19c-.92,0-3.76,5.08-3.14,5.76l27.6,24.53a1.06,1.06,0,0,0,.48.3L234,1029C235,1029.31,237.14,1027.23,236.43,1026.44Z"/><path class="cls-7" d="M233.44,1029.38,196.15,988a4.57,4.57,0,0,0-3.33-1.52l-33.22-.6a1,1,0,0,0-.8,1.75l26.26,28.94a1,1,0,0,0,.47.3l46.83,14.2A1,1,0,0,0,233.44,1029.38Z"/><path class="cls-5" d="M307.11,1067.12l-27-13.22S253.54,1027,249.6,1021c-5.92-3-17.11-10.54-19.63-10.82a41.67,41.67,0,0,0-7.68.48l12.49,14.21s-5.93,1.17-13.49-3.63-20.93-17.69-27.48-15.2l-2.32,2.06s-4.13-4.41-8-2.78,3.85,21.08,25.84,41.67c1.46,5.5,8.7,15.14,8.7,15.14l44.46,15.61Z"/><path class="cls-15" d="M190.08,994.25c1.58,1.58,3.85,1.87,5.07.65s.93-3.5-.65-5.08-3.85-1.87-5.07-.64S188.5,992.67,190.08,994.25Z"/><path class="cls-5" d="M432.67,868.84c-8,10.37,54.67,21.64,63.07.09s-6-80.82-6-80.82l-57.14,12.13S443.08,855.34,432.67,868.84Z"/><path class="cls-5" d="M502.21,739.72c4.81,45.84-20.48,86.07-56.48,89.85s-69.1-30.32-73.91-76.17,20.48-86.06,56.49-89.84S497.4,693.88,502.21,739.72Z"/><path d="M393.09,766.9a6.82,6.82,0,1,1-4.11-8.73A6.82,6.82,0,0,1,393.09,766.9Z"/><path d="M437.84,757.13a7.38,7.38,0,1,1-4.46-9.45A7.38,7.38,0,0,1,437.84,757.13Z"/><path class="cls-9" d="M406.12,765.48c-1.44,10.74-3.45,24-3.45,24s7.06,7.45,18.77,2.3c-5.86.19-12.24-.92-13.2-8.4S406.12,765.48,406.12,765.48Z"/><path class="cls-13" d="M391.09,751.32a2.63,2.63,0,0,1-2.59.06,7.67,7.67,0,0,0-5.59-.48c-1.88.72-3.38,2.57-4.47,5.49a2.62,2.62,0,1,1-4.9-1.83c1.64-4.43,4.19-7.31,7.58-8.57,4.95-1.85,9.68.68,9.88.79a2.61,2.61,0,0,1,1,3.55A2.59,2.59,0,0,1,391.09,751.32Z"/><path class="cls-13" d="M425.13,743.86a2.64,2.64,0,0,0,2.47-.79,7.6,7.6,0,0,1,5.12-2.3c2,.06,4,1.31,6,3.71a2.62,2.62,0,0,0,4-3.34c-3-3.64-6.37-5.52-10-5.6-5.29-.12-8.92,3.83-9.07,4a2.61,2.61,0,0,0,1.4,4.32Z"/><path class="cls-13" d="M488.82,768.84c-23.72-19.86-17.17-50.2-17.17-50.2-11.5.76-14.72,5.67-14.72,5.67-9.25-10.62-7-20.62-7-20.62C425,701,417.71,718.61,398.68,729c-26.06,14.25-63.48,12.41-75.87-20.75a6,6,0,0,1,7.62-7.8,26.6,26.6,0,0,0,16.38.35,28.34,28.34,0,0,1-10.37-14,6,6,0,0,1,8.37-7.1c7.1,3.26,19.07,4.92,37.27-3.83,12.12-5.83,35.81-34.13,55.08-35,15.75-.74,31,8.74,40.92,25.48,0,0,37.57-6,52.07,33.19C544.4,738,491,797.57,491,797.57S495.09,774.94,488.82,768.84Z"/><path class="cls-1" d="M409,809.27a2,2,0,0,1,.6-3.64A142.33,142.33,0,0,0,445,792.37a2,2,0,0,1,2.85,2.35c-1.5,5.23-5.44,13.79-15.56,17.58S413.59,812.23,409,809.27Z"/><path class="cls-5" d="M471.93,741.83c-7.71,7.62-8.92,18.91-2.69,25.22s17.54,5.26,25.25-2.35,8.92-18.9,2.7-25.22S479.65,734.22,471.93,741.83Z"/><path class="cls-9" d="M479.43,763.8a2.35,2.35,0,0,1-.91-.59c-3.78-4-4.66-8.8-2.36-13a11.42,11.42,0,0,1,11.92-5.73,2.37,2.37,0,1,1-.95,4.64,6.77,6.77,0,0,0-6.82,3.38c-1.28,2.32-.7,4.94,1.64,7.39a2.37,2.37,0,0,1-2.52,3.86Z"/><path class="cls-16" d="M363,1186.15c44.7,9.12,125.06,24.86,167.56,8.29,16.08-23.09,20.16-153.66,20.16-153.66,4.65-134.4-11.47-154.35-47.82-199.38-15.25,7-53.43,13-70.21,13.12,0,0-38,52.8-45.46,91.14-7.52,38.89-8.37,108-9.07,147.61C377.4,1137.24,368.71,1158.45,363,1186.15Z"/><path class="cls-17" d="M508.22,882.2c26.14,50.9,20.22,107.26-55.8,218.22-53.23-4.65-63.67-49-63.67-49S403.37,996.31,422.38,927,496.78,859.93,508.22,882.2Z"/><path class="cls-17" d="M275.8,1040.78l114,9.09s48.89-8.91,62.63,50.55c-24.46,19-87.62,26.19-191.21-12.27C272.17,1073.23,275.8,1040.78,275.8,1040.78Z"/><polygon class="cls-1" points="433.05 850.75 431.97 881.4 509.09 849.07 499.75 824.27 433.05 850.75"/><path class="cls-20" d="M1145,942.36H964.91a20.25,20.25,0,0,0-20.25,20.25v101a20.25,20.25,0,0,0,20.25,20.25h5.87l20.87,39.31a7.45,7.45,0,0,0,13,.38l24.12-39.69H1145a20.25,20.25,0,0,0,20.25-20.25v-101A20.24,20.24,0,0,0,1145,942.36Z"/><path class="cls-20" d="M1051.15,919.75h0a11.85,11.85,0,0,1-11.85-11.84v-36a11.86,11.86,0,0,1,11.85-11.85h0A11.85,11.85,0,0,1,1063,871.9v36A11.84,11.84,0,0,1,1051.15,919.75Z"/><path class="cls-20" d="M1094.06,916.28h0a11.84,11.84,0,0,1,0-16.75l25.46-25.46a11.85,11.85,0,0,1,16.75,0h0a11.85,11.85,0,0,1,0,16.75l-25.47,25.46A11.84,11.84,0,0,1,1094.06,916.28Z"/><path class="cls-20" d="M1008.23,916.28h0a11.84,11.84,0,0,0,0-16.75l-25.46-25.46a11.84,11.84,0,0,0-16.74,0h0a11.84,11.84,0,0,0,0,16.75l25.46,25.46A11.84,11.84,0,0,0,1008.23,916.28Z"/><path class="cls-1" d="M1134.05,933.81H954a20.25,20.25,0,0,0-20.25,20.25v101A20.25,20.25,0,0,0,954,1075.35h5.87l20.86,39.31a7.46,7.46,0,0,0,13,.38l24.12-39.69h116.25a20.25,20.25,0,0,0,20.25-20.25v-101A20.25,20.25,0,0,0,1134.05,933.81Z"/><path class="cls-15" d="M1118.65,965.42l.06,78.93a5.44,5.44,0,0,1-5.44,5.45l-137.18.09a5.43,5.43,0,0,1-5.44-5.44l-.06-78.93a5.44,5.44,0,0,1,5.44-5.45l137.18-.09A5.43,5.43,0,0,1,1118.65,965.42Z"/><path class="cls-7" d="M1118.65,965.42v4.36l-62.48,44.93a17.33,17.33,0,0,1-20.53.2L970.59,968v-2.49a5.45,5.45,0,0,1,5.44-5.45l137.18-.09A5.44,5.44,0,0,1,1118.65,965.42Z"/><path class="cls-1" d="M1043.1,912.25h0a11.84,11.84,0,0,1-11.84-11.84v-36a11.84,11.84,0,0,1,11.84-11.85h0a11.84,11.84,0,0,1,11.84,11.85v36A11.84,11.84,0,0,1,1043.1,912.25Z"/><path class="cls-1" d="M1086,908.79h0a11.85,11.85,0,0,1,0-16.75l25.47-25.46a11.82,11.82,0,0,1,16.74,0h0a11.84,11.84,0,0,1,0,16.75l-25.46,25.46A11.85,11.85,0,0,1,1086,908.79Z"/><path class="cls-1" d="M1000.19,908.79h0a11.84,11.84,0,0,0,0-16.75l-25.46-25.46a11.84,11.84,0,0,0-16.75,0h0a11.85,11.85,0,0,0,0,16.75l25.47,25.46A11.84,11.84,0,0,0,1000.19,908.79Z"/><path class="cls-21" d="M1767.64,440h-256a54.7,54.7,0,0,0-54.7,54.7v103a54.7,54.7,0,0,0,54.7,54.7h176.6l-6.2,115c-.48,8.82,11.58,11.8,15.27,3.77l54.42-118.74h16a54.7,54.7,0,0,0,54.7-54.7v-103A54.7,54.7,0,0,0,1767.64,440Z"/><path class="cls-22" d="M1775.06,508.15H1508.89a18.7,18.7,0,0,1-18.71-18.7h0a18.7,18.7,0,0,1,18.71-18.71h266.17a18.7,18.7,0,0,1,18.7,18.71h0A18.7,18.7,0,0,1,1775.06,508.15Z"/><path class="cls-22" d="M1775.06,563.59H1508.89a18.71,18.71,0,0,1-18.71-18.71h0a18.7,18.7,0,0,1,18.71-18.7h266.17a18.7,18.7,0,0,1,18.7,18.7h0A18.71,18.71,0,0,1,1775.06,563.59Z"/><rect class="cls-22" x="1490.18" y="581.62" width="215.31" height="37.41" rx="15.75"/><rect class="cls-1" x="2324.93" y="425.89" width="243.11" height="134.71" rx="27.01"/><rect class="cls-1" x="2145.64" y="619.03" width="315.62" height="174.88" rx="35.06"/><polygon class="cls-1" points="2363.49 560.6 2363.49 630.64 2407.11 560.6 2363.49 560.6"/><path class="cls-1" d="M2416.56,786.08v65.1a5,5,0,0,1-9.4,2.25l-34.22-67.35Z"/><path class="cls-22" d="M2528.67,480.57H2364.3a14.42,14.42,0,0,1-14.42-14.42h0a14.41,14.41,0,0,1,14.42-14.42h164.37a14.41,14.41,0,0,1,14.42,14.42h0A14.42,14.42,0,0,1,2528.67,480.57Z"/><rect class="cls-22" x="2349.88" y="498.3" width="193.22" height="28.84" rx="14.42"/><path class="cls-22" d="M2420.1,673.68H2189.75a16,16,0,0,1-16-16h0a16,16,0,0,1,16-16H2420.1a16,16,0,0,1,16,16h0A16,16,0,0,1,2420.1,673.68Z"/><path class="cls-22" d="M2420.1,724.57H2189.75a16,16,0,0,1-16-16h0a16,16,0,0,1,16-16H2420.1a16,16,0,0,1,16,16h0A16,16,0,0,1,2420.1,724.57Z"/><path class="cls-22" d="M2274.63,743.37h147.82a13.68,13.68,0,0,1,13.68,13.68v4.71a13.69,13.69,0,0,1-13.69,13.69H2274.63a13.69,13.69,0,0,1-13.69-13.69v-4.71a13.69,13.69,0,0,1,13.69-13.69Z"/><path class="cls-1" d="M99.88,520.43l-.31-.08a6.14,6.14,0,0,1-4.17-7.62,126.75,126.75,0,0,1,10.95-25.49,6.14,6.14,0,1,1,10.71,6,114.69,114.69,0,0,0-9.88,22.92A6.15,6.15,0,0,1,99.88,520.43Zm25.57-45.68a6.14,6.14,0,0,1-3.18-10,119.16,119.16,0,0,1,20.57-18.52,6.14,6.14,0,0,1,7.08,10,106.68,106.68,0,0,0-18.44,16.61A6.16,6.16,0,0,1,125.45,474.75Zm42.6-30a6.14,6.14,0,0,1-.84-11.69,127.62,127.62,0,0,1,26.6-7.17A6.14,6.14,0,1,1,195.74,438a115,115,0,0,0-24,6.48A6.15,6.15,0,0,1,168.05,444.75Zm51.48-8.52a6.14,6.14,0,0,1,1.55-12.12,196.59,196.59,0,0,1,27,2.54,6.14,6.14,0,1,1-2,12.12,183,183,0,0,0-25.28-2.38A6.79,6.79,0,0,1,219.53,436.23Zm71.11,13.54c-3.71-.88-7.51-1.92-11.28-3.08-2.77-.85-5.54-1.66-8.25-2.41a6.14,6.14,0,0,1,3.25-11.84c2.84.78,5.73,1.63,8.62,2.51a157.09,157.09,0,0,0,16.34,4.13A6.14,6.14,0,1,1,297,451.13C294.89,450.73,292.76,450.27,290.64,449.77Zm32.22,3.81a6.14,6.14,0,0,1,1.36-12.11,100.76,100.76,0,0,0,24.5-3.18,6.14,6.14,0,0,1,3.11,11.88,112.92,112.92,0,0,1-27.5,3.58A6.43,6.43,0,0,1,322.86,453.58Zm50.25-13.33A6.14,6.14,0,0,1,371.45,429a97.64,97.64,0,0,0,19.6-15,6.14,6.14,0,0,1,8.61,8.75,109.9,109.9,0,0,1-22.07,16.88A6.12,6.12,0,0,1,373.11,440.25Zm37.38-36.32a5.85,5.85,0,0,1-1.93-.83,6.14,6.14,0,0,1-1.81-8.49,136.21,136.21,0,0,0,11.65-22.29A6.14,6.14,0,0,1,429.75,377a149.3,149.3,0,0,1-12.7,24.29A6.13,6.13,0,0,1,410.49,403.93Zm797,178.3a6.13,6.13,0,0,1-4.44-4.11c-2.59-8.1-5.56-16.27-8.82-24.27a6.14,6.14,0,0,1,11.37-4.63c3.38,8.29,6.46,16.76,9.15,25.16a6.15,6.15,0,0,1-7.26,7.85ZM385.82,346.13l-.34-.09A178.12,178.12,0,0,1,360,336.37a6.14,6.14,0,0,1,5.27-11.09,166,166,0,0,0,23.69,9,6.14,6.14,0,0,1-3.16,11.86Zm25.6,6a6.14,6.14,0,0,1,2.49-12c4.33.76,8.83,1.44,13.46,2a158.4,158.4,0,0,0,2.42-18.92A6.14,6.14,0,1,1,442,324a169.17,169.17,0,0,1-2.43,19.42,6.14,6.14,0,0,1-1.23,12.21l-3.95-.37a6.12,6.12,0,0,1-3.75.32,6.21,6.21,0,0,1-2.16-1c-5.78-.68-11.38-1.51-16.75-2.45Zm776.26,181.43a6.12,6.12,0,0,1-4.09-3.24c-3.79-7.64-7.94-15.29-12.33-22.75a6.14,6.14,0,1,1,10.58-6.22c4.54,7.7,8.82,15.61,12.74,23.5a6.14,6.14,0,0,1-2.76,8.23A6.07,6.07,0,0,1,1187.68,533.54ZM463.78,357a6.14,6.14,0,0,1,1.56-12.11c8.27.19,17,.16,26-.09a6.14,6.14,0,1,1,.34,12.27c-9.19.26-18.15.29-26.63.09A5.89,5.89,0,0,1,463.78,357ZM338.71,323.3a6.06,6.06,0,0,1-2.27-1.07,118.14,118.14,0,0,1-16.91-15.45q-1.59-1.77-3.09-3.51a6.14,6.14,0,1,1,9.29-8q1.42,1.65,2.94,3.34a105.36,105.36,0,0,0,15.15,13.83,6.14,6.14,0,0,1-5.11,10.89Zm177.67,32.28a6.14,6.14,0,0,1,1-12.1c8.33-.57,17.08-1.31,26-2.21a6.14,6.14,0,1,1,1.23,12.21c-9.08.92-18,1.67-26.43,2.25A6.19,6.19,0,0,1,516.38,355.58Zm52.38-5.22a6.14,6.14,0,0,1,.64-12.07c8.31-1.05,17-2.26,25.94-3.58a6.14,6.14,0,1,1,1.81,12.14c-9,1.34-17.81,2.56-26.2,3.63A6.16,6.16,0,0,1,568.76,350.36ZM1161,488.21a6.13,6.13,0,0,1-3.65-2.52c-4.82-7.05-10-14.08-15.31-20.9a6.14,6.14,0,1,1,9.67-7.57c5.5,7,10.81,14.27,15.78,21.55a6.15,6.15,0,0,1-6.49,9.44Zm-857.16-204a6.11,6.11,0,0,1-3.78-2.7c-5.78-9.18-9.65-17.85-11.51-25.76A6.14,6.14,0,0,1,300.53,253c1.55,6.59,4.9,14,10,22a6.14,6.14,0,0,1-6.61,9.25ZM434,303.31a6.15,6.15,0,0,1-4.69-5.29,108.62,108.62,0,0,0-5.43-24.25,6.14,6.14,0,0,1,11.57-4.12,121.49,121.49,0,0,1,6.06,27,6.13,6.13,0,0,1-5.41,6.78A5.87,5.87,0,0,1,434,303.31Zm186.87,39.36a6.14,6.14,0,0,1,.41-12c8.21-1.36,16.91-2.86,25.85-4.47a6.14,6.14,0,1,1,2.17,12.09c-9,1.61-17.75,3.13-26,4.5A6.27,6.27,0,0,1,620.84,342.67Zm507.78,104.12a6.13,6.13,0,0,1-3.17-1.9c-5.7-6.41-11.69-12.75-17.82-18.84a6.14,6.14,0,1,1,8.66-8.7c6.3,6.26,12.47,12.79,18.34,19.38a6.15,6.15,0,0,1-6,10.06Zm-456-113.38a6.14,6.14,0,0,1,.27-12c8.06-1.53,16.5-3.16,25.8-5a6.14,6.14,0,0,1,2.37,12c-9.33,1.83-17.79,3.47-25.88,5A6.12,6.12,0,0,1,672.66,333.41ZM296.91,235.19a6.14,6.14,0,0,1-3.53-9.62c5.48-7.44,14.52-12.61,26.13-15a6.14,6.14,0,1,1,2.44,12c-8.58,1.74-15,5.27-18.69,10.22A6.13,6.13,0,0,1,296.91,235.19Zm118.73,19.54a6.17,6.17,0,0,1-3.33-2.09,48.19,48.19,0,0,0-11.4-10.26c-2.4-1.53-4.87-3-7.37-4.39a6.14,6.14,0,1,1,6-10.73c2.7,1.5,5.39,3.1,8,4.76a60.54,60.54,0,0,1,14.31,12.84,6.15,6.15,0,0,1-6.17,9.87Zm308.69,68.55a6.14,6.14,0,0,1,.2-12l17.71-3.56,8.09-1.63a6.14,6.14,0,1,1,2.42,12l-8.09,1.62-17.72,3.57A6.19,6.19,0,0,1,724.33,323.28Zm367,86.4a6,6,0,0,1-2.64-1.37c-6.45-5.69-13.17-11.27-20-16.58a6.14,6.14,0,1,1,7.57-9.67c7,5.46,13.88,11.19,20.51,17a6.14,6.14,0,0,1-5.48,10.58ZM345.51,222a6.14,6.14,0,0,1,2.15-12.07,134.1,134.1,0,0,1,26.83,6.23,6.14,6.14,0,1,1-3.95,11.62,122.4,122.4,0,0,0-24.35-5.66C346,222.08,345.73,222,345.51,222Zm430.43,90.93a6.14,6.14,0,0,1,.22-12l8.9-1.75c5.72-1.12,11.58-2.08,17.43-2.83a6.14,6.14,0,0,1,1.57,12.18c-5.58.72-11.18,1.63-16.63,2.7-2.95.57-5.91,1.16-8.88,1.75A6.19,6.19,0,0,1,775.94,312.92Zm274,64.36a6.27,6.27,0,0,1-2.07-.92c-7.1-4.91-14.43-9.65-21.78-14.11a6.14,6.14,0,0,1,6.36-10.5c7.56,4.58,15.1,9.46,22.4,14.5a6.14,6.14,0,0,1-4.91,11Zm-45-27.24a6.09,6.09,0,0,1-1.45-.55c-7.67-4-15.51-7.84-23.32-11.33a6.14,6.14,0,0,1,5-11.21c8,3.6,16.12,7.53,24,11.67a6.14,6.14,0,0,1-4.26,11.42ZM828.07,306.28a6.14,6.14,0,0,1,1.21-12.11c8.81-.3,17.84-.2,26.85.29a6.14,6.14,0,0,1-.67,12.26c-8.65-.47-17.31-.57-25.76-.28A6.27,6.27,0,0,1,828.07,306.28Zm128.85,22.28a5.19,5.19,0,0,1-.74-.22c-8.12-3-16.39-5.77-24.56-8.18a6.14,6.14,0,1,1,3.48-11.78c8.44,2.49,17,5.34,25.36,8.45a6.14,6.14,0,0,1-3.54,11.73Zm-76.36-19.47a6.14,6.14,0,0,1,2.26-12c8.71,1.2,17.58,2.78,26.36,4.69a6.14,6.14,0,0,1-2.61,12c-8.48-1.84-17-3.37-25.43-4.53A5.4,5.4,0,0,1,880.56,309.09Z"/><polygon class="cls-23" points="1222.31 542.3 1195.47 569.41 1335.15 722.43 1222.31 542.3"/><polygon class="cls-23" points="1169.31 603.38 1170.79 642.11 1328.98 715.44 1169.31 603.38"/><polygon class="cls-1" points="1335.15 722.43 1076.92 560.27 1182.14 549.08 1335.15 722.43"/><polygon class="cls-1" points="1222.31 542.3 1335.15 722.43 1289.46 530.96 1222.31 542.3"/><path class="cls-1" d="M2667.4,326.18a7,7,0,0,1,0-14,112.8,112.8,0,0,0,28-3.31,7,7,0,0,1,3.49,13.56,126.88,126.88,0,0,1-31.45,3.75Zm-29.83-2.67a6.72,6.72,0,0,1-1.18-.1,260.92,260.92,0,0,1-30-7,7,7,0,0,1,3.93-13.43,251.56,251.56,0,0,0,28.41,6.64,7,7,0,0,1-1.16,13.9Zm86.82-13a7,7,0,0,1-3.94-12.79A75.91,75.91,0,0,0,2738,281a7,7,0,0,1,11.13,8.5,90.13,90.13,0,0,1-20.84,19.82A7,7,0,0,1,2724.39,310.53Zm-484-1.55a7,7,0,0,1-5.7-11.07,203.86,203.86,0,0,1,20-23.75,7,7,0,0,1,10,9.78,189.37,189.37,0,0,0-18.64,22.1A7,7,0,0,1,2240.42,309ZM2580,307a6.94,6.94,0,0,1-2.55-.48c-9.1-3.55-18.52-7.61-28-12.07a7,7,0,1,1,6-12.67c9.18,4.33,18.3,8.26,27.11,11.7A7,7,0,0,1,2580,307Zm-54.32-25.46a7,7,0,0,1-3.34-.86c-8.75-4.75-17.59-9.86-26.29-15.19a7,7,0,0,1,7.31-11.94c8.49,5.2,17.13,10.19,25.67,14.83a7,7,0,0,1-3.35,13.16ZM2282,266a7,7,0,0,1-4.37-12.48A248.24,248.24,0,0,1,2303,235.8a7,7,0,0,1,7.28,12,232,232,0,0,0-23.85,16.68A7,7,0,0,1,2282,266Zm192.45-15.8a6.93,6.93,0,0,1-3.94-1.22c-3.1-2.12-6.2-4.28-9.22-6.43a120.11,120.11,0,0,0-15.24-9.26,7,7,0,1,1,6.33-12.48,134,134,0,0,1,17,10.33c2.95,2.11,6,4.22,9,6.29a7,7,0,0,1-4,12.77ZM2333.21,235a7,7,0,0,1-2.77-13.43,184.83,184.83,0,0,1,29.52-9.95,7,7,0,0,1,3.3,13.6A170.87,170.87,0,0,0,2336,234.4,7.15,7.15,0,0,1,2333.21,235Zm87.87-11a7,7,0,0,1-1.5-.16,116.32,116.32,0,0,0-28.1-2.52,7,7,0,1,1-.42-14,129.8,129.8,0,0,1,31.5,2.83,7,7,0,0,1-1.48,13.84Z"/><polygon class="cls-23" points="2233.66 280.66 2243.76 312.5 2073.82 376 2233.66 280.66"/><polygon class="cls-23" points="2250.6 349.42 2233.98 379.01 2081.42 373.02 2250.6 349.42"/><polygon class="cls-1" points="2073.82 376 2339.8 352.7 2262.26 301.98 2073.82 376"/><polygon class="cls-1" points="2233.66 280.66 2073.82 376 2185.86 245.02 2233.66 280.66"/><path class="cls-1" d="M2037.75,469.6q12.4-9.37,29.76-9.37c25,0,38.21,13.59,38.21,32.7,0,11-5.33,22.23-16.17,33.43-13.77,14.51-23.69,21.68-29.94,21.68a10.35,10.35,0,0,1-10.47-10.47c0-5.15,4.78-10.29,13-17.82a8.25,8.25,0,0,1,1.47-1.29c9.37-8.63,12.31-13.41,12.31-19.29,0-7.34-5-11.38-12.12-11.38a39.31,39.31,0,0,0-11.76,2.2q-6.88,2.2-9.92,2.2a11.45,11.45,0,0,1-11-11.75C2031.14,476.58,2033.34,472.91,2037.75,469.6Zm25.17,122.53c-11.21,0-18.74-8.45-18.74-18.74,0-8.82,7.53-17.27,18.74-17.27,9.73,0,17.26,8.45,17.26,17.27C2080.18,583.49,2073,592.13,2062.92,592.13Z"/><path class="cls-1" d="M679.16,614.66q9.81-7.41,23.54-7.41c19.76,0,30.22,10.75,30.22,25.86,0,8.72-4.21,17.58-12.79,26.45-10.89,11.48-18.74,17.15-23.68,17.15a8.19,8.19,0,0,1-8.29-8.29c0-4.07,3.78-8.13,10.32-14.09a6.58,6.58,0,0,1,1.16-1c7.42-6.83,9.74-10.61,9.74-15.26,0-5.81-3.92-9-9.59-9a30.9,30.9,0,0,0-9.3,1.75,29.88,29.88,0,0,1-7.85,1.74,9.06,9.06,0,0,1-8.72-9.3C673.92,620.18,675.67,617.27,679.16,614.66Zm19.9,96.92a14.43,14.43,0,0,1-14.82-14.82c0-7,6-13.66,14.82-13.66a13.93,13.93,0,0,1,13.66,13.66C712.72,704.75,707.06,711.58,699.06,711.58Z"/><path class="cls-24" d="M3120.68,1156l-58.84,108.85a8.54,8.54,0,0,1-11.56,3.46L2861.1,1166a8.52,8.52,0,0,1-3.44-11.56l58.83-108.85a8.54,8.54,0,0,1,11.56-3.46l189.18,102.26A8.52,8.52,0,0,1,3120.68,1156Z"/><path class="cls-1" d="M3120.68,1156l-3.26,6-119.66,15.32a27.19,27.19,0,0,1-28.44-15.07L2914.64,1049l1.85-3.43a8.54,8.54,0,0,1,11.57-3.45l189.17,102.25A8.53,8.53,0,0,1,3120.68,1156Z"/><path class="cls-1" d="M1854.53,951.61A54.46,54.46,0,1,1,1909,897.15,54.52,54.52,0,0,1,1854.53,951.61Zm0-93.92A39.46,39.46,0,1,0,1894,897.15,39.5,39.5,0,0,0,1854.53,857.69Z"/><path class="cls-22" d="M2934.71,657.47A54.46,54.46,0,1,1,2989.17,603,54.52,54.52,0,0,1,2934.71,657.47Zm0-93.92A39.46,39.46,0,1,0,2974.17,603,39.5,39.5,0,0,0,2934.71,563.55Z"/><path class="cls-1" d="M1976.63,810.49a31.1,31.1,0,1,1-31.1-31.1A31.09,31.09,0,0,1,1976.63,810.49Z"/><circle class="cls-22" cx="2937.17" cy="480.57" r="31.09" transform="translate(-12.85 86.48) rotate(-1.68)"/><path class="cls-21" d="M181.46,907.7a44.29,44.29,0,1,1-44.29-44.3A44.29,44.29,0,0,1,181.46,907.7Z"/><path class="cls-1" d="M133.59,935.63h0a6.5,6.5,0,0,1-5.36-2.88L110,905.6a6.5,6.5,0,1,1,10.79-7.24l12.88,19.19,21.81-31.82a6.5,6.5,0,1,1,10.72,7.35L139,932.81A6.51,6.51,0,0,1,133.59,935.63Z"/><path class="cls-21" d="M185.45,958.61a12.69,12.69,0,1,1-12.69-12.69A12.69,12.69,0,0,1,185.45,958.61Z"/><g id="c-3" data-name="c"><polygon id="v-2" class="cls-5" points="2567.36 837.35 2567.32 837.35 2540.39 837.45 2534.3 901.05 2565.73 917.65 2599.25 901.24 2593.84 837.45 2567.36 837.35"/><path class="cls-5" d="M2620.87,792c-6.12,46.13-40.46,79.62-76.68,74.81s-60.63-46.11-54.5-92.23,40.46-79.61,76.68-74.8S2627,745.86,2620.87,792Z"/><path class="cls-9" d="M2532.47,793c-6.66,8.68-15.06,19.24-15.06,19.24s2.44,10.07,15.28,11.45c-5.23-2.78-10.25-7-7.34-14S2532.47,793,2532.47,793Z"/><path class="cls-13" d="M2635.82,754.9c3.93-43.94-36.49-58.37-36.49-58.37s9.06-3.19,6.86-16.47a35.3,35.3,0,0,1-21.65,5c-50.25-5-81.88,3.28-76.88,23,1.78,7-30.81,10.59-16.29,57.09,3.1-5.49,5.9-26.1,15.67-30.64s4,11.53,26.17,9c22.4-2.52,37-11.81,53.29-3,13,8,29.36,61.53,28.61,65.18C2616.82,797.34,2634.09,774.22,2635.82,754.9Z"/><path class="cls-13" d="M2489.33,799.74s4.28,25.07,9.75,31.76c1.19-10.79,24.86-4,35.15-3.09,18.62,1.63,37.53-14.9,43.8,9.56,23.72,1.38,32.36-50.84,32.36-50.84,14.59,52.18-11.53,90.24-69,95.54C2503.46,886.17,2482.48,837.81,2489.33,799.74Z"/><path d="M2559.34,790.26a6.4,6.4,0,1,0-6-6.82A6.41,6.41,0,0,0,2559.34,790.26Z"/><path d="M2506.46,788.31a6.4,6.4,0,1,0-6-6.82A6.41,6.41,0,0,0,2506.46,788.31Z"/><path class="cls-13" d="M2495.83,774.94a3.18,3.18,0,0,0,2.83-1.37c1.81-2.64,3.9-4.15,6.2-4.5,4-.61,7.67,2.27,7.7,2.29a3.17,3.17,0,0,0,4-5c-.23-.19-5.82-4.62-12.56-3.64-4.13.61-7.68,3-10.55,7.2a3.18,3.18,0,0,0,.82,4.42A3.27,3.27,0,0,0,2495.83,774.94Z"/><path class="cls-13" d="M2573.78,780a3.17,3.17,0,0,0,2.82-5c-3.82-5.48-8.24-8.62-13.14-9.34a15.49,15.49,0,0,0-11.16,2.87,3.18,3.18,0,0,0,3.95,5,9.13,9.13,0,0,1,6.37-1.55c3.07.48,6,2.72,8.76,6.67A3.19,3.19,0,0,0,2573.78,780Z"/><path class="cls-5" d="M2611,787.34c-7.92,7.55-9.35,18.92-3.18,25.41s17.6,5.63,25.53-1.91,9.35-18.91,3.18-25.4S2618.92,779.8,2611,787.34Z"/><path class="cls-9" d="M2618.16,809.65a2.29,2.29,0,0,1-.91-.61c-3.74-4.06-4.54-9-2.15-13.11a11.54,11.54,0,0,1,12.14-5.57,2.39,2.39,0,0,1-1,4.67,6.81,6.81,0,0,0-6.95,3.29c-1.34,2.31-.8,5,1.52,7.48a2.39,2.39,0,0,1-2.61,3.85Z"/><path class="cls-1" d="M2555,835.59c.26-1.65-.11-3.21-1.77-3a134.25,134.25,0,0,1-35.67.28c-1.66-.18-2.06,1.4-1.72,3,1.4,6.78,9.08,14.33,19.28,14.25S2554,841.73,2555,835.59Z"/><path d="M2518.21,1670.35c-23.81,32.85-82.28,12.69-80.35,57.13h125.88c-.12-10.21-1.87-34.44-3.92-43.92Z"/><path d="M2651.26,1670.35c-23.81,32.85-82.29,12.69-80.35,57.13h125.88c-.12-10.21-1.88-34.44-3.93-43.92Z"/><path class="cls-25" d="M2477.05,1167.92s-14.44,210.57-8.57,257.38,26.63,106.83,24.28,261.68c29,7.25,71,0,71,0s6.23-175.09-24.42-253.29c12.46-76,52.45-250,52.45-250Z"/><path class="cls-14" d="M2531.92,1173.68s29.15,236.39,43.42,281.23,26.69,77.69,52.52,230.23c29.79,1.49,72.82.57,72.82.57s-3.89-189-50.29-233c-1.57-77,7.5-277.51,7.5-277.51Z"/><g id="v"><path id="h-5" class="cls-7" d="M2666.31,905.39s-50.64-17.73-67.52-9.6c-52.46,25.26-64.5,0-64.5,0-16.76,1.45-67.37,9.6-67.37,9.6,0,56.51-3.77,113.22-2.74,156,.72,37.25-6.38,138.6-6.38,138.6s55.83,14.64,108.64,15c52.8-.35,106.55-14.43,106.55-14.43s-2.82-102.65-5.17-140.81C2668.59,1017,2666.31,961.75,2666.31,905.39Z"/></g><g id="c-4" data-name="c"><path id="c-5" data-name="c" class="cls-15" d="M2376.92,989.38c20.9-49.86,82.91-81.58,90-84l14.39,64a374.51,374.51,0,0,0-51.42,36.68c3.67,17.82,3.05,35.3,13.37,57.85,0,0-9-12.37-20-5-10.74,7.11-30.51-7.41-30.51-7.41S2361,1027.47,2376.92,989.38Z"/></g><g id="c-6" data-name="c"><g id="c-7" data-name="c"><g id="c-8" data-name="c"><path id="c-9" data-name="c" class="cls-26" d="M2388.57,1115.39a5.27,5.27,0,0,1-1.09.22h-1.19a5.65,5.65,0,0,1-4.81-3.94L2325.77,932a5.16,5.16,0,0,1-.23-1.09,5.61,5.61,0,0,1,0-.71,2.94,2.94,0,0,1,0-.42c0-.13.05-.25.07-.37a5.64,5.64,0,0,1,3.87-4.49,7.39,7.39,0,0,1,1.06-.23,7,7,0,0,1,1.21,0H2472l56.2,190.88H2388.47Z"/><path id="c-10" data-name="c" class="cls-27" d="M2470.73,925a5.66,5.66,0,0,1,7.09,3.72l55.36,179.18.13.43a5.65,5.65,0,0,1-3.71,7.06h0a5.67,5.67,0,0,1-7.09-3.73L2467,932A5.66,5.66,0,0,1,2470.73,925Z"/></g></g><path id="c-11" data-name="c" class="cls-5" d="M2364.77,1038.92a5.57,5.57,0,0,0-1.68-.73l.19-.26c3.49-5.26,3.25-11.56-.53-14.06a6,6,0,0,0-2-.84c1-3.9.1-7.62-2.59-9.41a6.37,6.37,0,0,0-3.62-1c1.23-3.83.25-7.85-2.77-9.85-3.78-2.5-9.25-.88-12.23,3.61s-2.33,10.16,1.45,12.66a6.9,6.9,0,0,0,3.12,1.13c-2.51,4.9-2,10.26,1.41,12.52a6.25,6.25,0,0,0,2,.85c-1,3.89-.1,7.61,2.6,9.4a6.24,6.24,0,0,0,3.34,1c-1.25,3.35-.45,7,2.2,8.72,3.19,2.11,7.82.75,10.33-3.05S2368,1041,2364.77,1038.92Z"/><path class="cls-5" d="M2537.2,1027.57l-12.79-7.41s-3.53-18.14-24.07-18.57l5.74,18.57s-10.1,7.84-34.07-5.58c-23.43-5.27-13.42,11.81-21.19,13-11.46,1.81,8.35,24.33,31.75,27.77,30.27,4.46,33.86-1.74,33.86-1.74l17.13,6Z"/><path id="c-12" data-name="c" class="cls-15" d="M2668,1048.66c-42.73-3-128.07-25.81-128.07-25.81-11.67,17.89-8.44,41.66-8.44,41.66,66.36,58.18,166.24,77,196.89,63,28-12.78,8.1-183.13-62.15-222.15Z"/></g><path class="cls-27" d="M2442.15,952.23c2.42,6.07,8.64,9.28,13.9,7.18s7.55-8.71,5.13-14.78-8.64-9.28-13.9-7.18S2439.73,946.17,2442.15,952.23Z"/><path class="cls-27" d="M2424.25,950.17c1.44,3.62,5.15,5.54,8.29,4.29s4.5-5.2,3.06-8.82-5.16-5.54-8.29-4.28S2422.8,946.56,2424.25,950.17Z"/></g><rect class="cls-28" x="1909.33" y="1373.58" width="285.51" height="353.9" transform="translate(4104.16 3101.05) rotate(180)"/><rect class="cls-29" x="2136.01" y="1289.76" width="292.23" height="437.72" transform="translate(4564.25 3017.23) rotate(180)"/><rect class="cls-30" x="2019.11" y="1429.06" width="298.41" height="298.41" transform="translate(4336.64 3156.54) rotate(180)"/><rect class="cls-31" x="2057.86" y="1477.99" width="138.51" height="56.72" transform="translate(4254.24 3012.69) rotate(180)"/><rect class="cls-29" x="2226.85" y="1537.42" width="60.46" height="60.46" transform="translate(3472.76 4032.2) rotate(-151.04)"/><circle class="cls-31" cx="2217.67" cy="1598.12" r="34.72"/></svg>